<?xml version="1.0" standalone="no"?>
<!DOCTYPE svg PUBLIC "-//W3C//DTD SVG 1.1//EN" "http://www.w3.org/Graphics/SVG/1.1/DTD/svg11.dtd" >
<svg>
<metadata>
Created by FontForge 20090914 at Wed Jun 10 14:46:59 2015
 By www-data
Copyright (c) 2014  by Tarek Atrissi Design. All rights reserved.
</metadata>
<defs>
<font id="Luma-SemiBold" horiz-adv-x="0" >
  <font-face 
    font-family="Luma-SemiBold"
    font-weight="600"
    font-stretch="normal"
    units-per-em="1000"
    panose-1="1 0 5 0 0 0 0 2 0 6"
    ascent="800"
    descent="-200"
    bbox="-126 -489 1313 1071"
    underline-thickness="29"
    underline-position="-451"
    unicode-range="U+0020-U+FEFC"
  />
<missing-glyph horiz-adv-x="500" 
d="M62 0v562h375v-562h-375zM125 62h250v438h-250v-438z" />
    <glyph glyph-name="shaddehdamatan" unicode="&#x64c;&#x651;" arabic-form="isolated" 
d="M74 716c-17.333 3.33301 -30.3311 9.65918 -38.998 18.9922s-13.667 22 -15 38l-5 60l63 5l5 -55c1.33301 -9.33301 5.33301 -14.333 12 -15c4.66699 -1.33301 8.33398 -0.166016 11.001 3.50098s4.33398 7.83398 5.00098 12.501c1.33301 6 1.66602 14 0.999023 24
s-1.66699 21.667 -3 35l63 7l5 -63c0.666992 -3.33301 2.66699 -6.66602 6 -9.99902s6.66602 -5.33301 9.99902 -6c5.33301 -0.666992 9.16602 1 11.499 5s4.16602 8.66699 5.49902 14c0 3.33301 -0.166992 8.33301 -0.5 15s-0.833008 12 -1.5 16l-5 33l61 6
c1.33301 -3.33301 2.33301 -7.66602 3 -12.999s1.66699 -12.666 3 -21.999c0.666992 -7.33301 1 -15.166 1 -23.499s-0.666992 -15.166 -2 -20.499c-4.66699 -21.333 -15.667 -38.166 -33 -50.499s-38.666 -16.166 -63.999 -11.499c-6 1.33301 -11.833 3.5 -17.5 6.5
s-10.834 6.5 -15.501 10.5c-6 -5.33301 -14.5 -10.833 -25.5 -16.5s-24.167 -6.83398 -39.5 -3.50098zM171.002 984.993c0 -8 2.33398 -16.334 7.00098 -25.001c14.667 4 24 10.333 28 19c-1.33301 4.66699 -4.33301 9.33398 -9 14.001s-9.33398 7 -14.001 7
c-8 0 -12 -5 -12 -15zM12.0029 971.992l55.001 16.9971l27 -62l33 11c-3.33301 8 -5.66602 16.167 -6.99902 24.5s-2 15.833 -2 22.5c0 21.333 6.16699 38 18.5 50s27.166 18 44.499 18c10 0 19.667 -2.16699 29 -6.5s17.666 -10.166 24.999 -17.499
s13.166 -15.666 17.499 -24.999s6.5 -18.666 6.5 -27.999c0 -13.333 -6.16699 -27.5 -18.5 -42.5s-36.166 -28.167 -71.499 -39.5l-110 -35z" />
    <glyph glyph-name="shaddehkasratan" unicode="&#x64d;&#x651;" arabic-form="isolated" 
d="M19 765l241 60l14 -56l-242 -58zM-5 857l241 60l14 -56l-242 -58zM19 927c-17.333 3.33301 -30.3311 9.65918 -38.998 18.9922s-13.667 22 -15 38l-5 60l63 5l5 -55c1.33301 -9.33301 5.33301 -14.333 12 -15c4.66699 -1.33301 8.33398 -0.166016 11.001 3.50098
s4.33398 7.83398 5.00098 12.501c1.33301 6 1.66602 14 0.999023 24s-1.66699 21.667 -3 35l63 7l5 -63c0.666992 -3.33301 2.66699 -6.66602 6 -9.99902s6.66602 -5.33301 9.99902 -6c5.33301 -0.666992 9.16602 1 11.499 5s4.16602 8.66699 5.49902 14
c0 3.33301 -0.166992 8.33301 -0.5 15s-0.833008 12 -1.5 16l-5 33l61 6c1.33301 -3.33301 2.33301 -7.66602 3 -12.999s1.66699 -12.666 3 -21.999c0.666992 -7.33301 1 -15.166 1 -23.499s-0.666992 -15.166 -2 -20.499c-4.66699 -21.333 -15.667 -38.166 -33 -50.499
s-38.666 -16.166 -63.999 -11.499c-6 1.33301 -11.833 3.5 -17.5 6.5s-10.834 6.5 -15.501 10.5c-6 -5.33301 -14.5 -10.833 -25.5 -16.5s-24.167 -6.83398 -39.5 -3.50098z" />
    <glyph glyph-name="shaddehfatha" unicode="&#x64e;&#x651;" arabic-form="isolated" 
d="M74 716c-17.333 3.33301 -30.3311 9.65918 -38.998 18.9922s-13.667 22 -15 38l-5 60l63 5l5 -55c1.33301 -9.33301 5.33301 -14.333 12 -15c4.66699 -1.33301 8.33398 -0.166016 11.001 3.50098s4.33398 7.83398 5.00098 12.501c1.33301 6 1.66602 14 0.999023 24
s-1.66699 21.667 -3 35l63 7l5 -63c0.666992 -3.33301 2.66699 -6.66602 6 -9.99902s6.66602 -5.33301 9.99902 -6c5.33301 -0.666992 9.16602 1 11.499 5s4.16602 8.66699 5.49902 14c0 3.33301 -0.166992 8.33301 -0.5 15s-0.833008 12 -1.5 16l-5 33l61 6
c1.33301 -3.33301 2.33301 -7.66602 3 -12.999s1.66699 -12.666 3 -21.999c0.666992 -7.33301 1 -15.166 1 -23.499s-0.666992 -15.166 -2 -20.499c-4.66699 -21.333 -15.667 -38.166 -33 -50.499s-38.666 -16.166 -63.999 -11.499c-6 1.33301 -11.833 3.5 -17.5 6.5
s-10.834 6.5 -15.501 10.5c-6 -5.33301 -14.5 -10.833 -25.5 -16.5s-24.167 -6.83398 -39.5 -3.50098zM11.002 935.993l241 60l14 -56l-242 -58z" />
    <glyph glyph-name="shaddehdamma" unicode="&#x64f;&#x651;" arabic-form="isolated" 
d="M74 716c-17.333 3.33301 -30.3311 9.65918 -38.998 18.9922s-13.667 22 -15 38l-5 60l63 5l5 -55c1.33301 -9.33301 5.33301 -14.333 12 -15c4.66699 -1.33301 8.33398 -0.166016 11.001 3.50098s4.33398 7.83398 5.00098 12.501c1.33301 6 1.66602 14 0.999023 24
s-1.66699 21.667 -3 35l63 7l5 -63c0.666992 -3.33301 2.66699 -6.66602 6 -9.99902s6.66602 -5.33301 9.99902 -6c5.33301 -0.666992 9.16602 1 11.499 5s4.16602 8.66699 5.49902 14c0 3.33301 -0.166992 8.33301 -0.5 15s-0.833008 12 -1.5 16l-5 33l61 6
c1.33301 -3.33301 2.33301 -7.66602 3 -12.999s1.66699 -12.666 3 -21.999c0.666992 -7.33301 1 -15.166 1 -23.499s-0.666992 -15.166 -2 -20.499c-4.66699 -21.333 -15.667 -38.166 -33 -50.499s-38.666 -16.166 -63.999 -11.499c-6 1.33301 -11.833 3.5 -17.5 6.5
s-10.834 6.5 -15.501 10.5c-6 -5.33301 -14.5 -10.833 -25.5 -16.5s-24.167 -6.83398 -39.5 -3.50098zM161.002 973.993c14.667 4 24.002 10.3311 28.002 18.998c-1.33301 4.66699 -4.33301 9.33398 -9 14.001s-9.33398 7 -14.001 7c-5.33301 0 -8.83301 -1.66699 -10.5 -5
s-2.33398 -7.16602 -2.00098 -11.499s1.33301 -8.83301 3 -13.5s3.16699 -8 4.5 -10zM26.0039 932.991l84 21.001c-3.33301 8 -5.66602 15.667 -6.99902 23s-2 14.666 -2 21.999c0 21.333 6.16699 38 18.5 50s27.166 18 44.499 18c10 0 19.667 -2.33301 29 -7
s17.833 -10.834 25.5 -18.501s13.667 -16.167 18 -25.5s6.5 -18.666 6.5 -27.999c0 -14 -6.33301 -28.5 -19 -43.5s-37 -27.167 -73 -36.5l-112 -30z" />
    <glyph glyph-name="shaddehkasra" unicode="&#x650;&#x651;" arabic-form="isolated" 
d="M19 765l241 60l14 -56l-242 -58zM71 841c-17.333 3.33301 -30.3311 9.65918 -38.998 18.9922s-13.667 22 -15 38l-5 60l63 5l5 -55c1.33301 -9.33301 5.33301 -14.333 12 -15c4.66699 -1.33301 8.33398 -0.166016 11.001 3.50098s4.33398 7.83398 5.00098 12.501
c1.33301 6 1.66602 14 0.999023 24s-1.66699 21.667 -3 35l63 7l5 -63c0.666992 -3.33301 2.66699 -6.66602 6 -9.99902s6.66602 -5.33301 9.99902 -6c5.33301 -0.666992 9.16602 1 11.499 5s4.16602 8.66699 5.49902 14c0 3.33301 -0.166992 8.33301 -0.5 15
s-0.833008 12 -1.5 16l-5 33l61 6c1.33301 -3.33301 2.33301 -7.66602 3 -12.999s1.66699 -12.666 3 -21.999c0.666992 -7.33301 1 -15.166 1 -23.499s-0.666992 -15.166 -2 -20.499c-4.66699 -21.333 -15.667 -38.166 -33 -50.499s-38.666 -16.166 -63.999 -11.499
c-6 1.33301 -11.833 3.5 -17.5 6.5s-10.834 6.5 -15.501 10.5c-6 -5.33301 -14.5 -10.833 -25.5 -16.5s-24.167 -6.83398 -39.5 -3.50098z" />
    <glyph glyph-name="lammeeminitial" unicode="&#xfedf;&#xfee4;" horiz-adv-x="892" arabic-form="initial" 
d="M317 413c62 0 108.169 -13.998 138.502 -41.998s45.5 -71.667 45.5 -131v-129h98v-111h-259c-32.667 0 -61.834 3 -87.501 9s-47.834 15.667 -66.501 29c-36.667 -25.333 -86.667 -38 -150 -38h-45v111h48c11.333 0 22.333 1 33 3s20.167 5.5 28.5 10.5
s15 11.167 20 18.5s7.5 16.666 7.5 27.999v83c0 47.333 14.667 85.666 44 114.999s69.333 44 120 44h25zM298.002 294.002c-15.333 0 -27.5 -3.66797 -36.5 -11.001s-13.5 -18.333 -13.5 -33v-79c0 -11.333 2.5 -20.666 7.5 -27.999s11.667 -13.5 20 -18.5
s17.833 -8.5 28.5 -10.5s21.667 -3 33 -3h44v118c0 26.667 -6.16699 44.167 -18.5 52.5s-28.833 12.5 -49.5 12.5h-15zM581.002 0.000976562v111h39c20 0 37 3.16699 51 9.5s21 19.833 21 40.5v519h120v-519c0 -56.667 -16.667 -97.667 -50 -123s-80.333 -38 -141 -38h-40z
" />
    <glyph glyph-name="aleffathatanfina" unicode="&#xfe8e;&#x64b;" horiz-adv-x="292" arabic-form="final" 
d="M261 0c-60.667 0 -107.667 12.667 -141 38s-50 66.333 -50 123v519h120v-519c0 -20.667 7 -34.167 21 -40.5s31 -9.5 51 -9.5h39v-111h-40zM19 765l241 60l14 -56l-242 -58zM-5 857l241 60l14 -56l-242 -58z" />
    <glyph glyph-name="aleffathataniso" unicode="&#x627;&#x64b;" horiz-adv-x="280" arabic-form="isolated" 
d="M200 0h-120v680h120v-680zM19 765l241 60l14 -56l-242 -58zM-5 857l241 60l14 -56l-242 -58z" />
    <glyph glyph-name="lilah" unicode="&#xfedf;&#xfee0;&#x651;&#x670;&#xfeea;" horiz-adv-x="1258" arabic-form="isolated" 
d="M568 0h-286c-30 0 -59 4.16699 -87 12.5s-52.833 21 -74.5 38s-38.834 38.667 -51.501 65s-19 57.833 -19 94.5c0 28.667 5.16699 55.334 15.5 80.001s25.666 46.167 45.999 64.5s45.333 32.833 75 43.5s63.834 16 102.501 16c10.667 0 24.334 -1 41.001 -3
s34 -4.5 52 -7.5s35.5 -6.83301 52.5 -11.5s31.5 -9.33398 43.5 -14.001v-267h90v-111zM358 298c-6 1.33301 -14.832 3.16602 -26.499 5.49902s-25.834 3.5 -42.501 3.5c-42 0 -73 -9 -93 -27s-30 -41.333 -30 -70c0 -31.333 10.333 -55.666 31 -72.999s49 -26 85 -26h76
v187zM908.001 0c-32.667 0 -61.001 3.49902 -85.001 10.499s-46 15.167 -66 24.5c-13.333 -11.333 -30.666 -20 -51.999 -26s-45 -9 -71 -9h-84v111h79c45.333 0 68 23.667 68 71v498h120v-506c0 -10.667 -1 -19.667 -3 -27s-4 -13.666 -6 -18.999
c10 -5.33301 22.5 -9.5 37.5 -12.5s30.5 -4.5 46.5 -4.5h74v-111h-58zM947 -0.000976562v111h39c20 0 37 3.16699 51 9.5s21 19.833 21 40.5v519h120v-519c0 -56.667 -16.667 -97.667 -50 -123s-80.333 -38 -141 -38h-40z" />
    <glyph glyph-name="lamalefmaddaaboveiso" unicode="&#xfedf;&#xfe82;" horiz-adv-x="638" arabic-form="isolated" 
d="M367 0h-316v111h131v439h120v-439h64c20 0 37 3.16699 51 9.5s21 19.833 21 40.5v519h120v-519c0 -56.667 -16.667 -97.667 -50 -123s-80.333 -38 -141 -38zM381 728c0 -42 -8.50293 -74.333 -25.5029 -97s-40.5 -34 -70.5 -34c-17.333 0 -32.166 4 -44.499 12
s-24.166 16.333 -35.499 25l-21 15.5c-6.66699 5 -12.667 7.5 -18 7.5c-14 0 -21 -19.333 -21 -58h-76c0 42 8.33301 74.333 25 97s40 34 70 34c16.667 0 31.334 -4 44.001 -12s24.667 -16.333 36 -25c7.33301 -6 14.5 -11.333 21.5 -16s13.167 -7 18.5 -7
c13.333 0 20 19.333 20 58h77z" />
    <glyph glyph-name="lamalefmaddaabovefina" unicode="&#xfee0;&#xfe82;" horiz-adv-x="698" arabic-form="final" 
d="M375 0l-324.001 -0.000976562v111h131v439h120v-439h68c45.333 0 68 23.667 68 71v498h120v-506c0 -10.667 -1 -19.667 -3 -27s-4 -13.666 -6 -18.999c10 -5.33301 22.5 -9.5 37.5 -12.5s30.5 -4.5 46.5 -4.5h74v-111h-58c-32.667 0 -61 3.5 -85 10.5
s-46 15.167 -66 24.5c-13.333 -11.333 -30.666 -20 -51.999 -26s-45 -9 -71 -9zM380.999 727.999c0 -42 -8.50293 -74.333 -25.5029 -97s-40.5 -34 -70.5 -34c-17.333 0 -32.166 4 -44.499 12s-24.166 16.333 -35.499 25l-21 15.5c-6.66699 5 -12.667 7.5 -18 7.5
c-14 0 -21 -19.333 -21 -58h-76c0 42 8.33301 74.333 25 97s40 34 70 34c16.667 0 31.334 -4 44.001 -12s24.667 -16.333 36 -25c7.33301 -6 14.5 -11.333 21.5 -16s13.167 -7 18.5 -7c13.333 0 20 19.333 20 58h77z" />
    <glyph glyph-name="lamalefhamzaaboveiso" unicode="&#xfedf;&#xfe84;" horiz-adv-x="638" arabic-form="isolated" 
d="M367 0h-316v111h131v439h120v-439h64c20 0 37 3.16699 51 9.5s21 19.833 21 40.5v519h120v-519c0 -56.667 -16.667 -97.667 -50 -123s-80.333 -38 -141 -38zM141 671h40c-2 4.66699 -3.66699 10.5 -5 17.5s-2 12.5 -2 16.5c0 16.667 2.66699 31 8 43s12.5 21.667 21.5 29
s19.5 12.833 31.5 16.5s24.333 5.5 37 5.5c10.667 0 21 -1.66699 31 -5s21 -8.66602 33 -15.999v-67c-6 4 -14.167 8.16699 -24.5 12.5s-20.5 6.83301 -30.5 7.5s-18.5 -0.833008 -25.5 -4.5s-10.5 -11.5 -10.5 -23.5c0 -3.33301 0.833008 -8.33301 2.5 -15
s4.16699 -12.334 7.5 -17.001h81v-63h-195v63z" />
    <glyph glyph-name="lamalefhamzaabovefina" unicode="&#xfee0;&#xfe84;" horiz-adv-x="698" arabic-form="final" 
d="M375 0l-324.001 -0.000976562v111h131v439h120v-439h68c45.333 0 68 23.667 68 71v498h120v-506c0 -10.667 -1 -19.667 -3 -27s-4 -13.666 -6 -18.999c10 -5.33301 22.5 -9.5 37.5 -12.5s30.5 -4.5 46.5 -4.5h74v-111h-58c-32.667 0 -61 3.5 -85 10.5
s-46 15.167 -66 24.5c-13.333 -11.333 -30.666 -20 -51.999 -26s-45 -9 -71 -9zM140.999 670.999h40c-2 4.66699 -3.66699 10.5 -5 17.5s-2 12.5 -2 16.5c0 16.667 2.66699 31 8 43s12.5 21.667 21.5 29s19.5 12.833 31.5 16.5s24.333 5.5 37 5.5
c10.667 0 21 -1.66699 31 -5s21 -8.66602 33 -15.999v-67c-6 4 -14.167 8.16699 -24.5 12.5s-20.5 6.83301 -30.5 7.5s-18.5 -0.833008 -25.5 -4.5s-10.5 -11.5 -10.5 -23.5c0 -3.33301 0.833008 -8.33301 2.5 -15s4.16699 -12.334 7.5 -17.001h81v-63h-195v63z" />
    <glyph glyph-name="lamalefhamzabelowiso" unicode="&#xfedf;&#xfe88;" horiz-adv-x="638" arabic-form="isolated" 
d="M367 0h-316v111h131v439h120v-439h64c20 0 37 3.16699 51 9.5s21 19.833 21 40.5v519h120v-519c0 -56.667 -16.667 -97.667 -50 -123s-80.333 -38 -141 -38zM125 -221h40c-2 4.66699 -3.66699 10.5 -5 17.5s-2 12.5 -2 16.5c0 16.667 2.66699 31 8 43
s12.5 21.667 21.5 29s19.5 12.833 31.5 16.5s24.333 5.5 37 5.5c10.667 0 21 -1.66699 31 -5s21 -8.66602 33 -15.999v-67c-6 4 -14.167 8.16699 -24.5 12.5s-20.5 6.83301 -30.5 7.5s-18.5 -0.833008 -25.5 -4.5s-10.5 -11.5 -10.5 -23.5
c0 -3.33301 0.833008 -8.33301 2.5 -15s4.16699 -12.334 7.5 -17.001h81v-63h-195v63z" />
    <glyph glyph-name="lamalefhamzabelowfina" unicode="&#xfee0;&#xfe88;" horiz-adv-x="698" arabic-form="final" 
d="M375 0l-324.001 -0.000976562v111h131v439h120v-439h68c45.333 0 68 23.667 68 71v498h120v-506c0 -10.667 -1 -19.667 -3 -27s-4 -13.666 -6 -18.999c10 -5.33301 22.5 -9.5 37.5 -12.5s30.5 -4.5 46.5 -4.5h74v-111h-58c-32.667 0 -61 3.5 -85 10.5
s-46 15.167 -66 24.5c-13.333 -11.333 -30.666 -20 -51.999 -26s-45 -9 -71 -9zM124.999 -221.001h40c-2 4.66699 -3.66699 10.5 -5 17.5s-2 12.5 -2 16.5c0 16.667 2.66699 31 8 43s12.5 21.667 21.5 29s19.5 12.833 31.5 16.5s24.333 5.5 37 5.5
c10.667 0 21 -1.66699 31 -5s21 -8.66602 33 -15.999v-67c-6 4 -14.167 8.16699 -24.5 12.5s-20.5 6.83301 -30.5 7.5s-18.5 -0.833008 -25.5 -4.5s-10.5 -11.5 -10.5 -23.5c0 -3.33301 0.833008 -8.33301 2.5 -15s4.16699 -12.334 7.5 -17.001h81v-63h-195v63z" />
    <glyph glyph-name="lamalefiso" unicode="&#xfedf;&#xfe8e;" horiz-adv-x="638" arabic-form="isolated" 
d="M367 0h-316v111h131v439h120v-439h64c20 0 37 3.16699 51 9.5s21 19.833 21 40.5v519h120v-519c0 -56.667 -16.667 -97.667 -50 -123s-80.333 -38 -141 -38z" />
    <glyph glyph-name="lamaleffina" unicode="&#xfee0;&#xfe8e;" horiz-adv-x="698" arabic-form="final" 
d="M375 0l-324.001 -0.000976562v111h131v439h120v-439h68c45.333 0 68 23.667 68 71v498h120v-506c0 -10.667 -1 -19.667 -3 -27s-4 -13.666 -6 -18.999c10 -5.33301 22.5 -9.5 37.5 -12.5s30.5 -4.5 46.5 -4.5h74v-111h-58c-32.667 0 -61 3.5 -85 10.5
s-46 15.167 -66 24.5c-13.333 -11.333 -30.666 -20 -51.999 -26s-45 -9 -71 -9z" />
    <glyph glyph-name="shaddahfathatan" unicode="&#x64b;&#x651;" 
d="M74 716c-17.333 3.33301 -30.3311 9.65918 -38.998 18.9922s-13.667 22 -15 38l-5 60l63 5l5 -55c1.33301 -9.33301 5.33301 -14.333 12 -15c4.66699 -1.33301 8.33398 -0.166016 11.001 3.50098s4.33398 7.83398 5.00098 12.501c1.33301 6 1.66602 14 0.999023 24
s-1.66699 21.667 -3 35l63 7l5 -63c0.666992 -3.33301 2.66699 -6.66602 6 -9.99902s6.66602 -5.33301 9.99902 -6c5.33301 -0.666992 9.16602 1 11.499 5s4.16602 8.66699 5.49902 14c0 3.33301 -0.166992 8.33301 -0.5 15s-0.833008 12 -1.5 16l-5 33l61 6
c1.33301 -3.33301 2.33301 -7.66602 3 -12.999s1.66699 -12.666 3 -21.999c0.666992 -7.33301 1 -15.166 1 -23.499s-0.666992 -15.166 -2 -20.499c-4.66699 -21.333 -15.667 -38.166 -33 -50.499s-38.666 -16.166 -63.999 -11.499c-6 1.33301 -11.833 3.5 -17.5 6.5
s-10.834 6.5 -15.501 10.5c-6 -5.33301 -14.5 -10.833 -25.5 -16.5s-24.167 -6.83398 -39.5 -3.50098z" />
    <glyph glyph-name="hamza" unicode="&#x621;" horiz-adv-x="492" arabic-form="isolated" 
d="M442 0l-387 -0.00292969v111h73c-10 40.667 -12.5 76.834 -7.5 108.501s16.167 58.334 33.5 80.001s39.666 38.167 66.999 49.5s58.333 17 93 17c21.333 0 42.333 -2.66699 63 -8s42.334 -13.666 65.001 -24.999v-122c-28 16 -52.5 28 -73.5 36s-38.167 12 -51.5 12
c-22.667 0 -41.167 -4.66699 -55.5 -14s-24.5 -21.333 -30.5 -36s-7.66699 -30.667 -5 -48s9.66699 -34 21 -50h195v-111z" />
    <glyph glyph-name="alefmaddaaboveiso" unicode="&#x622;" horiz-adv-x="280" arabic-form="isolated" 
d="M200 0h-120v680h120v-680zM286 842c0 -42 -8.50293 -74.333 -25.5029 -97s-40.5 -34 -70.5 -34c-17.333 0 -32.166 4 -44.499 12s-24.166 16.333 -35.499 25l-21 15.5c-6.66699 5 -12.667 7.5 -18 7.5c-14 0 -21 -19.333 -21 -58h-76c0 42 8.33301 74.333 25 97
s40 34 70 34c16.667 0 31.334 -4 44.001 -12s24.667 -16.333 36 -25c7.33301 -6 14.5 -11.333 21.5 -16s13.167 -7 18.5 -7c13.333 0 20 19.333 20 58h77z" />
    <glyph glyph-name="alefhamzaaboveiso" unicode="&#x623;" horiz-adv-x="280" arabic-form="isolated" 
d="M200 0h-120v680h120v-680zM22 774h40c-2 4.66699 -3.66699 10.5 -5 17.5s-2 12.5 -2 16.5c0 16.667 2.66699 31 8 43s12.5 21.667 21.5 29s19.5 12.833 31.5 16.5s24.333 5.5 37 5.5c10.667 0 21 -1.66699 31 -5s21 -8.66602 33 -15.999v-67
c-6 4 -14.167 8.16699 -24.5 12.5s-20.5 6.83301 -30.5 7.5s-18.5 -0.833008 -25.5 -4.5s-10.5 -11.5 -10.5 -23.5c0 -3.33301 0.833008 -8.33301 2.5 -15s4.16699 -12.334 7.5 -17.001h81v-63h-195v63z" />
    <glyph glyph-name="wawhamzaiso" unicode="&#x624;" horiz-adv-x="558" arabic-form="isolated" 
d="M358 298c-6 1.33301 -14.832 3.16602 -26.499 5.49902s-25.834 3.5 -42.501 3.5c-42 0 -73 -9 -93 -27s-30 -41.333 -30 -70c0 -31.333 10.333 -55.666 31 -72.999s49 -26 85 -26h76v187zM357.001 0h-74.999c-30 0 -59 4.16699 -87 12.5s-52.833 21 -74.5 38
s-38.834 38.667 -51.501 65s-19 57.833 -19 94.5c0 28.667 5.16699 55.334 15.5 80.001s25.666 46.167 45.999 64.5s45.333 32.833 75 43.5s63.834 16 102.501 16c10.667 0 24.334 -1 41.001 -3s34 -4.5 52 -7.5s35.5 -6.83301 52.5 -11.5s31.5 -9.33398 43.5 -14.001v-401
c0 -38 -7.16699 -69.667 -21.5 -95s-32.5 -45.5 -54.5 -60.5s-46.333 -25.667 -73 -32s-52.667 -9.5 -78 -9.5c-56 0 -107 11 -153 33v112c27.333 -15.333 52.666 -26.5 75.999 -33.5s49 -10.5 77 -10.5c29.333 0 54.333 8 75 24s31 41 31 75v20zM155.002 533h40
c-2 4.66699 -3.66699 10.5 -5 17.5s-2 12.5 -2 16.5c0 16.667 2.66699 31 8 43s12.5 21.667 21.5 29s19.5 12.833 31.5 16.5s24.333 5.5 37 5.5c10.667 0 21 -1.66699 31 -5s21 -8.66602 33 -15.999v-67c-6 4 -14.167 8.16699 -24.5 12.5s-20.5 6.83301 -30.5 7.5
s-18.5 -0.833008 -25.5 -4.5s-10.5 -11.5 -10.5 -23.5c0 -3.33301 0.833008 -8.33301 2.5 -15s4.16699 -12.334 7.5 -17.001h81v-63h-195v63z" />
    <glyph glyph-name="alefhamzabelowiso" unicode="&#x625;" horiz-adv-x="280" arabic-form="isolated" 
d="M200 0h-120v680h120v-680zM33 -221h40c-2 4.66699 -3.66699 10.5 -5 17.5s-2 12.5 -2 16.5c0 16.667 2.66699 31 8 43s12.5 21.667 21.5 29s19.5 12.833 31.5 16.5s24.333 5.5 37 5.5c10.667 0 21 -1.66699 31 -5s21 -8.66602 33 -15.999v-67
c-6 4 -14.167 8.16699 -24.5 12.5s-20.5 6.83301 -30.5 7.5s-18.5 -0.833008 -25.5 -4.5s-10.5 -11.5 -10.5 -23.5c0 -3.33301 0.833008 -8.33301 2.5 -15s4.16699 -12.334 7.5 -17.001h81v-63h-195v63z" />
    <glyph glyph-name="hamzakirsehiso" unicode="&#x626;" horiz-adv-x="730" arabic-form="isolated" 
d="M293 -124c-33.333 0 -64.668 3.16016 -94.001 9.49316s-55 17.5 -77 33.5s-39.5 37.5 -52.5 64.5s-19.5 61.167 -19.5 102.5v190h120v-185c0 -21.333 3 -38.666 9 -51.999s14.333 -23.666 25 -30.999s23.667 -12.5 39 -15.5s32 -4.5 50 -4.5h154
c14.667 0 29 1.33301 43 4s26.5 6.5 37.5 11.5s19.833 11 26.5 18s10 14.833 10 23.5c0 11.333 -7 23.333 -21 36s-32.667 22.667 -56 30c-41.333 14 -73.333 31.5 -96 52.5s-34 51.167 -34 90.5c0 25.333 5 48 15 68s23 36.833 39 50.5s34.333 24.167 55 31.5s42 11 64 11
s43.833 -3.33301 65.5 -10s43.834 -18 66.501 -34v-121c-28 23.333 -52.667 38.5 -74 45.5s-40.666 10.5 -57.999 10.5c-5.33301 0 -11.333 -0.666992 -18 -2s-12.667 -3.83301 -18 -7.5s-9.83301 -8.66699 -13.5 -15s-5.5 -14.166 -5.5 -23.499
c0 -17.333 6.5 -30.166 19.5 -38.499s30.167 -16.5 51.5 -24.5c19.333 -7.33301 37.166 -15.5 53.499 -24.5s30.5 -19.167 42.5 -30.5s21.333 -24.5 28 -39.5s10 -32.167 10 -51.5c0 -33.333 -7 -61.166 -21 -83.499s-32.167 -40.166 -54.5 -53.499
s-47.333 -22.666 -75 -27.999s-55.167 -8 -82.5 -8h-154zM98.998 408.993h40c-2 4.66699 -3.66699 10.5 -5 17.5s-2 12.5 -2 16.5c0 16.667 2.66699 31 8 43s12.5 21.667 21.5 29s19.5 12.833 31.5 16.5s24.333 5.5 37 5.5c10.667 0 21 -1.66699 31 -5
s21 -8.66602 33 -15.999v-67c-6 4 -14.167 8.16699 -24.5 12.5s-20.5 6.83301 -30.5 7.5s-18.5 -0.833008 -25.5 -4.5s-10.5 -11.5 -10.5 -23.5c0 -3.33301 0.833008 -8.33301 2.5 -15s4.16699 -12.334 7.5 -17.001h81v-63h-195v63z" />
    <glyph glyph-name="alefiso" unicode="&#x627;" horiz-adv-x="280" arabic-form="isolated" 
d="M200 0h-120v680h120v-680z" />
    <glyph glyph-name="behiso" unicode="&#x628;" horiz-adv-x="842" arabic-form="isolated" 
d="M241 0c-60.667 0 -107.667 12.667 -141 38s-50 66.333 -50 123v252h120v-252c0 -20.667 7 -34.167 21 -40.5s31 -9.5 51 -9.5h328c20 0 37 3.16699 51 9.5s21 19.833 21 40.5v252h120v-252c0 -56.667 -16.667 -97.667 -50 -123s-80.333 -38 -141 -38h-330zM406 -239
c-20 0 -37 7 -51 21s-21 30.667 -21 50c0 20.667 7 38 21 52s31 21 51 21c19.333 0 36.166 -7 50.499 -21s21.5 -31.333 21.5 -52c0 -19.333 -7.16699 -36 -21.5 -50s-31.166 -21 -50.499 -21z" />
    <glyph glyph-name="tehmarboutaiso" unicode="&#x629;" horiz-adv-x="558" arabic-form="isolated" 
d="M478 0h-196c-30 0 -59 4.16699 -87 12.5s-52.833 21 -74.5 38s-38.834 38.667 -51.501 65s-19 57.833 -19 94.5c0 28.667 5.16699 55.334 15.5 80.001s25.666 46.167 45.999 64.5s45.333 32.833 75 43.5s63.834 16 102.501 16c10.667 0 24.334 -1 41.001 -3
s34 -4.5 52 -7.5s35.5 -6.83301 52.5 -11.5s31.5 -9.33398 43.5 -14.001v-378zM358 298c-6 1.33301 -14.832 3.16602 -26.499 5.49902s-25.834 3.5 -42.501 3.5c-42 0 -73 -9 -93 -27s-30 -41.333 -30 -70c0 -31.333 10.333 -55.666 31 -72.999s49 -26 85 -26h76v187z
M181.001 487c-20 0 -37 7 -51 21s-21 30.667 -21 50c0 20.667 7 38 21 52s31 21 51 21c19.333 0 36.166 -7 50.499 -21s21.5 -31.333 21.5 -52c0 -19.333 -7.16699 -36 -21.5 -50s-31.166 -21 -50.499 -21zM361.001 487c-20 0 -37 7 -51 21s-21 30.667 -21 50
c0 20.667 7 38 21 52s31 21 51 21c19.333 0 36.166 -7 50.499 -21s21.5 -31.333 21.5 -52c0 -19.333 -7.16699 -36 -21.5 -50s-31.166 -21 -50.499 -21z" />
    <glyph glyph-name="taiso" unicode="&#x62a;" horiz-adv-x="842" arabic-form="isolated" 
d="M241 0c-60.667 0 -107.667 12.667 -141 38s-50 66.333 -50 123v252h120v-252c0 -20.667 7 -34.167 21 -40.5s31 -9.5 51 -9.5h328c20 0 37 3.16699 51 9.5s21 19.833 21 40.5v252h120v-252c0 -56.667 -16.667 -97.667 -50 -123s-80.333 -38 -141 -38h-330zM309 488
c-20 0 -37 7 -51 21s-21 30.667 -21 50c0 20.667 7 38 21 52s31 21 51 21c19.333 0 36.166 -7 50.499 -21s21.5 -31.333 21.5 -52c0 -19.333 -7.16699 -36 -21.5 -50s-31.166 -21 -50.499 -21zM489 488c-20 0 -37 7 -51 21s-21 30.667 -21 50c0 20.667 7 38 21 52
s31 21 51 21c19.333 0 36.166 -7 50.499 -21s21.5 -31.333 21.5 -52c0 -19.333 -7.16699 -36 -21.5 -50s-31.166 -21 -50.499 -21z" />
    <glyph glyph-name="thaiso" unicode="&#x62b;" horiz-adv-x="842" arabic-form="isolated" 
d="M241 0c-60.667 0 -107.667 12.667 -141 38s-50 66.333 -50 123v252h120v-252c0 -20.667 7 -34.167 21 -40.5s31 -9.5 51 -9.5h328c20 0 37 3.16699 51 9.5s21 19.833 21 40.5v252h120v-252c0 -56.667 -16.667 -97.667 -50 -123s-80.333 -38 -141 -38h-330zM312 465
c-20 0 -37 7 -51 21s-21 30.667 -21 50c0 20.667 7 38 21 52s31 21 51 21c19.333 0 36.166 -7 50.499 -21s21.5 -31.333 21.5 -52c0 -19.333 -7.16699 -36 -21.5 -50s-31.166 -21 -50.499 -21zM492 465c-20 0 -37 7 -51 21s-21 30.667 -21 50c0 20.667 7 38 21 52
s31 21 51 21c19.333 0 36.166 -7 50.499 -21s21.5 -31.333 21.5 -52c0 -19.333 -7.16699 -36 -21.5 -50s-31.166 -21 -50.499 -21zM406 628c-20 0 -37 7 -51 21s-21 30.667 -21 50c0 20.667 7 38 21 52s31 21 51 21c19.333 0 36.166 -7 50.499 -21s21.5 -31.333 21.5 -52
c0 -19.333 -7.16699 -36 -21.5 -50s-31.166 -21 -50.499 -21z" />
    <glyph glyph-name="jeemiso" unicode="&#x62c;" horiz-adv-x="601" arabic-form="isolated" 
d="M280 0c-30 0 -54.834 -4.83398 -74.501 -14.501s-29.5 -21.5 -29.5 -35.5s8.5 -25.167 25.5 -33.5s38.5 -12.5 64.5 -12.5h92v-121h-95c-30.667 0 -58.5 3.83301 -83.5 11.5s-46.333 18.834 -64 33.501s-31.334 32.334 -41.001 53.001s-14.5 43.667 -14.5 69
c0 48 19 86.833 57 116.5s91 44.5 159 44.5h146v127c0 12.667 -2.16699 23.167 -6.5 31.5s-10 14.666 -17 18.999s-15 7.33301 -24 9s-17.833 2.5 -26.5 2.5h-63c-9.33301 0 -19.666 -0.5 -30.999 -1.5s-23.166 -2.5 -35.499 -4.5s-24.333 -4.5 -36 -7.5
s-22.5 -6.5 -32.5 -10.5v108c19.333 9.33301 42.5 16.5 69.5 21.5s51.833 7.5 74.5 7.5h63c28 0 53.333 -3 76 -9s42 -15.5 58 -28.5s28.333 -30 37 -51s13 -46.167 13 -75.5v-249h-261zM478.999 -229.001c-20 0 -37 7 -51 21s-21 30.667 -21 50c0 20.667 7 38 21 52
s31 21 51 21c19.333 0 36.166 -7 50.499 -21s21.5 -31.333 21.5 -52c0 -19.333 -7.16699 -36 -21.5 -50s-31.166 -21 -50.499 -21z" />
    <glyph glyph-name="haaiso" unicode="&#x62d;" horiz-adv-x="601" arabic-form="isolated" 
d="M280 0c-30 0 -54.834 -4.83398 -74.501 -14.501s-29.5 -21.5 -29.5 -35.5s8.5 -25.167 25.5 -33.5s38.5 -12.5 64.5 -12.5h92v-121h-95c-30.667 0 -58.5 3.83301 -83.5 11.5s-46.333 18.834 -64 33.501s-31.334 32.334 -41.001 53.001s-14.5 43.667 -14.5 69
c0 48 19 86.833 57 116.5s91 44.5 159 44.5h146v127c0 12.667 -2.16699 23.167 -6.5 31.5s-10 14.666 -17 18.999s-15 7.33301 -24 9s-17.833 2.5 -26.5 2.5h-63c-9.33301 0 -19.666 -0.5 -30.999 -1.5s-23.166 -2.5 -35.499 -4.5s-24.333 -4.5 -36 -7.5
s-22.5 -6.5 -32.5 -10.5v108c19.333 9.33301 42.5 16.5 69.5 21.5s51.833 7.5 74.5 7.5h63c28 0 53.333 -3 76 -9s42 -15.5 58 -28.5s28.333 -30 37 -51s13 -46.167 13 -75.5v-249h-261z" />
    <glyph glyph-name="khaiso" unicode="&#x62e;" horiz-adv-x="601" arabic-form="isolated" 
d="M280 0c-30 0 -54.834 -4.83398 -74.501 -14.501s-29.5 -21.5 -29.5 -35.5s8.5 -25.167 25.5 -33.5s38.5 -12.5 64.5 -12.5h92v-121h-95c-30.667 0 -58.5 3.83301 -83.5 11.5s-46.333 18.834 -64 33.501s-31.334 32.334 -41.001 53.001s-14.5 43.667 -14.5 69
c0 48 19 86.833 57 116.5s91 44.5 159 44.5h146v127c0 12.667 -2.16699 23.167 -6.5 31.5s-10 14.666 -17 18.999s-15 7.33301 -24 9s-17.833 2.5 -26.5 2.5h-63c-9.33301 0 -19.666 -0.5 -30.999 -1.5s-23.166 -2.5 -35.499 -4.5s-24.333 -4.5 -36 -7.5
s-22.5 -6.5 -32.5 -10.5v108c19.333 9.33301 42.5 16.5 69.5 21.5s51.833 7.5 74.5 7.5h63c28 0 53.333 -3 76 -9s42 -15.5 58 -28.5s28.333 -30 37 -51s13 -46.167 13 -75.5v-249h-261zM316.999 487.999c-20 0 -37 7 -51 21s-21 30.667 -21 50c0 20.667 7 38 21 52
s31 21 51 21c19.333 0 36.166 -7 50.499 -21s21.5 -31.333 21.5 -52c0 -19.333 -7.16699 -36 -21.5 -50s-31.166 -21 -50.499 -21z" />
    <glyph glyph-name="daliso" unicode="&#x62f;" horiz-adv-x="487" arabic-form="isolated" 
d="M40 111l267.998 0.000976562v127c0 12.667 -2.16699 23.167 -6.5 31.5s-10 14.666 -17 18.999s-15 7.33301 -24 9s-17.833 2.5 -26.5 2.5h-25c-9.33301 0 -19.666 -0.5 -30.999 -1.5s-23.166 -2.5 -35.499 -4.5s-24.333 -4.5 -36 -7.5s-22.5 -6.5 -32.5 -10.5v108
c19.333 9.33301 42.5 16.5 69.5 21.5s51.833 7.5 74.5 7.5h25c28 0 53.333 -3 76 -9s42 -15.5 58 -28.5s28.333 -30 37 -51s13 -46.167 13 -75.5v-249h-387v111z" />
    <glyph glyph-name="zaliso" unicode="&#x630;" horiz-adv-x="487" arabic-form="isolated" 
d="M40 111l267.998 0.000976562v127c0 12.667 -2.16699 23.167 -6.5 31.5s-10 14.666 -17 18.999s-15 7.33301 -24 9s-17.833 2.5 -26.5 2.5h-25c-9.33301 0 -19.666 -0.5 -30.999 -1.5s-23.166 -2.5 -35.499 -4.5s-24.333 -4.5 -36 -7.5s-22.5 -6.5 -32.5 -10.5v108
c19.333 9.33301 42.5 16.5 69.5 21.5s51.833 7.5 74.5 7.5h25c28 0 53.333 -3 76 -9s42 -15.5 58 -28.5s28.333 -30 37 -51s13 -46.167 13 -75.5v-249h-387v111zM238.998 488.001c-20 0 -37 7 -51 21s-21 30.667 -21 50c0 20.667 7 38 21 52s31 21 51 21
c19.333 0 36.166 -7 50.499 -21s21.5 -31.333 21.5 -52c0 -19.333 -7.16699 -36 -21.5 -50s-31.166 -21 -50.499 -21z" />
    <glyph glyph-name="raiso" unicode="&#x631;" horiz-adv-x="338" arabic-form="isolated" 
d="M138 413h120.002v-481c0 -51.333 -15 -89 -45 -113s-68.667 -36 -116 -36c-15.333 0 -30 1.5 -44 4.5s-26.667 6.5 -38 10.5v101c11.333 -4 22.666 -7.33301 33.999 -10s21.666 -4 30.999 -4c18 0 32.167 4.5 42.5 13.5s15.5 26.167 15.5 51.5v463z" />
    <glyph glyph-name="zaiso" unicode="&#x632;" horiz-adv-x="338" arabic-form="isolated" 
d="M138 413h120.002v-481c0 -51.333 -15 -89 -45 -113s-68.667 -36 -116 -36c-15.333 0 -30 1.5 -44 4.5s-26.667 6.5 -38 10.5v101c11.333 -4 22.666 -7.33301 33.999 -10s21.666 -4 30.999 -4c18 0 32.167 4.5 42.5 13.5s15.5 26.167 15.5 51.5v463zM192.002 488
c-20 0 -37 7 -51 21s-21 30.667 -21 50c0 20.667 7 38 21 52s31 21 51 21c19.333 0 36.166 -7 50.499 -21s21.5 -31.333 21.5 -52c0 -19.333 -7.16699 -36 -21.5 -50s-31.166 -21 -50.499 -21z" />
    <glyph glyph-name="seeniso" unicode="&#x633;" horiz-adv-x="1245" arabic-form="isolated" 
d="M637 -147c-17.333 -4 -37.8311 -7.99902 -61.498 -11.999s-47.834 -7.5 -72.501 -10.5s-48.5 -5.5 -71.5 -7.5s-42.5 -3 -58.5 -3c-35.333 0 -70.333 3.33301 -105 10s-66 18.167 -94 34.5s-50.667 38.666 -68 66.999s-26 64.5 -26 108.5v145h122v-140
c0 -22 5.33301 -40 16 -54s24.167 -24.833 40.5 -32.5s34.666 -13 54.999 -16s40.166 -4.5 59.499 -4.5h32.5c13 0 26.167 0.333008 39.5 1s26.5 1.16699 39.5 1.5s23.833 1.16602 32.5 2.49902v470h120v-294c21.333 -8.66699 46.333 -13 75 -13c45.333 0 68 23.667 68 71
v236h121v-244c0 -10.667 -1 -19.667 -3 -27s-4 -13.666 -6 -18.999c10 -5.33301 22.5 -9.5 37.5 -12.5s30.5 -4.5 46.5 -4.5c45.333 0 68 23.667 68 71v236h121v-241c0 -32.667 -4 -60 -12 -82s-19.5 -39.667 -34.5 -53s-33.167 -22.833 -54.5 -28.5s-45.333 -8.5 -72 -8.5
c-32.667 0 -61 3.5 -85 10.5s-46 15.167 -66 24.5c-13.333 -11.333 -30.666 -20 -51.999 -26s-45 -9 -71 -9c-27.333 0 -54.333 2 -81 6v-153z" />
    <glyph glyph-name="sheeniso" unicode="&#x634;" horiz-adv-x="1245" arabic-form="isolated" 
d="M637 -147c-17.333 -4 -37.8311 -7.99902 -61.498 -11.999s-47.834 -7.5 -72.501 -10.5s-48.5 -5.5 -71.5 -7.5s-42.5 -3 -58.5 -3c-35.333 0 -70.333 3.33301 -105 10s-66 18.167 -94 34.5s-50.667 38.666 -68 66.999s-26 64.5 -26 108.5v145h122v-140
c0 -22 5.33301 -40 16 -54s24.167 -24.833 40.5 -32.5s34.666 -13 54.999 -16s40.166 -4.5 59.499 -4.5h32.5c13 0 26.167 0.333008 39.5 1s26.5 1.16699 39.5 1.5s23.833 1.16602 32.5 2.49902v470h120v-294c21.333 -8.66699 46.333 -13 75 -13c45.333 0 68 23.667 68 71
v236h121v-244c0 -10.667 -1 -19.667 -3 -27s-4 -13.666 -6 -18.999c10 -5.33301 22.5 -9.5 37.5 -12.5s30.5 -4.5 46.5 -4.5c45.333 0 68 23.667 68 71v236h121v-241c0 -32.667 -4 -60 -12 -82s-19.5 -39.667 -34.5 -53s-33.167 -22.833 -54.5 -28.5s-45.333 -8.5 -72 -8.5
c-32.667 0 -61 3.5 -85 10.5s-46 15.167 -66 24.5c-13.333 -11.333 -30.666 -20 -51.999 -26s-45 -9 -71 -9c-27.333 0 -54.333 2 -81 6v-153zM743.002 465.001c-20 0 -37 7 -51 21s-21 30.667 -21 50c0 20.667 7 38 21 52s31 21 51 21c19.333 0 36.166 -7 50.499 -21
s21.5 -31.333 21.5 -52c0 -19.333 -7.16699 -36 -21.5 -50s-31.166 -21 -50.499 -21zM923.002 465.001c-20 0 -37 7 -51 21s-21 30.667 -21 50c0 20.667 7 38 21 52s31 21 51 21c19.333 0 36.166 -7 50.499 -21s21.5 -31.333 21.5 -52c0 -19.333 -7.16699 -36 -21.5 -50
s-31.166 -21 -50.499 -21zM837.002 628.001c-20 0 -37 7 -51 21s-21 30.667 -21 50c0 20.667 7 38 21 52s31 21 51 21c19.333 0 36.166 -7 50.499 -21s21.5 -31.333 21.5 -52c0 -19.333 -7.16699 -36 -21.5 -50s-31.166 -21 -50.499 -21z" />
    <glyph glyph-name="sadiso" unicode="&#x635;" horiz-adv-x="1136" arabic-form="isolated" 
d="M1056 0l-438.997 0.000976562v-147c-17.333 -4 -37.833 -8 -61.5 -12s-47.834 -7.5 -72.501 -10.5s-48.5 -5.5 -71.5 -7.5s-42.5 -3 -58.5 -3c-35.333 0 -70.333 3.33301 -105 10s-66 18.167 -94 34.5s-50.667 38.666 -68 66.999s-26 64.5 -26 108.5v145h122v-140
c0 -22 5.33301 -40 16 -54s24.167 -24.833 40.5 -32.5s34.666 -13 54.999 -16s40.166 -4.5 59.499 -4.5h32.5c13 0 26.167 0.333008 39.5 1s26.5 1.16699 39.5 1.5s23.833 1.16602 32.5 2.49902v443h116v-60c14 13.333 31.333 25.333 52 36s42.667 19.834 66 27.501
s47 13.5 71 17.5s46.667 6 68 6c32.667 0 60.667 -3.5 84 -10.5s42.5 -18.667 57.5 -35s26.167 -37.833 33.5 -64.5s11 -59.667 11 -99v-204zM940.003 111.001l0.000976562 82.001c0 15.333 -1 29.5 -3 42.5s-5.83301 24.333 -11.5 34s-13.334 17.167 -23.001 22.5
s-22.167 8 -37.5 8c-16.667 0 -36.334 -2.33301 -59.001 -7s-45.667 -13.167 -69 -25.5s-45.666 -29.333 -66.999 -51s-39 -49.834 -53 -84.501v-21h323z" />
    <glyph glyph-name="dadiso" unicode="&#x636;" horiz-adv-x="1136" arabic-form="isolated" 
d="M1056 0l-438.997 0.000976562v-147c-17.333 -4 -37.833 -8 -61.5 -12s-47.834 -7.5 -72.501 -10.5s-48.5 -5.5 -71.5 -7.5s-42.5 -3 -58.5 -3c-35.333 0 -70.333 3.33301 -105 10s-66 18.167 -94 34.5s-50.667 38.666 -68 66.999s-26 64.5 -26 108.5v145h122v-140
c0 -22 5.33301 -40 16 -54s24.167 -24.833 40.5 -32.5s34.666 -13 54.999 -16s40.166 -4.5 59.499 -4.5h32.5c13 0 26.167 0.333008 39.5 1s26.5 1.16699 39.5 1.5s23.833 1.16602 32.5 2.49902v443h116v-60c14 13.333 31.333 25.333 52 36s42.667 19.834 66 27.501
s47 13.5 71 17.5s46.667 6 68 6c32.667 0 60.667 -3.5 84 -10.5s42.5 -18.667 57.5 -35s26.167 -37.833 33.5 -64.5s11 -59.667 11 -99v-204zM940.003 111.001l0.000976562 82.001c0 15.333 -1 29.5 -3 42.5s-5.83301 24.333 -11.5 34s-13.334 17.167 -23.001 22.5
s-22.167 8 -37.5 8c-16.667 0 -36.334 -2.33301 -59.001 -7s-45.667 -13.167 -69 -25.5s-45.666 -29.333 -66.999 -51s-39 -49.834 -53 -84.501v-21h323zM782.004 488.002c-20 0 -37 7 -51 21s-21 30.667 -21 50c0 20.667 7 38 21 52s31 21 51 21
c19.333 0 36.166 -7 50.499 -21s21.5 -31.333 21.5 -52c0 -19.333 -7.16699 -36 -21.5 -50s-31.166 -21 -50.499 -21z" />
    <glyph glyph-name="tahiso" unicode="&#x637;" horiz-adv-x="785" arabic-form="isolated" 
d="M146 111v568.999h116v-354c14 13.333 31.333 25.333 52 36s42.667 19.834 66 27.501s47 13.5 71 17.5s46.667 6 68 6c32.667 0 60.667 -3.5 84 -10.5s42.5 -18.667 57.5 -35s26.167 -37.833 33.5 -64.5s11 -59.667 11 -99v-204h-655v111h96zM589 110.999l0.000976562 82
c0 15.333 -1 29.5 -3 42.5s-5.83301 24.333 -11.5 34s-13.334 17.167 -23.001 22.5s-22.167 8 -37.5 8c-17.333 0 -37.5 -2.5 -60.5 -7.5s-46.5 -14 -70.5 -27s-46.833 -31.167 -68.5 -54.5s-39.167 -53.333 -52.5 -90v-10h327z" />
    <glyph glyph-name="zadiso" unicode="&#x638;" horiz-adv-x="785" arabic-form="isolated" 
d="M146 111v568.999h116v-354c14 13.333 31.333 25.333 52 36s42.667 19.834 66 27.501s47 13.5 71 17.5s46.667 6 68 6c32.667 0 60.667 -3.5 84 -10.5s42.5 -18.667 57.5 -35s26.167 -37.833 33.5 -64.5s11 -59.667 11 -99v-204h-655v111h96zM589 110.999l0.000976562 82
c0 15.333 -1 29.5 -3 42.5s-5.83301 24.333 -11.5 34s-13.334 17.167 -23.001 22.5s-22.167 8 -37.5 8c-17.333 0 -37.5 -2.5 -60.5 -7.5s-46.5 -14 -70.5 -27s-46.833 -31.167 -68.5 -54.5s-39.167 -53.333 -52.5 -90v-10h327zM455.001 487.999c-20 0 -37 7 -51 21
s-21 30.667 -21 50c0 20.667 7 38 21 52s31 21 51 21c19.333 0 36.166 -7 50.499 -21s21.5 -31.333 21.5 -52c0 -19.333 -7.16699 -36 -21.5 -50s-31.166 -21 -50.499 -21z" />
    <glyph glyph-name="ayniso" unicode="&#x639;" horiz-adv-x="632" arabic-form="isolated" 
d="M280 0c-30 0 -54.8291 -4.83594 -74.4961 -14.5029s-29.5 -21.5 -29.5 -35.5s8.5 -25.167 25.5 -33.5s38.5 -12.5 64.5 -12.5h92v-121h-95c-30.667 0 -58.5 3.83301 -83.5 11.5s-46.333 18.834 -64 33.501s-31.334 32.334 -41.001 53.001s-14.5 43.667 -14.5 69
c0 44 16.667 80.667 50 110s79.666 46.333 138.999 51c-5.33301 16.667 -9.33301 33 -12 49s-4 29.667 -4 41c0 34.667 5.33301 65.667 16 93s25.5 50.166 44.5 68.499s41.167 32.333 66.5 42s52.666 14.5 81.999 14.5c25.333 0 48 -2.66699 68 -8
s39.667 -13.666 59 -24.999v-114c-18.667 15.333 -37.167 26 -55.5 32s-37.833 9 -58.5 9c-28.667 0 -53.334 -10.167 -74.001 -30.5s-31 -48.5 -31 -84.5c0 -12 2.83301 -26.167 8.5 -42.5s14.167 -31.166 25.5 -44.499h198v-111h-302z" />
    <glyph glyph-name="ghaiso" unicode="&#x63a;" horiz-adv-x="632" arabic-form="isolated" 
d="M280 0c-30 0 -54.8291 -4.83594 -74.4961 -14.5029s-29.5 -21.5 -29.5 -35.5s8.5 -25.167 25.5 -33.5s38.5 -12.5 64.5 -12.5h92v-121h-95c-30.667 0 -58.5 3.83301 -83.5 11.5s-46.333 18.834 -64 33.501s-31.334 32.334 -41.001 53.001s-14.5 43.667 -14.5 69
c0 44 16.667 80.667 50 110s79.666 46.333 138.999 51c-5.33301 16.667 -9.33301 33 -12 49s-4 29.667 -4 41c0 34.667 5.33301 65.667 16 93s25.5 50.166 44.5 68.499s41.167 32.333 66.5 42s52.666 14.5 81.999 14.5c25.333 0 48 -2.66699 68 -8
s39.667 -13.666 59 -24.999v-114c-18.667 15.333 -37.167 26 -55.5 32s-37.833 9 -58.5 9c-28.667 0 -53.334 -10.167 -74.001 -30.5s-31 -48.5 -31 -84.5c0 -12 2.83301 -26.167 8.5 -42.5s14.167 -31.166 25.5 -44.499h198v-111h-302zM447.004 487.997c-20 0 -37 7 -51 21
s-21 30.667 -21 50c0 20.667 7 38 21 52s31 21 51 21c19.333 0 36.166 -7 50.499 -21s21.5 -31.333 21.5 -52c0 -19.333 -7.16699 -36 -21.5 -50s-31.166 -21 -50.499 -21z" />
    <glyph glyph-name="faiso" unicode="&#x641;" horiz-adv-x="979" arabic-form="isolated" 
d="M262 111h230c-6.66699 13.333 -11.834 28.333 -15.501 45s-5.5 34.667 -5.5 54c0 28.667 5.16699 55.334 15.5 80.001s25.666 46.167 45.999 64.5s45.333 32.833 75 43.5s63.834 16 102.501 16c10.667 0 24.334 -1 41.001 -3s34 -4.5 52 -7.5s35.5 -6.83301 52.5 -11.5
s31.5 -9.33398 43.5 -14.001v-378h-196h-9h-433c-60.667 0 -107.667 12.667 -141 38s-50 66.333 -50 123v184h120v-184c0 -20.667 7 -34.167 21 -40.5s31 -9.5 51 -9.5zM779 298c-6 1.33301 -14.832 3.16699 -26.499 5.5s-25.834 3.5 -42.501 3.5c-42 0 -73 -9 -93 -27
s-30 -41.333 -30 -70c0 -30.667 9.83301 -54.5 29.5 -71.5s46.5 -26.167 80.5 -27.5h82v187zM703.001 488.001c-20 0 -37 7 -51 21s-21 30.667 -21 50c0 20.667 7 38 21 52s31 21 51 21c19.333 0 36.166 -7 50.499 -21s21.5 -31.333 21.5 -52
c0 -19.333 -7.16699 -36 -21.5 -50s-31.166 -21 -50.499 -21z" />
    <glyph glyph-name="kaafiso" unicode="&#x642;" horiz-adv-x="850" arabic-form="isolated" 
d="M430 -198l-66.999 0.00195312c-35.333 0 -70.333 3.33301 -105 10s-66 18.167 -94 34.5s-50.667 38.666 -68 66.999s-26 64.5 -26 108.5v194h122v-189c0 -22 5.33301 -40 16 -54s24.167 -24.833 40.5 -32.5s34.666 -13 54.999 -16s40.166 -4.5 59.499 -4.5h67h44
c20.667 0 42.667 0.333008 66 1s45.333 1.16699 66 1.5s35.334 1.16602 44.001 2.49902v75h-76c-30 0 -59 4.16699 -87 12.5s-52.833 21 -74.5 38s-38.834 38.667 -51.501 65s-19 57.833 -19 94.5c0 28.667 5.16699 55.334 15.5 80.001s25.666 46.167 45.999 64.5
s45.333 32.833 75 43.5s63.834 16 102.501 16c10.667 0 24.334 -1 41.001 -3s34 -4.5 52 -7.5s35.5 -6.83301 52.5 -11.5s31.5 -9.33398 43.5 -14.001v-543c-17.333 -4 -41.833 -8 -73.5 -12s-64.667 -7.5 -99 -10.5s-66.833 -5.5 -97.5 -7.5s-54 -3 -70 -3z
M650.001 298.002c-6 1.33301 -14.832 3.16602 -26.499 5.49902s-25.834 3.5 -42.501 3.5c-42 0 -73 -9 -93 -27s-30 -41.333 -30 -70c0 -31.333 10.333 -55.666 31 -72.999s49 -26 85 -26h76v187zM486.002 488.002c-20 0 -37 7 -51 21s-21 30.667 -21 50
c0 20.667 7 38 21 52s31 21 51 21c19.333 0 36.166 -7 50.499 -21s21.5 -31.333 21.5 -52c0 -19.333 -7.16699 -36 -21.5 -50s-31.166 -21 -50.499 -21zM666.002 488.002c-20 0 -37 7 -51 21s-21 30.667 -21 50c0 20.667 7 38 21 52s31 21 51 21
c19.333 0 36.166 -7 50.499 -21s21.5 -31.333 21.5 -52c0 -19.333 -7.16699 -36 -21.5 -50s-31.166 -21 -50.499 -21z" />
    <glyph glyph-name="kafiso" unicode="&#x643;" horiz-adv-x="718" arabic-form="isolated" 
d="M638 17c-17.333 -4 -38.998 -7.66504 -64.998 -10.998s-52.667 -6.33301 -80 -9s-53.5 -4.66699 -78.5 -6s-45.5 -2 -61.5 -2c-35.333 0 -70.333 3.33301 -105 10s-66 18.167 -94 34.5s-50.667 38.666 -68 66.999s-26 64.5 -26 108.5v145h122v-140
c0 -22 5.33301 -40 16 -54s24.167 -24.833 40.5 -32.5s34.666 -13 54.999 -16s40.166 -4.5 59.499 -4.5h35.5c15 0 30.667 0.333008 47 1s32 1.16699 47 1.5s26.833 1.16602 35.5 2.49902v568h120v-663zM234.002 439.002h40c-2 4.66699 -3.66699 10.5 -5 17.5
s-2 12.5 -2 16.5c0 16.667 2.66699 31 8 43s12.5 21.667 21.5 29s19.5 12.833 31.5 16.5s24.333 5.5 37 5.5c10.667 0 21 -1.66699 31 -5s21 -8.66602 33 -15.999v-67c-6 4 -14.167 8.16699 -24.5 12.5s-20.5 6.83301 -30.5 7.5s-18.5 -0.833008 -25.5 -4.5
s-10.5 -11.5 -10.5 -23.5c0 -3.33301 0.833008 -8.33301 2.5 -15s4.16699 -12.334 7.5 -17.001h81v-63h-195v63z" />
    <glyph glyph-name="lamiso" unicode="&#x644;" horiz-adv-x="697" arabic-form="isolated" 
d="M617 -147c-17.333 -4 -37.8301 -7.99805 -61.4971 -11.998s-47.834 -7.5 -72.501 -10.5s-48.5 -5.5 -71.5 -7.5s-42.5 -3 -58.5 -3c-35.333 0 -70.333 3.33301 -105 10s-66 18.167 -94 34.5s-50.667 38.666 -68 66.999s-26 64.5 -26 108.5v145h122v-140
c0 -22 5.33301 -40 16 -54s24.167 -24.833 40.5 -32.5s34.666 -13 54.999 -16s40.166 -4.5 59.499 -4.5h32.5c13 0 26.167 0.333008 39.5 1s26.5 1.16699 39.5 1.5s23.833 1.16602 32.5 2.49902v737h120v-827z" />
    <glyph glyph-name="meemiso" unicode="&#x645;" horiz-adv-x="680" arabic-form="isolated" 
d="M257 111v143.003c0 47.333 14.667 85.666 44 114.999s69.333 44 120 44h25c62 0 108.167 -14 138.5 -42s45.5 -71.667 45.5 -131v-240h-380c-15.333 0 -27.5 -3.83301 -36.5 -11.5s-13.5 -18.834 -13.5 -33.501l-1 -172h-119v169c0 47.333 14.667 85.666 44 114.999
s69.333 44 120 44h13zM427 294.003c-15.333 0 -27.5 -3.66699 -36.5 -11s-13.5 -18.333 -13.5 -33l-1 -139h134v118c0 26.667 -6.16699 44.167 -18.5 52.5s-28.833 12.5 -49.5 12.5h-15z" />
    <glyph glyph-name="nouniso" unicode="&#x646;" horiz-adv-x="697" arabic-form="isolated" 
d="M617 -90c-17.333 -4 -37.8301 -7.99805 -61.4971 -11.998s-47.834 -7.5 -72.501 -10.5s-48.5 -5.5 -71.5 -7.5s-42.5 -3 -58.5 -3c-35.333 0 -70.333 3.33301 -105 10s-66 18.167 -94 34.5s-50.667 38.666 -68 66.999s-26 64.5 -26 108.5v248h122v-243
c0 -22 5.33301 -40 16 -54s24.167 -24.833 40.5 -32.5s34.666 -13 54.999 -16s40.166 -4.5 59.499 -4.5h32.5c13 0 26.167 0.333008 39.5 1s26.5 1.16699 39.5 1.5s23.833 1.16602 32.5 2.49902v413h120v-503zM336.003 488.002c-20 0 -37 7 -51 21s-21 30.667 -21 50
c0 20.667 7 38 21 52s31 21 51 21c19.333 0 36.166 -7 50.499 -21s21.5 -31.333 21.5 -52c0 -19.333 -7.16699 -36 -21.5 -50s-31.166 -21 -50.499 -21z" />
    <glyph glyph-name="haini" unicode="&#x647;" horiz-adv-x="555" arabic-form="initial" 
d="M-9 111l59.9971 0.000976562c-0.666992 3.33301 -1.16699 6.83301 -1.5 10.5s-0.5 7.5 -0.5 11.5c0 20 3.83301 38.333 11.5 55s18 30.667 31 42s28.333 20.166 46 26.499s36.834 9.5 57.501 9.5s40 -3.16699 58 -9.5s33.5 -15.166 46.5 -26.499s23.333 -25.333 31 -42
s11.5 -35 11.5 -55v-22h44v127c0 12.667 -2.16699 23.167 -6.5 31.5s-10 14.666 -17 18.999s-15 7.33301 -24 9s-17.833 2.5 -26.5 2.5h-148c-9.33301 0 -19.666 -0.5 -30.999 -1.5s-23.166 -2.5 -35.499 -4.5s-24.333 -4.5 -36 -7.5s-22.5 -6.5 -32.5 -10.5v108
c19.333 9.33301 42.5 16.5 69.5 21.5s51.833 7.5 74.5 7.5h148c28 0 53.333 -3 76 -9s42 -15.5 58 -28.5s28.333 -30 37 -51s13 -46.167 13 -75.5v-249h-514v111zM140.997 133.001c0 -8.66699 0.999023 -16 2.99902 -22h106v22c0 33.333 -18.333 50 -55 50
c-17.333 0 -30.666 -4.33301 -39.999 -13s-14 -21 -14 -37z" />
    <glyph glyph-name="wawiso" unicode="&#x648;" horiz-adv-x="558" arabic-form="isolated" 
d="M358 298c-6 1.33301 -14.832 3.16602 -26.499 5.49902s-25.834 3.5 -42.501 3.5c-42 0 -73 -9 -93 -27s-30 -41.333 -30 -70c0 -31.333 10.333 -55.666 31 -72.999s49 -26 85 -26h76v187zM357.001 0h-74.999c-30 0 -59 4.16699 -87 12.5s-52.833 21 -74.5 38
s-38.834 38.667 -51.501 65s-19 57.833 -19 94.5c0 28.667 5.16699 55.334 15.5 80.001s25.666 46.167 45.999 64.5s45.333 32.833 75 43.5s63.834 16 102.501 16c10.667 0 24.334 -1 41.001 -3s34 -4.5 52 -7.5s35.5 -6.83301 52.5 -11.5s31.5 -9.33398 43.5 -14.001v-401
c0 -38 -7.16699 -69.667 -21.5 -95s-32.5 -45.5 -54.5 -60.5s-46.333 -25.667 -73 -32s-52.667 -9.5 -78 -9.5c-56 0 -107 11 -153 33v112c27.333 -15.333 52.666 -26.5 75.999 -33.5s49 -10.5 77 -10.5c29.333 0 54.333 8 75 24s31 41 31 75v20z" />
    <glyph glyph-name="alefma2souraiso" unicode="&#x649;" horiz-adv-x="730" arabic-form="isolated" 
d="M293 -124c-33.333 0 -64.668 3.16016 -94.001 9.49316s-55 17.5 -77 33.5s-39.5 37.5 -52.5 64.5s-19.5 61.167 -19.5 102.5v190h120v-185c0 -21.333 3 -38.666 9 -51.999s14.333 -23.666 25 -30.999s23.667 -12.5 39 -15.5s32 -4.5 50 -4.5h154
c14.667 0 29 1.33301 43 4s26.5 6.5 37.5 11.5s19.833 11 26.5 18s10 14.833 10 23.5c0 11.333 -7 23.333 -21 36s-32.667 22.667 -56 30c-41.333 14 -73.333 31.5 -96 52.5s-34 51.167 -34 90.5c0 25.333 5 48 15 68s23 36.833 39 50.5s34.333 24.167 55 31.5s42 11 64 11
s43.833 -3.33301 65.5 -10s43.834 -18 66.501 -34v-121c-28 23.333 -52.667 38.5 -74 45.5s-40.666 10.5 -57.999 10.5c-5.33301 0 -11.333 -0.666992 -18 -2s-12.667 -3.83301 -18 -7.5s-9.83301 -8.66699 -13.5 -15s-5.5 -14.166 -5.5 -23.499
c0 -17.333 6.5 -30.166 19.5 -38.499s30.167 -16.5 51.5 -24.5c19.333 -7.33301 37.166 -15.5 53.499 -24.5s30.5 -19.167 42.5 -30.5s21.333 -24.5 28 -39.5s10 -32.167 10 -51.5c0 -33.333 -7 -61.166 -21 -83.499s-32.167 -40.166 -54.5 -53.499
s-47.333 -22.666 -75 -27.999s-55.167 -8 -82.5 -8h-154z" />
    <glyph glyph-name="yaiso" unicode="&#x64a;" horiz-adv-x="730" arabic-form="isolated" 
d="M293 -124c-33.333 0 -64.668 3.16016 -94.001 9.49316s-55 17.5 -77 33.5s-39.5 37.5 -52.5 64.5s-19.5 61.167 -19.5 102.5v190h120v-185c0 -21.333 3 -38.666 9 -51.999s14.333 -23.666 25 -30.999s23.667 -12.5 39 -15.5s32 -4.5 50 -4.5h154
c14.667 0 29 1.33301 43 4s26.5 6.5 37.5 11.5s19.833 11 26.5 18s10 14.833 10 23.5c0 11.333 -7 23.333 -21 36s-32.667 22.667 -56 30c-41.333 14 -73.333 31.5 -96 52.5s-34 51.167 -34 90.5c0 25.333 5 48 15 68s23 36.833 39 50.5s34.333 24.167 55 31.5s42 11 64 11
s43.833 -3.33301 65.5 -10s43.834 -18 66.501 -34v-121c-28 23.333 -52.667 38.5 -74 45.5s-40.666 10.5 -57.999 10.5c-5.33301 0 -11.333 -0.666992 -18 -2s-12.667 -3.83301 -18 -7.5s-9.83301 -8.66699 -13.5 -15s-5.5 -14.166 -5.5 -23.499
c0 -17.333 6.5 -30.166 19.5 -38.499s30.167 -16.5 51.5 -24.5c19.333 -7.33301 37.166 -15.5 53.499 -24.5s30.5 -19.167 42.5 -30.5s21.333 -24.5 28 -39.5s10 -32.167 10 -51.5c0 -33.333 -7 -61.166 -21 -83.499s-32.167 -40.166 -54.5 -53.499
s-47.333 -22.666 -75 -27.999s-55.167 -8 -82.5 -8h-154zM274.998 -309.007c-20 0 -37 7 -51 21s-21 30.667 -21 50c0 20.667 7 38 21 52s31 21 51 21c19.333 0 36.166 -7 50.499 -21s21.5 -31.333 21.5 -52c0 -19.333 -7.16699 -36 -21.5 -50s-31.166 -21 -50.499 -21z
M454.998 -309.007c-20 0 -37 7 -51 21s-21 30.667 -21 50c0 20.667 7 38 21 52s31 21 51 21c19.333 0 36.166 -7 50.499 -21s21.5 -31.333 21.5 -52c0 -19.333 -7.16699 -36 -21.5 -50s-31.166 -21 -50.499 -21z" />
    <glyph glyph-name="alefwaslaiso" unicode="&#x671;" horiz-adv-x="280" arabic-form="isolated" 
d="M200 0h-120v680h120v-680z" />
    <glyph glyph-name="piso.001" unicode="&#x67e;" horiz-adv-x="842" arabic-form="isolated" 
d="M241 0c-60.667 0 -107.667 12.667 -141 38s-50 66.333 -50 123v252h120v-252c0 -20.667 7 -34.167 21 -40.5s31 -9.5 51 -9.5h328c20 0 37 3.16699 51 9.5s21 19.833 21 40.5v252h120v-252c0 -56.667 -16.667 -97.667 -50 -123s-80.333 -38 -141 -38h-330z
M338.826 -65.1768c-16.4814 0 -30.4912 -5.76855 -42.0283 -17.3047c-11.5381 -11.5361 -17.3066 -25.2705 -17.3066 -41.2021c0 -17.0303 5.76855 -31.3135 17.3066 -42.8496c11.5371 -11.5361 25.5469 -17.3047 42.0283 -17.3047
c15.9326 0 29.8047 5.76855 41.6162 17.3047s17.7178 25.8193 17.7178 42.8496c0 15.9316 -5.90625 29.666 -17.7178 41.2021s-25.6836 17.3047 -41.6162 17.3047zM487.164 -65.1768c-16.4814 0 -30.4912 -5.76855 -42.0293 -17.3047
c-11.5371 -11.5361 -17.3057 -25.2705 -17.3057 -41.2021c0 -17.0303 5.76855 -31.3135 17.3057 -42.8496c11.5381 -11.5361 25.5479 -17.3047 42.0293 -17.3047c15.9326 0 29.8047 5.76855 41.6172 17.3047c11.8115 11.5361 17.7178 25.8193 17.7178 42.8496
c0 15.9316 -5.90625 29.666 -17.7178 41.2021c-11.8125 11.5361 -25.6846 17.3047 -41.6172 17.3047zM416.292 -199.494c-16.4824 0 -30.4922 -5.76855 -42.0293 -17.3047s-17.3057 -25.2705 -17.3057 -41.2021c0 -17.0303 5.76855 -31.3135 17.3057 -42.8496
s25.5469 -17.3047 42.0293 -17.3047c15.9326 0 29.8047 5.76855 41.6162 17.3047c11.8125 11.5361 17.7188 25.8193 17.7188 42.8496c0 15.9316 -5.90625 29.666 -17.7188 41.2021c-11.8115 11.5361 -25.6836 17.3047 -41.6162 17.3047z" />
    <glyph glyph-name="giso" unicode="&#x686;" horiz-adv-x="601" arabic-form="isolated" 
d="M280 0c-30 0 -54.834 -4.83398 -74.501 -14.501s-29.5 -21.5 -29.5 -35.5s8.5 -25.167 25.5 -33.5s38.5 -12.5 64.5 -12.5h92v-121h-95c-30.667 0 -58.5 3.83301 -83.5 11.5s-46.333 18.834 -64 33.501s-31.334 32.334 -41.001 53.001s-14.5 43.667 -14.5 69
c0 48 19 86.833 57 116.5s91 44.5 159 44.5h146v127c0 12.667 -2.16699 23.167 -6.5 31.5s-10 14.666 -17 18.999s-15 7.33301 -24 9s-17.833 2.5 -26.5 2.5h-63c-9.33301 0 -19.666 -0.5 -30.999 -1.5s-23.166 -2.5 -35.499 -4.5s-24.333 -4.5 -36 -7.5
s-22.5 -6.5 -32.5 -10.5v108c19.333 9.33301 42.5 16.5 69.5 21.5s51.833 7.5 74.5 7.5h63c28 0 53.333 -3 76 -9s42 -15.5 58 -28.5s28.333 -30 37 -51s13 -46.167 13 -75.5v-249h-261zM428.055 -46.7393c-14.5059 0 -26.8359 -5.08398 -36.9893 -15.252
c-10.1543 -10.1689 -15.2314 -22.2744 -15.2314 -36.3164c0 -15.0107 5.07715 -27.6006 15.2314 -37.7695c10.1533 -10.1689 22.4834 -15.2529 36.9893 -15.2529c14.0225 0 26.2314 5.08398 36.627 15.2529s15.5928 22.7588 15.5928 37.7695
c0 14.042 -5.19727 26.1475 -15.5928 36.3164c-10.3955 10.168 -22.6045 15.252 -36.627 15.252zM558.605 -46.7393c-14.5059 0 -26.8359 -5.08398 -36.9893 -15.252c-10.1543 -10.1689 -15.2314 -22.2744 -15.2314 -36.3164c0 -15.0107 5.07715 -27.6006 15.2314 -37.7695
c10.1533 -10.1689 22.4834 -15.2529 36.9893 -15.2529c14.0225 0 26.2314 5.08398 36.627 15.2529s15.5938 22.7588 15.5938 37.7695c0 14.042 -5.19824 26.1475 -15.5938 36.3164c-10.3955 10.168 -22.6045 15.252 -36.627 15.252zM496.231 -165.129
c-14.5059 0 -26.8359 -5.08398 -36.9902 -15.2529c-10.1533 -10.168 -15.2305 -22.2734 -15.2305 -36.3154c0 -15.0107 5.07715 -27.6006 15.2305 -37.7686c10.1543 -10.1689 22.4844 -15.2529 36.9902 -15.2529c14.0225 0 26.2314 5.08398 36.627 15.2529
c10.3955 10.168 15.5938 22.7578 15.5938 37.7686c0 14.042 -5.19824 26.1475 -15.5938 36.3154c-10.3955 10.1689 -22.6045 15.2529 -36.627 15.2529z" />
    <glyph glyph-name="jehiso" unicode="&#x698;" horiz-adv-x="338" arabic-form="isolated" 
d="M138 413h120.002v-481c0 -51.333 -15 -89 -45 -113s-68.667 -36 -116 -36c-15.333 0 -30 1.5 -44 4.5s-26.667 6.5 -38 10.5v101c11.333 -4 22.666 -7.33301 33.999 -10s21.666 -4 30.999 -4c18 0 32.167 4.5 42.5 13.5s15.5 26.167 15.5 51.5v463zM91.002 465
c-20 0 -37 7 -51 21s-21 30.667 -21 50c0 20.667 7 38 21 52s31 21 51 21c19.333 0 36.166 -7 50.499 -21s21.5 -31.333 21.5 -52c0 -19.333 -7.16699 -36 -21.5 -50s-31.166 -21 -50.499 -21zM271.002 465c-20 0 -37 7 -51 21s-21 30.667 -21 50c0 20.667 7 38 21 52
s31 21 51 21c19.333 0 36.166 -7 50.499 -21s21.5 -31.333 21.5 -52c0 -19.333 -7.16699 -36 -21.5 -50s-31.166 -21 -50.499 -21zM185.002 628c-20 0 -37 7 -51 21s-21 30.667 -21 50c0 20.667 7 38 21 52s31 21 51 21c19.333 0 36.166 -7 50.499 -21
s21.5 -31.333 21.5 -52c0 -19.333 -7.16699 -36 -21.5 -50s-31.166 -21 -50.499 -21z" />
    <glyph glyph-name="vehiso" unicode="&#x6a4;" horiz-adv-x="948" arabic-form="isolated" 
d="M260 111h230c-6.66699 13.333 -11.834 28.333 -15.501 45s-5.5 34.667 -5.5 54c0 28.667 5.16699 55.334 15.5 80.001s25.666 46.167 45.999 64.5s45.333 32.833 75 43.5s63.834 16 102.501 16c10.667 0 24.334 -1 41.001 -3s34 -4.5 52 -7.5s35.5 -6.83301 52.5 -11.5
s31.5 -9.33398 43.5 -14.001v-378h-196h-9h-433c-60.667 0 -107.667 12.667 -141 38s-50 66.333 -50 123v184h120v-184c0 -20.667 7 -34.167 21 -40.5s31 -9.5 51 -9.5zM777 298c-6 1.33301 -14.832 3.16699 -26.499 5.5s-25.834 3.5 -42.501 3.5c-42 0 -73 -9 -93 -27
s-30 -41.333 -30 -70c0 -30.667 9.83301 -54.5 29.5 -71.5s46.5 -26.167 80.5 -27.5h82v187zM612.001 464.001c-20 0 -37 7 -51 21s-21 30.667 -21 50c0 20.667 7 38 21 52s31 21 51 21c19.333 0 36.166 -7 50.499 -21s21.5 -31.333 21.5 -52
c0 -19.333 -7.16699 -36 -21.5 -50s-31.166 -21 -50.499 -21zM792.001 464.001c-20 0 -37 7 -51 21s-21 30.667 -21 50c0 20.667 7 38 21 52s31 21 51 21c19.333 0 36.166 -7 50.499 -21s21.5 -31.333 21.5 -52c0 -19.333 -7.16699 -36 -21.5 -50s-31.166 -21 -50.499 -21z
M706.001 627.001c-20 0 -37 7 -51 21s-21 30.667 -21 50c0 20.667 7 38 21 52s31 21 51 21c19.333 0 36.166 -7 50.499 -21s21.5 -31.333 21.5 -52c0 -19.333 -7.16699 -36 -21.5 -50s-31.166 -21 -50.499 -21z" />
    <glyph glyph-name="kehehiso" unicode="&#x6a9;" horiz-adv-x="691" arabic-form="isolated" 
d="M638 17c-17.333 -4 -38.998 -7.66504 -64.998 -10.998s-52.667 -6.33301 -80 -9s-53.5 -4.66699 -78.5 -6s-45.5 -2 -61.5 -2c-35.333 0 -70.333 3.33301 -105 10s-66 18.167 -94 34.5s-50.667 38.666 -68 66.999s-26 64.5 -26 108.5v145h122v-140
c0 -22 5.33301 -40 16 -54s24.167 -24.833 40.5 -32.5s34.666 -13 54.999 -16s40.166 -4.5 59.499 -4.5h35.5c15 0 30.667 0.333008 47 1s32 1.16699 47 1.5s26.833 1.16602 35.5 2.49902v568h120v-663zM231.002 439.002h40c-2 4.66699 -3.66699 10.5 -5 17.5
s-2 12.5 -2 16.5c0 16.667 2.66699 31 8 43s12.5 21.667 21.5 29s19.5 12.833 31.5 16.5s24.333 5.5 37 5.5c10.667 0 21 -1.66699 31 -5s21 -8.66602 33 -15.999v-67c-6 4 -14.167 8.16699 -24.5 12.5s-20.5 6.83301 -30.5 7.5s-18.5 -0.833008 -25.5 -4.5
s-10.5 -11.5 -10.5 -23.5c0 -3.33301 0.833008 -8.33301 2.5 -15s4.16699 -12.334 7.5 -17.001h81v-63h-195v63z" />
    <glyph glyph-name="gafiso" unicode="&#x6af;" horiz-adv-x="684" arabic-form="isolated" 
d="M638 17c-17.333 -4 -38.998 -7.66504 -64.998 -10.998s-52.667 -6.33301 -80 -9s-53.5 -4.66699 -78.5 -6s-45.5 -2 -61.5 -2c-35.333 0 -70.333 3.33301 -105 10s-66 18.167 -94 34.5s-50.667 38.666 -68 66.999s-26 64.5 -26 108.5v145h122v-140
c0 -22 5.33301 -40 16 -54s24.167 -24.833 40.5 -32.5s34.666 -13 54.999 -16s40.166 -4.5 59.499 -4.5h35.5c15 0 30.667 0.333008 47 1s32 1.16699 47 1.5s26.833 1.16602 35.5 2.49902v568h120v-663zM228.002 439.002h40c-2 4.66699 -3.66699 10.5 -5 17.5
s-2 12.5 -2 16.5c0 16.667 2.66699 31 8 43s12.5 21.667 21.5 29s19.5 12.833 31.5 16.5s24.333 5.5 37 5.5c10.667 0 21 -1.66699 31 -5s21 -8.66602 33 -15.999v-67c-6 4 -14.167 8.16699 -24.5 12.5s-20.5 6.83301 -30.5 7.5s-18.5 -0.833008 -25.5 -4.5
s-10.5 -11.5 -10.5 -23.5c0 -3.33301 0.833008 -8.33301 2.5 -15s4.16699 -12.334 7.5 -17.001h81v-63h-195v63z" />
    <glyph glyph-name="farsiyaiso" unicode="&#x6cc;" horiz-adv-x="730" arabic-form="isolated" 
d="M293 -124c-33.333 0 -64.668 3.16016 -94.001 9.49316s-55 17.5 -77 33.5s-39.5 37.5 -52.5 64.5s-19.5 61.167 -19.5 102.5v190h120v-185c0 -21.333 3 -38.666 9 -51.999s14.333 -23.666 25 -30.999s23.667 -12.5 39 -15.5s32 -4.5 50 -4.5h154
c14.667 0 29 1.33301 43 4s26.5 6.5 37.5 11.5s19.833 11 26.5 18s10 14.833 10 23.5c0 11.333 -7 23.333 -21 36s-32.667 22.667 -56 30c-41.333 14 -73.333 31.5 -96 52.5s-34 51.167 -34 90.5c0 25.333 5 48 15 68s23 36.833 39 50.5s34.333 24.167 55 31.5s42 11 64 11
s43.833 -3.33301 65.5 -10s43.834 -18 66.501 -34v-121c-28 23.333 -52.667 38.5 -74 45.5s-40.666 10.5 -57.999 10.5c-5.33301 0 -11.333 -0.666992 -18 -2s-12.667 -3.83301 -18 -7.5s-9.83301 -8.66699 -13.5 -15s-5.5 -14.166 -5.5 -23.499
c0 -17.333 6.5 -30.166 19.5 -38.499s30.167 -16.5 51.5 -24.5c19.333 -7.33301 37.166 -15.5 53.499 -24.5s30.5 -19.167 42.5 -30.5s21.333 -24.5 28 -39.5s10 -32.167 10 -51.5c0 -33.333 -7 -61.166 -21 -83.499s-32.167 -40.166 -54.5 -53.499
s-47.333 -22.666 -75 -27.999s-55.167 -8 -82.5 -8h-154z" />
    <glyph glyph-name="alefwaslafina" unicode="&#x671;" horiz-adv-x="292" arabic-form="final" 
d="M261 0c-60.667 0 -107.667 12.667 -141 38s-50 66.333 -50 123v519h120v-519c0 -20.667 7 -34.167 21 -40.5s31 -9.5 51 -9.5h39v-111h-40z" />
    <glyph glyph-name="pfina" unicode="&#x67e;" horiz-adv-x="934" arabic-form="final" 
d="M886 0c-32.667 0 -61.001 3.49902 -85.001 10.499s-46 15.167 -66 24.5c-13.333 -11.333 -30.666 -20 -51.999 -26s-45 -9 -71 -9h-338c-60.667 0 -107.667 12.667 -141 38s-50 66.333 -50 123v252h120v-252c0 -20.667 7 -34.167 21 -40.5s31 -9.5 51 -9.5h332
c45.333 0 68 23.667 68 71v231h120v-239c0 -10.667 -1 -19.667 -3 -27s-4 -13.666 -6 -18.999c10 -5.33301 22.5 -9.5 37.5 -12.5s30.5 -4.5 46.5 -4.5h74v-111h-58zM367.825 -65.1777c-16.4814 0 -30.4912 -5.76855 -42.0283 -17.3047
c-11.5381 -11.5361 -17.3066 -25.2705 -17.3066 -41.2021c0 -17.0303 5.76855 -31.3135 17.3066 -42.8496c11.5371 -11.5361 25.5469 -17.3047 42.0283 -17.3047c15.9326 0 29.8047 5.76855 41.6162 17.3047s17.7178 25.8193 17.7178 42.8496
c0 15.9316 -5.90625 29.666 -17.7178 41.2021s-25.6836 17.3047 -41.6162 17.3047zM516.163 -65.1777c-16.4814 0 -30.4912 -5.76855 -42.0293 -17.3047c-11.5371 -11.5361 -17.3057 -25.2705 -17.3057 -41.2021c0 -17.0303 5.76855 -31.3135 17.3057 -42.8496
c11.5381 -11.5361 25.5479 -17.3047 42.0293 -17.3047c15.9326 0 29.8047 5.76855 41.6172 17.3047c11.8115 11.5361 17.7178 25.8193 17.7178 42.8496c0 15.9316 -5.90625 29.666 -17.7178 41.2021c-11.8125 11.5361 -25.6846 17.3047 -41.6172 17.3047zM445.291 -199.495
c-16.4824 0 -30.4922 -5.76855 -42.0293 -17.3047s-17.3057 -25.2705 -17.3057 -41.2021c0 -17.0303 5.76855 -31.3135 17.3057 -42.8496s25.5469 -17.3047 42.0293 -17.3047c15.9326 0 29.8047 5.76855 41.6162 17.3047c11.8125 11.5361 17.7188 25.8193 17.7188 42.8496
c0 15.9316 -5.90625 29.666 -17.7188 41.2021c-11.8115 11.5361 -25.6836 17.3047 -41.6162 17.3047z" />
    <glyph glyph-name="pini" unicode="&#x67e;" horiz-adv-x="328" arabic-form="initial" 
d="M-9 0v111h39c20 0 37 3.16699 51 9.5s21 19.833 21 40.5v252h120v-252c0 -56.667 -16.667 -97.667 -50 -123s-80.333 -38 -141 -38h-40zM35.8262 -65.1768c-16.4814 0 -30.4912 -5.76855 -42.0283 -17.3047c-11.5381 -11.5361 -17.3066 -25.2705 -17.3066 -41.2021
c0 -17.0303 5.76855 -31.3135 17.3066 -42.8496c11.5371 -11.5361 25.5469 -17.3047 42.0283 -17.3047c15.9326 0 29.8047 5.76855 41.6162 17.3047s17.7178 25.8193 17.7178 42.8496c0 15.9316 -5.90625 29.666 -17.7178 41.2021s-25.6836 17.3047 -41.6162 17.3047z
M184.164 -65.1768c-16.4814 0 -30.4912 -5.76855 -42.0293 -17.3047c-11.5371 -11.5361 -17.3057 -25.2705 -17.3057 -41.2021c0 -17.0303 5.76855 -31.3135 17.3057 -42.8496c11.5381 -11.5361 25.5479 -17.3047 42.0293 -17.3047
c15.9326 0 29.8047 5.76855 41.6172 17.3047c11.8115 11.5361 17.7178 25.8193 17.7178 42.8496c0 15.9316 -5.90625 29.666 -17.7178 41.2021c-11.8125 11.5361 -25.6846 17.3047 -41.6172 17.3047zM113.292 -199.494c-16.4824 0 -30.4922 -5.76855 -42.0293 -17.3047
s-17.3057 -25.2705 -17.3057 -41.2021c0 -17.0303 5.76855 -31.3135 17.3057 -42.8496s25.5469 -17.3047 42.0293 -17.3047c15.9326 0 29.8047 5.76855 41.6162 17.3047c11.8125 11.5361 17.7188 25.8193 17.7188 42.8496c0 15.9316 -5.90625 29.666 -17.7188 41.2021
c-11.8115 11.5361 -25.6836 17.3047 -41.6162 17.3047z" />
    <glyph glyph-name="pmedi" unicode="&#x67e;" horiz-adv-x="400" arabic-form="medial" 
d="M349 0c-32.667 0 -61.001 3.49902 -85.001 10.499s-46 15.167 -66 24.5c-13.333 -11.333 -30.666 -20 -51.999 -26s-45 -9 -71 -9h-84v111h79c45.333 0 68 23.667 68 71v231h120v-239c0 -10.667 -1 -19.667 -3 -27s-4 -13.666 -6 -18.999
c10 -5.33301 22.5 -9.5 37.5 -12.5s30.5 -4.5 46.5 -4.5h74v-111h-58zM98.999 -43.9443c-20 0 -37 -6.99902 -51 -20.9971c-14 -13.999 -21 -30.6641 -21 -49.9951c0 -20.6641 7 -37.9951 21 -51.9932c14 -13.999 31 -20.998 51 -20.998
c19.333 0 36.166 6.99902 50.499 20.998c14.333 13.998 21.5 31.3291 21.5 51.9932c0 19.3311 -7.16699 35.9961 -21.5 49.9951c-14.333 13.998 -31.166 20.9971 -50.499 20.9971zM278.999 -43.9443c-20 0 -37 -6.99902 -51 -20.9971c-14 -13.999 -21 -30.6641 -21 -49.9951
c0 -20.6641 7 -37.9951 21 -51.9932c14 -13.999 31 -20.998 51 -20.998c19.333 0 36.166 6.99902 50.499 20.998c14.333 13.998 21.5 31.3291 21.5 51.9932c0 19.3311 -7.16699 35.9961 -21.5 49.9951c-14.333 13.998 -31.166 20.9971 -50.499 20.9971zM192.999 -206.925
c-20 0 -37 -6.99902 -51 -20.9971s-21 -30.6631 -21 -49.9941c0 -20.6641 7 -37.9951 21 -51.9932c14 -13.999 31 -20.998 51 -20.998c19.333 0 36.166 6.99902 50.499 20.998c14.333 13.998 21.5 31.3291 21.5 51.9932c0 19.3311 -7.16699 35.9961 -21.5 49.9941
s-31.166 20.9971 -50.499 20.9971z" />
    <glyph glyph-name="gfina" unicode="&#x686;" horiz-adv-x="621" arabic-form="final" 
d="M630 0l-350.001 -0.000976562c-30 0 -54.833 -4.83301 -74.5 -14.5s-29.5 -21.5 -29.5 -35.5s8.5 -25.167 25.5 -33.5s38.5 -12.5 64.5 -12.5h92v-121h-95c-30.667 0 -58.5 3.83301 -83.5 11.5s-46.333 18.834 -64 33.501s-31.334 32.334 -41.001 53.001
s-14.5 43.667 -14.5 69c0 48 19 86.833 57 116.5s91 44.5 159 44.5h146v127c0 12.667 -2.16699 23.167 -6.5 31.5s-10 14.666 -17 18.999s-15 7.33301 -24 9s-17.833 2.5 -26.5 2.5h-63c-9.33301 0 -19.666 -0.5 -30.999 -1.5s-23.166 -2.5 -35.499 -4.5
s-24.333 -4.5 -36 -7.5s-22.5 -6.5 -32.5 -10.5v108c19.333 9.33301 42.5 16.5 69.5 21.5s51.833 7.5 74.5 7.5h63c28 0 53.333 -3 76 -9s42 -15.5 58 -28.5s28.333 -30 37 -51s13 -46.167 13 -75.5v-138h89v-111zM444.055 -46.7393
c-14.5059 0 -26.8359 -5.08398 -36.9893 -15.252c-10.1543 -10.1689 -15.2314 -22.2744 -15.2314 -36.3164c0 -15.0107 5.07715 -27.6006 15.2314 -37.7695c10.1533 -10.1689 22.4834 -15.2529 36.9893 -15.2529c14.0225 0 26.2314 5.08398 36.627 15.2529
s15.5928 22.7588 15.5928 37.7695c0 14.042 -5.19727 26.1475 -15.5928 36.3164c-10.3955 10.168 -22.6045 15.252 -36.627 15.252zM574.605 -46.7393c-14.5059 0 -26.8359 -5.08398 -36.9893 -15.252c-10.1543 -10.1689 -15.2314 -22.2744 -15.2314 -36.3164
c0 -15.0107 5.07715 -27.6006 15.2314 -37.7695c10.1533 -10.1689 22.4834 -15.2529 36.9893 -15.2529c14.0225 0 26.2314 5.08398 36.627 15.2529s15.5938 22.7588 15.5938 37.7695c0 14.042 -5.19824 26.1475 -15.5938 36.3164
c-10.3955 10.168 -22.6045 15.252 -36.627 15.252zM512.231 -165.129c-14.5059 0 -26.8359 -5.08398 -36.9902 -15.2529c-10.1533 -10.168 -15.2305 -22.2734 -15.2305 -36.3154c0 -15.0107 5.07715 -27.6006 15.2305 -37.7686
c10.1543 -10.1689 22.4844 -15.2529 36.9902 -15.2529c14.0225 0 26.2314 5.08398 36.627 15.2529c10.3955 10.168 15.5938 22.7578 15.5938 37.7686c0 14.042 -5.19824 26.1475 -15.5938 36.3154c-10.3955 10.1689 -22.6045 15.2529 -36.627 15.2529z" />
    <glyph glyph-name="gini" unicode="&#x686;" horiz-adv-x="510" arabic-form="initial" 
d="M-9 111l339.998 0.000976562v127c0 12.667 -2.16699 23.167 -6.5 31.5s-10 14.666 -17 18.999s-15 7.33301 -24 9s-17.833 2.5 -26.5 2.5h-63c-9.33301 0 -19.666 -0.5 -30.999 -1.5s-23.166 -2.5 -35.499 -4.5s-24.333 -4.5 -36 -7.5s-22.5 -6.5 -32.5 -10.5v108
c19.333 9.33301 42.5 16.5 69.5 21.5s51.833 7.5 74.5 7.5h63c28 0 53.333 -3 76 -9s42 -15.5 58 -28.5s28.333 -30 37 -51s13 -46.167 13 -75.5v-249h-459v111zM148.824 -65.1758c-16.4814 0 -30.4912 -5.76855 -42.0283 -17.3047
c-11.5381 -11.5361 -17.3066 -25.2705 -17.3066 -41.2021c0 -17.0303 5.76855 -31.3135 17.3066 -42.8496c11.5371 -11.5361 25.5469 -17.3047 42.0283 -17.3047c15.9326 0 29.8047 5.76855 41.6162 17.3047s17.7178 25.8193 17.7178 42.8496
c0 15.9316 -5.90625 29.666 -17.7178 41.2021s-25.6836 17.3047 -41.6162 17.3047zM297.162 -65.1758c-16.4814 0 -30.4912 -5.76855 -42.0293 -17.3047c-11.5371 -11.5361 -17.3057 -25.2705 -17.3057 -41.2021c0 -17.0303 5.76855 -31.3135 17.3057 -42.8496
c11.5381 -11.5361 25.5479 -17.3047 42.0293 -17.3047c15.9326 0 29.8047 5.76855 41.6172 17.3047c11.8115 11.5361 17.7178 25.8193 17.7178 42.8496c0 15.9316 -5.90625 29.666 -17.7178 41.2021c-11.8125 11.5361 -25.6846 17.3047 -41.6172 17.3047zM226.29 -199.493
c-16.4824 0 -30.4922 -5.76855 -42.0293 -17.3047s-17.3057 -25.2705 -17.3057 -41.2021c0 -17.0303 5.76855 -31.3135 17.3057 -42.8496s25.5469 -17.3047 42.0293 -17.3047c15.9326 0 29.8047 5.76855 41.6162 17.3047c11.8125 11.5361 17.7188 25.8193 17.7188 42.8496
c0 15.9316 -5.90625 29.666 -17.7188 41.2021c-11.8115 11.5361 -25.6836 17.3047 -41.6162 17.3047z" />
    <glyph glyph-name="gmedi" unicode="&#x686;" horiz-adv-x="530" arabic-form="medial" 
d="M-9 111l339.998 0.000976562v127c0 12.667 -2.16699 23.167 -6.5 31.5s-10 14.666 -17 18.999s-15 7.33301 -24 9s-17.833 2.5 -26.5 2.5h-63c-9.33301 0 -19.666 -0.5 -30.999 -1.5s-23.166 -2.5 -35.499 -4.5s-24.333 -4.5 -36 -7.5s-22.5 -6.5 -32.5 -10.5v108
c19.333 9.33301 42.5 16.5 69.5 21.5s51.833 7.5 74.5 7.5h63c28 0 53.333 -3 76 -9s42 -15.5 58 -28.5s28.333 -30 37 -51s13 -46.167 13 -75.5v-138h89v-111h-548v111zM197.824 -65.1758c-16.4814 0 -30.4912 -5.76855 -42.0283 -17.3047
c-11.5381 -11.5361 -17.3066 -25.2705 -17.3066 -41.2021c0 -17.0303 5.76855 -31.3135 17.3066 -42.8496c11.5371 -11.5361 25.5469 -17.3047 42.0283 -17.3047c15.9326 0 29.8047 5.76855 41.6162 17.3047s17.7178 25.8193 17.7178 42.8496
c0 15.9316 -5.90625 29.666 -17.7178 41.2021s-25.6836 17.3047 -41.6162 17.3047zM346.162 -65.1758c-16.4814 0 -30.4912 -5.76855 -42.0293 -17.3047c-11.5371 -11.5361 -17.3057 -25.2705 -17.3057 -41.2021c0 -17.0303 5.76855 -31.3135 17.3057 -42.8496
c11.5381 -11.5361 25.5479 -17.3047 42.0293 -17.3047c15.9326 0 29.8047 5.76855 41.6172 17.3047c11.8115 11.5361 17.7178 25.8193 17.7178 42.8496c0 15.9316 -5.90625 29.666 -17.7178 41.2021c-11.8125 11.5361 -25.6846 17.3047 -41.6172 17.3047zM275.29 -199.493
c-16.4824 0 -30.4922 -5.76855 -42.0293 -17.3047s-17.3057 -25.2705 -17.3057 -41.2021c0 -17.0303 5.76855 -31.3135 17.3057 -42.8496s25.5469 -17.3047 42.0293 -17.3047c15.9326 0 29.8047 5.76855 41.6162 17.3047c11.8125 11.5361 17.7188 25.8193 17.7188 42.8496
c0 15.9316 -5.90625 29.666 -17.7188 41.2021c-11.8115 11.5361 -25.6836 17.3047 -41.6162 17.3047z" />
    <glyph glyph-name="jehfina" unicode="&#x698;" horiz-adv-x="338" arabic-form="final" 
d="M138 413h120.002v-302h89v-111h-89v-68c0 -51.333 -15 -89 -45 -113s-68.667 -36 -116 -36c-15.333 0 -30 1.5 -44 4.5s-26.667 6.5 -38 10.5v101c11.333 -4 22.666 -7.33301 33.999 -10s21.666 -4 30.999 -4c18 0 32.167 4.5 42.5 13.5s15.5 26.167 15.5 51.5v463z
M102.002 465c-20 0 -37 7 -51 21s-21 30.667 -21 50c0 20.667 7 38 21 52s31 21 51 21c19.333 0 36.166 -7 50.499 -21s21.5 -31.333 21.5 -52c0 -19.333 -7.16699 -36 -21.5 -50s-31.166 -21 -50.499 -21zM282.002 465c-20 0 -37 7 -51 21s-21 30.667 -21 50
c0 20.667 7 38 21 52s31 21 51 21c19.333 0 36.166 -7 50.499 -21s21.5 -31.333 21.5 -52c0 -19.333 -7.16699 -36 -21.5 -50s-31.166 -21 -50.499 -21zM196.002 628c-20 0 -37 7 -51 21s-21 30.667 -21 50c0 20.667 7 38 21 52s31 21 51 21c19.333 0 36.166 -7 50.499 -21
s21.5 -31.333 21.5 -52c0 -19.333 -7.16699 -36 -21.5 -50s-31.166 -21 -50.499 -21z" />
    <glyph glyph-name="kehehfina" unicode="&#x6a9;" horiz-adv-x="729" arabic-form="final" 
d="M738 111l0.00292969 -110.998h-192c-32.667 -3.33301 -64.834 -6 -96.501 -8s-57.167 -3 -76.5 -3c-35.333 0 -70.333 3.33301 -105 10s-66 18.167 -94 34.5s-50.667 38.666 -68 66.999s-26 64.5 -26 108.5v145h122v-140c0 -22 5.33301 -40 16 -54
s24.167 -24.833 40.5 -32.5s34.666 -13 54.999 -16s40.166 -4.5 59.499 -4.5h35.5c15 0 30.667 0.333008 47 1s32 1.16699 47 1.5s26.833 1.16602 35.5 2.49902v568h120v-569h80zM264.003 439.002h40c-2 4.66699 -3.66699 10.5 -5 17.5s-2 12.5 -2 16.5
c0 16.667 2.66699 31 8 43s12.5 21.667 21.5 29s19.5 12.833 31.5 16.5s24.333 5.5 37 5.5c10.667 0 21 -1.66699 31 -5s21 -8.66602 33 -15.999v-67c-6 4 -14.167 8.16699 -24.5 12.5s-20.5 6.83301 -30.5 7.5s-18.5 -0.833008 -25.5 -4.5s-10.5 -11.5 -10.5 -23.5
c0 -3.33301 0.833008 -8.33301 2.5 -15s4.16699 -12.334 7.5 -17.001h81v-63h-195v63z" />
    <glyph glyph-name="kafini" unicode="&#x6a9;" horiz-adv-x="499" arabic-form="initial" 
d="M-9 0l-0.00390625 111.002h256c10.667 0 20.834 1 30.501 3s18.167 5.33301 25.5 10s13.166 10.667 17.499 18s6.5 16.333 6.5 27v52c0 13.333 -2.5 24.166 -7.5 32.499s-11.167 15 -18.5 20s-15.666 8.33301 -24.999 10s-18.666 2.5 -27.999 2.5h-219v94l398 325v-142
l-205 -166h21c30.667 0 58.5 -2.83301 83.5 -8.5s46.333 -14.834 64 -27.501s31.5 -29.667 41.5 -51s15.333 -47.333 16 -78v-63c0.666992 -60 -16.666 -103.167 -51.999 -129.5s-84.666 -39.5 -147.999 -39.5h-257z" />
    <glyph glyph-name="kafmedi" unicode="&#x6a9;" horiz-adv-x="556" arabic-form="medial" 
d="M-9 0l-0.00195312 111.002h256c10.667 0 20.834 1 30.501 3s18.167 5.33301 25.5 10s13.166 10.667 17.499 18s6.5 16.333 6.5 27v52c0 13.333 -2.5 24.166 -7.5 32.499s-11.167 15 -18.5 20s-15.666 8.33301 -24.999 10s-18.666 2.5 -27.999 2.5h-219v94l398 325v-142
l-205 -166h21c30.667 0 58.5 -2.83301 83.5 -8.5s46.333 -14.834 64 -27.501s31.5 -29.667 41.5 -51s15.333 -47.333 16 -78v-63c0 -18.667 -1.33301 -34.667 -4 -48c9.33301 -3.33301 19.833 -5.83301 31.5 -7.5s23.834 -2.5 36.501 -2.5h53v-111h-37
c-30.667 0 -57.334 3.16699 -80.001 9.5s-43.667 13.5 -63 21.5c-33.333 -20.667 -79 -31 -137 -31h-257z" />
    <glyph glyph-name="gaffina" unicode="&#x6af;" horiz-adv-x="729" arabic-form="final" 
d="M738 111l0.00292969 -110.998h-192c-32.667 -3.33301 -64.834 -6 -96.501 -8s-57.167 -3 -76.5 -3c-35.333 0 -70.333 3.33301 -105 10s-66 18.167 -94 34.5s-50.667 38.666 -68 66.999s-26 64.5 -26 108.5v145h122v-140c0 -22 5.33301 -40 16 -54
s24.167 -24.833 40.5 -32.5s34.666 -13 54.999 -16s40.166 -4.5 59.499 -4.5h35.5c15 0 30.667 0.333008 47 1s32 1.16699 47 1.5s26.833 1.16602 35.5 2.49902v568h120v-569h80zM264.003 439.002h40c-2 4.66699 -3.66699 10.5 -5 17.5s-2 12.5 -2 16.5
c0 16.667 2.66699 31 8 43s12.5 21.667 21.5 29s19.5 12.833 31.5 16.5s24.333 5.5 37 5.5c10.667 0 21 -1.66699 31 -5s21 -8.66602 33 -15.999v-67c-6 4 -14.167 8.16699 -24.5 12.5s-20.5 6.83301 -30.5 7.5s-18.5 -0.833008 -25.5 -4.5s-10.5 -11.5 -10.5 -23.5
c0 -3.33301 0.833008 -8.33301 2.5 -15s4.16699 -12.334 7.5 -17.001h81v-63h-195v63z" />
    <glyph glyph-name="gafini" unicode="&#x6af;" horiz-adv-x="503" arabic-form="initial" 
d="M-5 0l-0.00390625 111.002h256c10.667 0 20.834 1 30.501 3s18.167 5.33301 25.5 10s13.166 10.667 17.499 18s6.5 16.333 6.5 27v52c0 13.333 -2.5 24.166 -7.5 32.499s-11.167 15 -18.5 20s-15.666 8.33301 -24.999 10s-18.666 2.5 -27.999 2.5h-219v94l398 325v-142
l-205 -166h21c30.667 0 58.5 -2.83301 83.5 -8.5s46.333 -14.834 64 -27.501s31.5 -29.667 41.5 -51s15.333 -47.333 16 -78v-63c0.666992 -60 -16.666 -103.167 -51.999 -129.5s-84.666 -39.5 -147.999 -39.5h-257z" />
    <glyph glyph-name="gafmedi" unicode="&#x6af;" horiz-adv-x="561" arabic-form="medial" 
d="M-4 0l-0.00195312 111.002h256c10.667 0 20.834 1 30.501 3s18.167 5.33301 25.5 10s13.166 10.667 17.499 18s6.5 16.333 6.5 27v52c0 13.333 -2.5 24.166 -7.5 32.499s-11.167 15 -18.5 20s-15.666 8.33301 -24.999 10s-18.666 2.5 -27.999 2.5h-219v94l398 325v-142
l-205 -166h21c30.667 0 58.5 -2.83301 83.5 -8.5s46.333 -14.834 64 -27.501s31.5 -29.667 41.5 -51s15.333 -47.333 16 -78v-63c0 -18.667 -1.33301 -34.667 -4 -48c9.33301 -3.33301 19.833 -5.83301 31.5 -7.5s23.834 -2.5 36.501 -2.5h53v-111h-37
c-30.667 0 -57.334 3.16699 -80.001 9.5s-43.667 13.5 -63 21.5c-33.333 -20.667 -79 -31 -137 -31h-257z" />
    <glyph glyph-name="kirsehini" unicode="&#x649;" horiz-adv-x="303" arabic-form="initial" 
d="M-8 0v111h39c20 0 37 3.16699 51 9.5s21 19.833 21 40.5v252h120v-252c0 -56.667 -16.667 -97.667 -50 -123s-80.333 -38 -141 -38h-40z" />
    <glyph glyph-name="kirsehmedi" unicode="&#x649;" horiz-adv-x="399" arabic-form="medial" 
d="M349 0c-32.667 0 -61.001 3.49902 -85.001 10.499s-46 15.167 -66 24.5c-13.333 -11.333 -30.666 -20 -51.999 -26s-45 -9 -71 -9h-84v111h79c45.333 0 68 23.667 68 71v231h120v-239c0 -10.667 -1 -19.667 -3 -27s-4 -13.666 -6 -18.999
c10 -5.33301 22.5 -9.5 37.5 -12.5s30.5 -4.5 46.5 -4.5h74v-111h-58z" />
    <glyph glyph-name="alefma2sourafina" unicode="&#x6cc;" horiz-adv-x="923" arabic-form="final" 
d="M473 251c0 30.667 5.16699 56.498 15.5 77.498s24 37.833 41 50.5s36.333 21.834 58 27.501s43.5 8.5 65.5 8.5c11.333 0 25.166 -1 41.499 -3s33.166 -4.66699 50.499 -8s34.833 -7.33301 52.5 -12s33.834 -10 48.501 -16v-265h86v-111h-206v298
c-3.33301 1.33301 -8 2.33301 -14 3s-12.333 1.33398 -19 2.00098s-12.834 1 -18.501 1h-13.5c-7.33301 0 -14.833 -1.16699 -22.5 -3.5s-15 -6 -22 -11s-12.667 -11.5 -17 -19.5s-6.5 -18 -6.5 -30v-211c0 -33.333 -9 -60.166 -27 -80.499s-40.5 -35.833 -67.5 -46.5
s-56.167 -17.667 -87.5 -21s-60.666 -5 -87.999 -5h-4c-33.333 0 -66 3.16699 -98 9.5s-60.667 17.333 -86 33s-45.833 37 -61.5 64s-23.5 61.167 -23.5 102.5v191h120v-186c0 -21.333 4.33301 -38.5 13 -51.5s20.167 -23.333 34.5 -31s30.5 -12.834 48.5 -15.501
s36.667 -4 56 -4c14.667 0 30.834 0.333008 48.501 1s34 2.16699 49 4.5s27.667 6 38 11s15.5 11.833 15.5 20.5v226z" />
    <glyph glyph-name="yaini" unicode="&#x6cc;" horiz-adv-x="303" arabic-form="initial" 
d="M-8 0v111h39c20 0 37 3.16699 51 9.5s21 19.833 21 40.5v252h120v-252c0 -56.667 -16.667 -97.667 -50 -123s-80.333 -38 -141 -38h-40zM21 -240c-20 0 -37 7 -51 21s-21 30.667 -21 50c0 20.667 7 38 21 52s31 21 51 21c19.333 0 36.166 -7 50.499 -21
s21.5 -31.333 21.5 -52c0 -19.333 -7.16699 -36 -21.5 -50s-31.166 -21 -50.499 -21zM201 -240c-20 0 -37 7 -51 21s-21 30.667 -21 50c0 20.667 7 38 21 52s31 21 51 21c19.333 0 36.166 -7 50.499 -21s21.5 -31.333 21.5 -52c0 -19.333 -7.16699 -36 -21.5 -50
s-31.166 -21 -50.499 -21z" />
    <glyph glyph-name="yamedi" unicode="&#x6cc;" horiz-adv-x="399" arabic-form="medial" 
d="M349 0c-32.667 0 -61.001 3.49902 -85.001 10.499s-46 15.167 -66 24.5c-13.333 -11.333 -30.666 -20 -51.999 -26s-45 -9 -71 -9h-84v111h79c45.333 0 68 23.667 68 71v231h120v-239c0 -10.667 -1 -19.667 -3 -27s-4 -13.666 -6 -18.999
c10 -5.33301 22.5 -9.5 37.5 -12.5s30.5 -4.5 46.5 -4.5h74v-111h-58zM107.999 -240.001c-20 0 -37 7 -51 21s-21 30.667 -21 50c0 20.667 7 38 21 52s31 21 51 21c19.333 0 36.166 -7 50.499 -21s21.5 -31.333 21.5 -52c0 -19.333 -7.16699 -36 -21.5 -50
s-31.166 -21 -50.499 -21zM287.999 -240.001c-20 0 -37 7 -51 21s-21 30.667 -21 50c0 20.667 7 38 21 52s31 21 51 21c19.333 0 36.166 -7 50.499 -21s21.5 -31.333 21.5 -52c0 -19.333 -7.16699 -36 -21.5 -50s-31.166 -21 -50.499 -21z" />
    <glyph glyph-name="alefmaddaabovefina" unicode="&#x622;" horiz-adv-x="292" arabic-form="final" 
d="M261 0c-60.667 0 -107.667 12.667 -141 38s-50 66.333 -50 123v519h120v-519c0 -20.667 7 -34.167 21 -40.5s31 -9.5 51 -9.5h39v-111h-40zM286 842c0 -42 -8.50293 -74.333 -25.5029 -97s-40.5 -34 -70.5 -34c-17.333 0 -32.166 4 -44.499 12s-24.166 16.333 -35.499 25
l-21 15.5c-6.66699 5 -12.667 7.5 -18 7.5c-14 0 -21 -19.333 -21 -58h-76c0 42 8.33301 74.333 25 97s40 34 70 34c16.667 0 31.334 -4 44.001 -12s24.667 -16.333 36 -25c7.33301 -6 14.5 -11.333 21.5 -16s13.167 -7 18.5 -7c13.333 0 20 19.333 20 58h77z" />
    <glyph glyph-name="alefhamzaabovefina" unicode="&#x623;" horiz-adv-x="292" arabic-form="final" 
d="M261 0c-60.667 0 -107.667 12.667 -141 38s-50 66.333 -50 123v519h120v-519c0 -20.667 7 -34.167 21 -40.5s31 -9.5 51 -9.5h39v-111h-40zM22 774h40c-2 4.66699 -3.66699 10.5 -5 17.5s-2 12.5 -2 16.5c0 16.667 2.66699 31 8 43s12.5 21.667 21.5 29
s19.5 12.833 31.5 16.5s24.333 5.5 37 5.5c10.667 0 21 -1.66699 31 -5s21 -8.66602 33 -15.999v-67c-6 4 -14.167 8.16699 -24.5 12.5s-20.5 6.83301 -30.5 7.5s-18.5 -0.833008 -25.5 -4.5s-10.5 -11.5 -10.5 -23.5c0 -3.33301 0.833008 -8.33301 2.5 -15
s4.16699 -12.334 7.5 -17.001h81v-63h-195v63z" />
    <glyph glyph-name="wawhamzafina" unicode="&#x624;" horiz-adv-x="559" arabic-form="final" 
d="M357 0h-74.999c-30 0 -59 4.16699 -87 12.5s-52.833 21 -74.5 38s-38.834 38.667 -51.501 65s-19 57.833 -19 94.5c0 28.667 5.16699 55.334 15.5 80.001s25.666 46.167 45.999 64.5s45.333 32.833 75 43.5s63.834 16 102.501 16c10.667 0 24.334 -1 41.001 -3
s34 -4.5 52 -7.5s35.5 -6.83301 52.5 -11.5s31.5 -9.33398 43.5 -14.001v-267h90v-111h-90v-23c0 -38 -7.16699 -69.667 -21.5 -95s-32.5 -45.5 -54.5 -60.5s-46.333 -25.667 -73 -32s-52.667 -9.5 -78 -9.5c-56 0 -107 11 -153 33v112
c27.333 -15.333 52.666 -26.5 75.999 -33.5s49 -10.5 77 -10.5c29.333 0 54.333 8 75 24s31 41 31 75v20zM358.001 298c-6 1.33301 -14.832 3.16602 -26.499 5.49902s-25.834 3.5 -42.501 3.5c-42 0 -73 -9 -93 -27s-30 -41.333 -30 -70
c0 -31.333 10.333 -55.666 31 -72.999s49 -26 85 -26h76v187zM155.002 533h40c-2 4.66699 -3.66699 10.5 -5 17.5s-2 12.5 -2 16.5c0 16.667 2.66699 31 8 43s12.5 21.667 21.5 29s19.5 12.833 31.5 16.5s24.333 5.5 37 5.5c10.667 0 21 -1.66699 31 -5
s21 -8.66602 33 -15.999v-67c-6 4 -14.167 8.16699 -24.5 12.5s-20.5 6.83301 -30.5 7.5s-18.5 -0.833008 -25.5 -4.5s-10.5 -11.5 -10.5 -23.5c0 -3.33301 0.833008 -8.33301 2.5 -15s4.16699 -12.334 7.5 -17.001h81v-63h-195v63z" />
    <glyph glyph-name="alefhamzabelowfina" unicode="&#x625;" horiz-adv-x="292" arabic-form="final" 
d="M261 0c-60.667 0 -107.667 12.667 -141 38s-50 66.333 -50 123v519h120v-519c0 -20.667 7 -34.167 21 -40.5s31 -9.5 51 -9.5h39v-111h-40zM47 -221h40c-2 4.66699 -3.66699 10.5 -5 17.5s-2 12.5 -2 16.5c0 16.667 2.66699 31 8 43s12.5 21.667 21.5 29
s19.5 12.833 31.5 16.5s24.333 5.5 37 5.5c10.667 0 21 -1.66699 31 -5s21 -8.66602 33 -15.999v-67c-6 4 -14.167 8.16699 -24.5 12.5s-20.5 6.83301 -30.5 7.5s-18.5 -0.833008 -25.5 -4.5s-10.5 -11.5 -10.5 -23.5c0 -3.33301 0.833008 -8.33301 2.5 -15
s4.16699 -12.334 7.5 -17.001h81v-63h-195v63z" />
    <glyph glyph-name="hamzakirsehfina" unicode="&#x626;" horiz-adv-x="923" arabic-form="final" 
d="M473 251c0 30.667 5.16699 56.498 15.5 77.498s24 37.833 41 50.5s36.333 21.834 58 27.501s43.5 8.5 65.5 8.5c11.333 0 25.166 -1 41.499 -3s33.166 -4.66699 50.499 -8s34.833 -7.33301 52.5 -12s33.834 -10 48.501 -16v-265h86v-111h-206v298
c-3.33301 1.33301 -8 2.33301 -14 3s-12.333 1.33398 -19 2.00098s-12.834 1 -18.501 1h-13.5c-7.33301 0 -14.833 -1.16699 -22.5 -3.5s-15 -6 -22 -11s-12.667 -11.5 -17 -19.5s-6.5 -18 -6.5 -30v-211c0 -33.333 -9 -60.166 -27 -80.499s-40.5 -35.833 -67.5 -46.5
s-56.167 -17.667 -87.5 -21s-60.666 -5 -87.999 -5h-4c-33.333 0 -66 3.16699 -98 9.5s-60.667 17.333 -86 33s-45.833 37 -61.5 64s-23.5 61.167 -23.5 102.5v191h120v-186c0 -21.333 4.33301 -38.5 13 -51.5s20.167 -23.333 34.5 -31s30.5 -12.834 48.5 -15.501
s36.667 -4 56 -4c14.667 0 30.834 0.333008 48.501 1s34 2.16699 49 4.5s27.667 6 38 11s15.5 11.833 15.5 20.5v226zM99 408.998h40c-2 4.66699 -3.66699 10.5 -5 17.5s-2 12.5 -2 16.5c0 16.667 2.66699 31 8 43s12.5 21.667 21.5 29s19.5 12.833 31.5 16.5
s24.333 5.5 37 5.5c10.667 0 21 -1.66699 31 -5s21 -8.66602 33 -15.999v-67c-6 4 -14.167 8.16699 -24.5 12.5s-20.5 6.83301 -30.5 7.5s-18.5 -0.833008 -25.5 -4.5s-10.5 -11.5 -10.5 -23.5c0 -3.33301 0.833008 -8.33301 2.5 -15s4.16699 -12.334 7.5 -17.001h81v-63
h-195v63z" />
    <glyph glyph-name="hamzakirsehini" unicode="&#x626;" horiz-adv-x="303" arabic-form="initial" 
d="M-8 0v111h39c20 0 37 3.16699 51 9.5s21 19.833 21 40.5v252h120v-252c0 -56.667 -16.667 -97.667 -50 -123s-80.333 -38 -141 -38h-40zM42 552h40c-2 4.66699 -3.66699 10.5 -5 17.5s-2 12.5 -2 16.5c0 16.667 2.66699 31 8 43s12.5 21.667 21.5 29
s19.5 12.833 31.5 16.5s24.333 5.5 37 5.5c10.667 0 21 -1.66699 31 -5s21 -8.66602 33 -15.999v-67c-6 4 -14.167 8.16699 -24.5 12.5s-20.5 6.83301 -30.5 7.5s-18.5 -0.833008 -25.5 -4.5s-10.5 -11.5 -10.5 -23.5c0 -3.33301 0.833008 -8.33301 2.5 -15
s4.16699 -12.334 7.5 -17.001h81v-63h-195v63z" />
    <glyph glyph-name="hamzakirsehmedi" unicode="&#x626;" horiz-adv-x="399" arabic-form="medial" 
d="M349 0c-32.667 0 -61.001 3.49902 -85.001 10.499s-46 15.167 -66 24.5c-13.333 -11.333 -30.666 -20 -51.999 -26s-45 -9 -71 -9h-84v111h79c45.333 0 68 23.667 68 71v231h120v-239c0 -10.667 -1 -19.667 -3 -27s-4 -13.666 -6 -18.999
c10 -5.33301 22.5 -9.5 37.5 -12.5s30.5 -4.5 46.5 -4.5h74v-111h-58zM84.999 551.999h40c-2 4.66699 -3.66699 10.5 -5 17.5s-2 12.5 -2 16.5c0 16.667 2.66699 31 8 43s12.5 21.667 21.5 29s19.5 12.833 31.5 16.5s24.333 5.5 37 5.5c10.667 0 21 -1.66699 31 -5
s21 -8.66602 33 -15.999v-67c-6 4 -14.167 8.16699 -24.5 12.5s-20.5 6.83301 -30.5 7.5s-18.5 -0.833008 -25.5 -4.5s-10.5 -11.5 -10.5 -23.5c0 -3.33301 0.833008 -8.33301 2.5 -15s4.16699 -12.334 7.5 -17.001h81v-63h-195v63z" />
    <glyph glyph-name="aleffina" unicode="&#x627;" horiz-adv-x="292" arabic-form="final" 
d="M261 0c-60.667 0 -107.667 12.667 -141 38s-50 66.333 -50 123v519h120v-519c0 -20.667 7 -34.167 21 -40.5s31 -9.5 51 -9.5h39v-111h-40z" />
    <glyph glyph-name="behfina" unicode="&#x628;" horiz-adv-x="902" arabic-form="final" 
d="M853 0c-32.667 0 -61.001 3.49902 -85.001 10.499s-46 15.167 -66 24.5c-13.333 -11.333 -30.666 -20 -51.999 -26s-45 -9 -71 -9h-338c-60.667 0 -107.667 12.667 -141 38s-50 66.333 -50 123v252h120v-252c0 -20.667 7 -34.167 21 -40.5s31 -9.5 51 -9.5h332
c45.333 0 68 23.667 68 71v231h120v-239c0 -10.667 -1 -19.667 -3 -27s-4 -13.666 -6 -18.999c10 -5.33301 22.5 -9.5 37.5 -12.5s30.5 -4.5 46.5 -4.5h74v-111h-58zM429.999 -239.001c-20 0 -37 7 -51 21s-21 30.667 -21 50c0 20.667 7 38 21 52s31 21 51 21
c19.333 0 36.166 -7 50.499 -21s21.5 -31.333 21.5 -52c0 -19.333 -7.16699 -36 -21.5 -50s-31.166 -21 -50.499 -21z" />
    <glyph glyph-name="behini" unicode="&#x628;" horiz-adv-x="303" arabic-form="initial" 
d="M-8 0v111h39c20 0 37 3.16699 51 9.5s21 19.833 21 40.5v252h120v-252c0 -56.667 -16.667 -97.667 -50 -123s-80.333 -38 -141 -38h-40zM83 -239c-20 0 -37 7 -51 21s-21 30.667 -21 50c0 20.667 7 38 21 52s31 21 51 21c19.333 0 36.166 -7 50.499 -21
s21.5 -31.333 21.5 -52c0 -19.333 -7.16699 -36 -21.5 -50s-31.166 -21 -50.499 -21z" />
    <glyph glyph-name="behmedi" unicode="&#x628;" horiz-adv-x="399" arabic-form="medial" 
d="M349 0c-32.667 0 -61.001 3.49902 -85.001 10.499s-46 15.167 -66 24.5c-13.333 -11.333 -30.666 -20 -51.999 -26s-45 -9 -71 -9h-84v111h79c45.333 0 68 23.667 68 71v231h120v-239c0 -10.667 -1 -19.667 -3 -27s-4 -13.666 -6 -18.999
c10 -5.33301 22.5 -9.5 37.5 -12.5s30.5 -4.5 46.5 -4.5h74v-111h-58zM193.999 -239.001c-20 0 -37 7 -51 21s-21 30.667 -21 50c0 20.667 7 38 21 52s31 21 51 21c19.333 0 36.166 -7 50.499 -21s21.5 -31.333 21.5 -52c0 -19.333 -7.16699 -36 -21.5 -50
s-31.166 -21 -50.499 -21z" />
    <glyph glyph-name="tehmarboutafina" unicode="&#x629;" horiz-adv-x="559" arabic-form="final" 
d="M568 0h-286c-30 0 -59 4.16699 -87 12.5s-52.833 21 -74.5 38s-38.834 38.667 -51.501 65s-19 57.833 -19 94.5c0 28.667 5.16699 55.334 15.5 80.001s25.666 46.167 45.999 64.5s45.333 32.833 75 43.5s63.834 16 102.501 16c10.667 0 24.334 -1 41.001 -3
s34 -4.5 52 -7.5s35.5 -6.83301 52.5 -11.5s31.5 -9.33398 43.5 -14.001v-267h90v-111zM358 298c-6 1.33301 -14.832 3.16602 -26.499 5.49902s-25.834 3.5 -42.501 3.5c-42 0 -73 -9 -93 -27s-30 -41.333 -30 -70c0 -31.333 10.333 -55.666 31 -72.999s49 -26 85 -26h76
v187zM194.001 487c-20 0 -37 7 -51 21s-21 30.667 -21 50c0 20.667 7 38 21 52s31 21 51 21c19.333 0 36.166 -7 50.499 -21s21.5 -31.333 21.5 -52c0 -19.333 -7.16699 -36 -21.5 -50s-31.166 -21 -50.499 -21zM374.001 487c-20 0 -37 7 -51 21s-21 30.667 -21 50
c0 20.667 7 38 21 52s31 21 51 21c19.333 0 36.166 -7 50.499 -21s21.5 -31.333 21.5 -52c0 -19.333 -7.16699 -36 -21.5 -50s-31.166 -21 -50.499 -21z" />
    <glyph glyph-name="tafina" unicode="&#x62a;" horiz-adv-x="902" arabic-form="final" 
d="M853 0c-32.667 0 -61.001 3.49902 -85.001 10.499s-46 15.167 -66 24.5c-13.333 -11.333 -30.666 -20 -51.999 -26s-45 -9 -71 -9h-338c-60.667 0 -107.667 12.667 -141 38s-50 66.333 -50 123v252h120v-252c0 -20.667 7 -34.167 21 -40.5s31 -9.5 51 -9.5h332
c45.333 0 68 23.667 68 71v231h120v-239c0 -10.667 -1 -19.667 -3 -27s-4 -13.666 -6 -18.999c10 -5.33301 22.5 -9.5 37.5 -12.5s30.5 -4.5 46.5 -4.5h74v-111h-58zM325.999 487.999c-20 0 -37 7 -51 21s-21 30.667 -21 50c0 20.667 7 38 21 52s31 21 51 21
c19.333 0 36.166 -7 50.499 -21s21.5 -31.333 21.5 -52c0 -19.333 -7.16699 -36 -21.5 -50s-31.166 -21 -50.499 -21zM505.999 487.999c-20 0 -37 7 -51 21s-21 30.667 -21 50c0 20.667 7 38 21 52s31 21 51 21c19.333 0 36.166 -7 50.499 -21s21.5 -31.333 21.5 -52
c0 -19.333 -7.16699 -36 -21.5 -50s-31.166 -21 -50.499 -21z" />
    <glyph glyph-name="taini" unicode="&#x62a;" horiz-adv-x="303" arabic-form="initial" 
d="M-8 0v111h39c20 0 37 3.16699 51 9.5s21 19.833 21 40.5v252h120v-252c0 -56.667 -16.667 -97.667 -50 -123s-80.333 -38 -141 -38h-40zM59 488c-20 0 -37 7 -51 21s-21 30.667 -21 50c0 20.667 7 38 21 52s31 21 51 21c19.333 0 36.166 -7 50.499 -21
s21.5 -31.333 21.5 -52c0 -19.333 -7.16699 -36 -21.5 -50s-31.166 -21 -50.499 -21zM239 488c-20 0 -37 7 -51 21s-21 30.667 -21 50c0 20.667 7 38 21 52s31 21 51 21c19.333 0 36.166 -7 50.499 -21s21.5 -31.333 21.5 -52c0 -19.333 -7.16699 -36 -21.5 -50
s-31.166 -21 -50.499 -21z" />
    <glyph glyph-name="tamedi" unicode="&#x62a;" horiz-adv-x="399" arabic-form="medial" 
d="M349 0c-32.667 0 -61.001 3.49902 -85.001 10.499s-46 15.167 -66 24.5c-13.333 -11.333 -30.666 -20 -51.999 -26s-45 -9 -71 -9h-84v111h79c45.333 0 68 23.667 68 71v231h120v-239c0 -10.667 -1 -19.667 -3 -27s-4 -13.666 -6 -18.999
c10 -5.33301 22.5 -9.5 37.5 -12.5s30.5 -4.5 46.5 -4.5h74v-111h-58zM102.999 487.999c-20 0 -37 7 -51 21s-21 30.667 -21 50c0 20.667 7 38 21 52s31 21 51 21c19.333 0 36.166 -7 50.499 -21s21.5 -31.333 21.5 -52c0 -19.333 -7.16699 -36 -21.5 -50
s-31.166 -21 -50.499 -21zM282.999 487.999c-20 0 -37 7 -51 21s-21 30.667 -21 50c0 20.667 7 38 21 52s31 21 51 21c19.333 0 36.166 -7 50.499 -21s21.5 -31.333 21.5 -52c0 -19.333 -7.16699 -36 -21.5 -50s-31.166 -21 -50.499 -21z" />
    <glyph glyph-name="thafina" unicode="&#x62b;" horiz-adv-x="902" arabic-form="final" 
d="M853 0c-32.667 0 -61.001 3.49902 -85.001 10.499s-46 15.167 -66 24.5c-13.333 -11.333 -30.666 -20 -51.999 -26s-45 -9 -71 -9h-338c-60.667 0 -107.667 12.667 -141 38s-50 66.333 -50 123v252h120v-252c0 -20.667 7 -34.167 21 -40.5s31 -9.5 51 -9.5h332
c45.333 0 68 23.667 68 71v231h120v-239c0 -10.667 -1 -19.667 -3 -27s-4 -13.666 -6 -18.999c10 -5.33301 22.5 -9.5 37.5 -12.5s30.5 -4.5 46.5 -4.5h74v-111h-58zM307.999 464.999c-20 0 -37 7 -51 21s-21 30.667 -21 50c0 20.667 7 38 21 52s31 21 51 21
c19.333 0 36.166 -7 50.499 -21s21.5 -31.333 21.5 -52c0 -19.333 -7.16699 -36 -21.5 -50s-31.166 -21 -50.499 -21zM487.999 464.999c-20 0 -37 7 -51 21s-21 30.667 -21 50c0 20.667 7 38 21 52s31 21 51 21c19.333 0 36.166 -7 50.499 -21s21.5 -31.333 21.5 -52
c0 -19.333 -7.16699 -36 -21.5 -50s-31.166 -21 -50.499 -21zM401.999 627.999c-20 0 -37 7 -51 21s-21 30.667 -21 50c0 20.667 7 38 21 52s31 21 51 21c19.333 0 36.166 -7 50.499 -21s21.5 -31.333 21.5 -52c0 -19.333 -7.16699 -36 -21.5 -50s-31.166 -21 -50.499 -21z
" />
    <glyph glyph-name="thaini" unicode="&#x62b;" horiz-adv-x="303" arabic-form="initial" 
d="M-8 0v111h39c20 0 37 3.16699 51 9.5s21 19.833 21 40.5v252h120v-252c0 -56.667 -16.667 -97.667 -50 -123s-80.333 -38 -141 -38h-40zM67 465c-20 0 -37 7 -51 21s-21 30.667 -21 50c0 20.667 7 38 21 52s31 21 51 21c19.333 0 36.166 -7 50.499 -21
s21.5 -31.333 21.5 -52c0 -19.333 -7.16699 -36 -21.5 -50s-31.166 -21 -50.499 -21zM247 465c-20 0 -37 7 -51 21s-21 30.667 -21 50c0 20.667 7 38 21 52s31 21 51 21c19.333 0 36.166 -7 50.499 -21s21.5 -31.333 21.5 -52c0 -19.333 -7.16699 -36 -21.5 -50
s-31.166 -21 -50.499 -21zM161 628c-20 0 -37 7 -51 21s-21 30.667 -21 50c0 20.667 7 38 21 52s31 21 51 21c19.333 0 36.166 -7 50.499 -21s21.5 -31.333 21.5 -52c0 -19.333 -7.16699 -36 -21.5 -50s-31.166 -21 -50.499 -21z" />
    <glyph glyph-name="thamedi" unicode="&#x62b;" horiz-adv-x="399" arabic-form="medial" 
d="M349 0c-32.667 0 -61.001 3.49902 -85.001 10.499s-46 15.167 -66 24.5c-13.333 -11.333 -30.666 -20 -51.999 -26s-45 -9 -71 -9h-84v111h79c45.333 0 68 23.667 68 71v231h120v-239c0 -10.667 -1 -19.667 -3 -27s-4 -13.666 -6 -18.999
c10 -5.33301 22.5 -9.5 37.5 -12.5s30.5 -4.5 46.5 -4.5h74v-111h-58zM98.999 464.999c-20 0 -37 7 -51 21s-21 30.667 -21 50c0 20.667 7 38 21 52s31 21 51 21c19.333 0 36.166 -7 50.499 -21s21.5 -31.333 21.5 -52c0 -19.333 -7.16699 -36 -21.5 -50
s-31.166 -21 -50.499 -21zM278.999 464.999c-20 0 -37 7 -51 21s-21 30.667 -21 50c0 20.667 7 38 21 52s31 21 51 21c19.333 0 36.166 -7 50.499 -21s21.5 -31.333 21.5 -52c0 -19.333 -7.16699 -36 -21.5 -50s-31.166 -21 -50.499 -21zM192.999 627.999
c-20 0 -37 7 -51 21s-21 30.667 -21 50c0 20.667 7 38 21 52s31 21 51 21c19.333 0 36.166 -7 50.499 -21s21.5 -31.333 21.5 -52c0 -19.333 -7.16699 -36 -21.5 -50s-31.166 -21 -50.499 -21z" />
    <glyph glyph-name="jeemfina" unicode="&#x62c;" horiz-adv-x="621" arabic-form="final" 
d="M630 0l-350.001 -0.000976562c-30 0 -54.833 -4.83301 -74.5 -14.5s-29.5 -21.5 -29.5 -35.5s8.5 -25.167 25.5 -33.5s38.5 -12.5 64.5 -12.5h92v-121h-95c-30.667 0 -58.5 3.83301 -83.5 11.5s-46.333 18.834 -64 33.501s-31.334 32.334 -41.001 53.001
s-14.5 43.667 -14.5 69c0 48 19 86.833 57 116.5s91 44.5 159 44.5h146v127c0 12.667 -2.16699 23.167 -6.5 31.5s-10 14.666 -17 18.999s-15 7.33301 -24 9s-17.833 2.5 -26.5 2.5h-63c-9.33301 0 -19.666 -0.5 -30.999 -1.5s-23.166 -2.5 -35.499 -4.5
s-24.333 -4.5 -36 -7.5s-22.5 -6.5 -32.5 -10.5v108c19.333 9.33301 42.5 16.5 69.5 21.5s51.833 7.5 74.5 7.5h63c28 0 53.333 -3 76 -9s42 -15.5 58 -28.5s28.333 -30 37 -51s13 -46.167 13 -75.5v-138h89v-111zM479.999 -239.001c-20 0 -37 7 -51 21s-21 30.667 -21 50
c0 20.667 7 38 21 52s31 21 51 21c19.333 0 36.166 -7 50.499 -21s21.5 -31.333 21.5 -52c0 -19.333 -7.16699 -36 -21.5 -50s-31.166 -21 -50.499 -21z" />
    <glyph glyph-name="jeemini" unicode="&#x62c;" horiz-adv-x="510" arabic-form="initial" 
d="M-9 111l339.998 0.000976562v127c0 12.667 -2.16699 23.167 -6.5 31.5s-10 14.666 -17 18.999s-15 7.33301 -24 9s-17.833 2.5 -26.5 2.5h-63c-9.33301 0 -19.666 -0.5 -30.999 -1.5s-23.166 -2.5 -35.499 -4.5s-24.333 -4.5 -36 -7.5s-22.5 -6.5 -32.5 -10.5v108
c19.333 9.33301 42.5 16.5 69.5 21.5s51.833 7.5 74.5 7.5h63c28 0 53.333 -3 76 -9s42 -15.5 58 -28.5s28.333 -30 37 -51s13 -46.167 13 -75.5v-249h-459v111zM229.998 -238.999c-20 0 -37 7 -51 21s-21 30.667 -21 50c0 20.667 7 38 21 52s31 21 51 21
c19.333 0 36.166 -7 50.499 -21s21.5 -31.333 21.5 -52c0 -19.333 -7.16699 -36 -21.5 -50s-31.166 -21 -50.499 -21z" />
    <glyph glyph-name="jeemmedi" unicode="&#x62c;" horiz-adv-x="530" arabic-form="medial" 
d="M-9 111l339.998 0.000976562v127c0 12.667 -2.16699 23.167 -6.5 31.5s-10 14.666 -17 18.999s-15 7.33301 -24 9s-17.833 2.5 -26.5 2.5h-63c-9.33301 0 -19.666 -0.5 -30.999 -1.5s-23.166 -2.5 -35.499 -4.5s-24.333 -4.5 -36 -7.5s-22.5 -6.5 -32.5 -10.5v108
c19.333 9.33301 42.5 16.5 69.5 21.5s51.833 7.5 74.5 7.5h63c28 0 53.333 -3 76 -9s42 -15.5 58 -28.5s28.333 -30 37 -51s13 -46.167 13 -75.5v-138h89v-111h-548v111zM268.998 -238.999c-20 0 -37 7 -51 21s-21 30.667 -21 50c0 20.667 7 38 21 52s31 21 51 21
c19.333 0 36.166 -7 50.499 -21s21.5 -31.333 21.5 -52c0 -19.333 -7.16699 -36 -21.5 -50s-31.166 -21 -50.499 -21z" />
    <glyph glyph-name="haafina" unicode="&#x62d;" horiz-adv-x="621" arabic-form="final" 
d="M630 0l-350.001 -0.000976562c-30 0 -54.833 -4.83301 -74.5 -14.5s-29.5 -21.5 -29.5 -35.5s8.5 -25.167 25.5 -33.5s38.5 -12.5 64.5 -12.5h92v-121h-95c-30.667 0 -58.5 3.83301 -83.5 11.5s-46.333 18.834 -64 33.501s-31.334 32.334 -41.001 53.001
s-14.5 43.667 -14.5 69c0 48 19 86.833 57 116.5s91 44.5 159 44.5h146v127c0 12.667 -2.16699 23.167 -6.5 31.5s-10 14.666 -17 18.999s-15 7.33301 -24 9s-17.833 2.5 -26.5 2.5h-63c-9.33301 0 -19.666 -0.5 -30.999 -1.5s-23.166 -2.5 -35.499 -4.5
s-24.333 -4.5 -36 -7.5s-22.5 -6.5 -32.5 -10.5v108c19.333 9.33301 42.5 16.5 69.5 21.5s51.833 7.5 74.5 7.5h63c28 0 53.333 -3 76 -9s42 -15.5 58 -28.5s28.333 -30 37 -51s13 -46.167 13 -75.5v-138h89v-111z" />
    <glyph glyph-name="haaini" unicode="&#x62d;" horiz-adv-x="510" arabic-form="initial" 
d="M-9 111l339.998 0.000976562v127c0 12.667 -2.16699 23.167 -6.5 31.5s-10 14.666 -17 18.999s-15 7.33301 -24 9s-17.833 2.5 -26.5 2.5h-63c-9.33301 0 -19.666 -0.5 -30.999 -1.5s-23.166 -2.5 -35.499 -4.5s-24.333 -4.5 -36 -7.5s-22.5 -6.5 -32.5 -10.5v108
c19.333 9.33301 42.5 16.5 69.5 21.5s51.833 7.5 74.5 7.5h63c28 0 53.333 -3 76 -9s42 -15.5 58 -28.5s28.333 -30 37 -51s13 -46.167 13 -75.5v-249h-459v111z" />
    <glyph glyph-name="haamedi" unicode="&#x62d;" horiz-adv-x="530" arabic-form="medial" 
d="M-9 111l339.998 0.000976562v127c0 12.667 -2.16699 23.167 -6.5 31.5s-10 14.666 -17 18.999s-15 7.33301 -24 9s-17.833 2.5 -26.5 2.5h-63c-9.33301 0 -19.666 -0.5 -30.999 -1.5s-23.166 -2.5 -35.499 -4.5s-24.333 -4.5 -36 -7.5s-22.5 -6.5 -32.5 -10.5v108
c19.333 9.33301 42.5 16.5 69.5 21.5s51.833 7.5 74.5 7.5h63c28 0 53.333 -3 76 -9s42 -15.5 58 -28.5s28.333 -30 37 -51s13 -46.167 13 -75.5v-138h89v-111h-548v111z" />
    <glyph glyph-name="khafina" unicode="&#x62e;" horiz-adv-x="621" arabic-form="final" 
d="M630 0l-350.001 -0.000976562c-30 0 -54.833 -4.83301 -74.5 -14.5s-29.5 -21.5 -29.5 -35.5s8.5 -25.167 25.5 -33.5s38.5 -12.5 64.5 -12.5h92v-121h-95c-30.667 0 -58.5 3.83301 -83.5 11.5s-46.333 18.834 -64 33.501s-31.334 32.334 -41.001 53.001
s-14.5 43.667 -14.5 69c0 48 19 86.833 57 116.5s91 44.5 159 44.5h146v127c0 12.667 -2.16699 23.167 -6.5 31.5s-10 14.666 -17 18.999s-15 7.33301 -24 9s-17.833 2.5 -26.5 2.5h-63c-9.33301 0 -19.666 -0.5 -30.999 -1.5s-23.166 -2.5 -35.499 -4.5
s-24.333 -4.5 -36 -7.5s-22.5 -6.5 -32.5 -10.5v108c19.333 9.33301 42.5 16.5 69.5 21.5s51.833 7.5 74.5 7.5h63c28 0 53.333 -3 76 -9s42 -15.5 58 -28.5s28.333 -30 37 -51s13 -46.167 13 -75.5v-138h89v-111zM316.999 487.999c-20 0 -37 7 -51 21s-21 30.667 -21 50
c0 20.667 7 38 21 52s31 21 51 21c19.333 0 36.166 -7 50.499 -21s21.5 -31.333 21.5 -52c0 -19.333 -7.16699 -36 -21.5 -50s-31.166 -21 -50.499 -21z" />
    <glyph glyph-name="khaini" unicode="&#x62e;" horiz-adv-x="510" arabic-form="initial" 
d="M-9 111l339.998 0.000976562v127c0 12.667 -2.16699 23.167 -6.5 31.5s-10 14.666 -17 18.999s-15 7.33301 -24 9s-17.833 2.5 -26.5 2.5h-63c-9.33301 0 -19.666 -0.5 -30.999 -1.5s-23.166 -2.5 -35.499 -4.5s-24.333 -4.5 -36 -7.5s-22.5 -6.5 -32.5 -10.5v108
c19.333 9.33301 42.5 16.5 69.5 21.5s51.833 7.5 74.5 7.5h63c28 0 53.333 -3 76 -9s42 -15.5 58 -28.5s28.333 -30 37 -51s13 -46.167 13 -75.5v-249h-459v111zM226.998 488.001c-20 0 -37 7 -51 21s-21 30.667 -21 50c0 20.667 7 38 21 52s31 21 51 21
c19.333 0 36.166 -7 50.499 -21s21.5 -31.333 21.5 -52c0 -19.333 -7.16699 -36 -21.5 -50s-31.166 -21 -50.499 -21z" />
    <glyph glyph-name="khamedi" unicode="&#x62e;" horiz-adv-x="530" arabic-form="medial" 
d="M-9 111l339.998 0.000976562v127c0 12.667 -2.16699 23.167 -6.5 31.5s-10 14.666 -17 18.999s-15 7.33301 -24 9s-17.833 2.5 -26.5 2.5h-63c-9.33301 0 -19.666 -0.5 -30.999 -1.5s-23.166 -2.5 -35.499 -4.5s-24.333 -4.5 -36 -7.5s-22.5 -6.5 -32.5 -10.5v108
c19.333 9.33301 42.5 16.5 69.5 21.5s51.833 7.5 74.5 7.5h63c28 0 53.333 -3 76 -9s42 -15.5 58 -28.5s28.333 -30 37 -51s13 -46.167 13 -75.5v-138h89v-111h-548v111zM241.998 488.001c-20 0 -37 7 -51 21s-21 30.667 -21 50c0 20.667 7 38 21 52s31 21 51 21
c19.333 0 36.166 -7 50.499 -21s21.5 -31.333 21.5 -52c0 -19.333 -7.16699 -36 -21.5 -50s-31.166 -21 -50.499 -21z" />
    <glyph glyph-name="dalfina" unicode="&#x62f;" horiz-adv-x="493" arabic-form="final" 
d="M40 111l267.998 0.000976562v127c0 12.667 -2.16699 23.167 -6.5 31.5s-10 14.666 -17 18.999s-15 7.33301 -24 9s-17.833 2.5 -26.5 2.5h-25c-9.33301 0 -19.666 -0.5 -30.999 -1.5s-23.166 -2.5 -35.499 -4.5s-24.333 -4.5 -36 -7.5s-22.5 -6.5 -32.5 -10.5v108
c19.333 9.33301 42.5 16.5 69.5 21.5s51.833 7.5 74.5 7.5h25c28 0 53.333 -3 76 -9s42 -15.5 58 -28.5s28.333 -30 37 -51s13 -46.167 13 -75.5v-138h75v-111h-462v111z" />
    <glyph glyph-name="zalfina" unicode="&#x630;" horiz-adv-x="493" arabic-form="final" 
d="M40 111l267.998 0.000976562v127c0 12.667 -2.16699 23.167 -6.5 31.5s-10 14.666 -17 18.999s-15 7.33301 -24 9s-17.833 2.5 -26.5 2.5h-25c-9.33301 0 -19.666 -0.5 -30.999 -1.5s-23.166 -2.5 -35.499 -4.5s-24.333 -4.5 -36 -7.5s-22.5 -6.5 -32.5 -10.5v108
c19.333 9.33301 42.5 16.5 69.5 21.5s51.833 7.5 74.5 7.5h25c28 0 53.333 -3 76 -9s42 -15.5 58 -28.5s28.333 -30 37 -51s13 -46.167 13 -75.5v-138h75v-111h-462v111zM238.998 488.001c-20 0 -37 7 -51 21s-21 30.667 -21 50c0 20.667 7 38 21 52s31 21 51 21
c19.333 0 36.166 -7 50.499 -21s21.5 -31.333 21.5 -52c0 -19.333 -7.16699 -36 -21.5 -50s-31.166 -21 -50.499 -21z" />
    <glyph glyph-name="rafina" unicode="&#x631;" horiz-adv-x="338" arabic-form="final" 
d="M138 413h120.002v-302h89v-111h-89v-68c0 -51.333 -15 -89 -45 -113s-68.667 -36 -116 -36c-15.333 0 -30 1.5 -44 4.5s-26.667 6.5 -38 10.5v101c11.333 -4 22.666 -7.33301 33.999 -10s21.666 -4 30.999 -4c18 0 32.167 4.5 42.5 13.5s15.5 26.167 15.5 51.5v463z" />
    <glyph glyph-name="zafina" unicode="&#x632;" horiz-adv-x="338" arabic-form="final" 
d="M138 413h120.002v-302h89v-111h-89v-68c0 -51.333 -15 -89 -45 -113s-68.667 -36 -116 -36c-15.333 0 -30 1.5 -44 4.5s-26.667 6.5 -38 10.5v101c11.333 -4 22.666 -7.33301 33.999 -10s21.666 -4 30.999 -4c18 0 32.167 4.5 42.5 13.5s15.5 26.167 15.5 51.5v463z
M192.002 488c-20 0 -37 7 -51 21s-21 30.667 -21 50c0 20.667 7 38 21 52s31 21 51 21c19.333 0 36.166 -7 50.499 -21s21.5 -31.333 21.5 -52c0 -19.333 -7.16699 -36 -21.5 -50s-31.166 -21 -50.499 -21z" />
    <glyph glyph-name="seenfina" unicode="&#x633;" horiz-adv-x="1304" arabic-form="final" 
d="M992 0c-32.667 0 -60.998 3.5 -84.998 10.5s-46 15.167 -66 24.5c-13.333 -11.333 -30.666 -20 -51.999 -26s-45 -9 -71 -9c-27.333 0 -54.333 2 -81 6v-153c-17.333 -4 -37.833 -8 -61.5 -12s-47.834 -7.5 -72.501 -10.5s-48.5 -5.5 -71.5 -7.5s-42.5 -3 -58.5 -3
c-35.333 0 -70.333 3.33301 -105 10s-66 18.167 -94 34.5s-50.667 38.666 -68 66.999s-26 64.5 -26 108.5v145h122v-140c0 -22 5.33301 -40 16 -54s24.167 -24.833 40.5 -32.5s34.666 -13 54.999 -16s40.166 -4.5 59.499 -4.5h32.5c13 0 26.167 0.333008 39.5 1
s26.5 1.16699 39.5 1.5s23.833 1.16602 32.5 2.49902v470h120v-294c21.333 -8.66699 46.333 -13 75 -13c45.333 0 68 23.667 68 71v236h121v-244c0 -10.667 -1 -19.667 -3 -27s-4 -13.666 -6 -18.999c10 -5.33301 22.5 -9.5 37.5 -12.5s30.5 -4.5 46.5 -4.5
c23.333 0 40.5 6.83301 51.5 20.5s16.5 32.167 16.5 55.5v231h120v-239c0 -10.667 -1 -19.667 -3 -27s-4 -13.666 -6 -18.999c10 -5.33301 22.5 -9.5 37.5 -12.5s30.5 -4.5 46.5 -4.5h74v-111h-58c-32.667 0 -61 3.5 -85 10.5s-46 15.167 -66 24.5
c-12 -10 -27.833 -18 -47.5 -24s-41.167 -9.66699 -64.5 -11z" />
    <glyph glyph-name="seenini" unicode="&#x633;" horiz-adv-x="830" arabic-form="initial" 
d="M-9 0l-0.00195312 111h39c20 0 37 3.16699 51 9.5s21 19.833 21 40.5v252h120v-252c0 -14.667 -1 -28 -3 -40c10.667 -4.66699 22.834 -8.33398 36.501 -11.001s27.5 -4 41.5 -4c45.333 0 68 23.667 68 71v236h121v-244c0 -10.667 -1 -19.667 -3 -27
s-4 -13.666 -6 -18.999c10 -5.33301 22.5 -9.5 37.5 -12.5s30.5 -4.5 46.5 -4.5c45.333 0 68 23.667 68 71v236h121v-241c0 -32.667 -4 -60 -12 -82s-19.5 -39.667 -34.5 -53s-33.167 -22.833 -54.5 -28.5s-45.333 -8.5 -72 -8.5c-32.667 0 -61 3.5 -85 10.5
s-46 15.167 -66 24.5c-13.333 -11.333 -30.666 -20 -51.999 -26s-45 -9 -71 -9c-51.333 0 -103 7.66699 -155 23c-15.333 -8 -32.833 -13.833 -52.5 -17.5s-41.167 -5.5 -64.5 -5.5h-40z" />
    <glyph glyph-name="seenmedi" unicode="&#x633;" horiz-adv-x="889" arabic-form="medial" 
d="M577 0c-32.667 0 -61.002 3.49902 -85.002 10.499s-46 15.167 -66 24.5c-13.333 -11.333 -30.666 -20 -51.999 -26s-45 -9 -71 -9c-51.333 0 -103 7.66699 -155 23c-15.333 -8 -32.833 -13.833 -52.5 -17.5s-41.167 -5.5 -64.5 -5.5h-40v111h39c20 0 37 3.16699 51 9.5
s21 19.833 21 40.5v252h120v-252c0 -14.667 -1 -28 -3 -40c10.667 -4.66699 22.834 -8.33398 36.501 -11.001s27.5 -4 41.5 -4c45.333 0 68 23.667 68 71v236h121v-244c0 -10.667 -1 -19.667 -3 -27s-4 -13.666 -6 -18.999c10 -5.33301 22.5 -9.5 37.5 -12.5
s30.5 -4.5 46.5 -4.5c23.333 0 40.5 6.83301 51.5 20.5s16.5 32.167 16.5 55.5v231h120v-239c0 -10.667 -1 -19.667 -3 -27s-4 -13.666 -6 -18.999c10 -5.33301 22.5 -9.5 37.5 -12.5s30.5 -4.5 46.5 -4.5h74v-111h-58c-32.667 0 -61 3.5 -85 10.5s-46 15.167 -66 24.5
c-12 -10 -27.833 -18 -47.5 -24s-41.167 -9.66699 -64.5 -11z" />
    <glyph glyph-name="sheenfina" unicode="&#x634;" horiz-adv-x="1304" arabic-form="final" 
d="M992 0c-32.667 0 -60.998 3.5 -84.998 10.5s-46 15.167 -66 24.5c-13.333 -11.333 -30.666 -20 -51.999 -26s-45 -9 -71 -9c-27.333 0 -54.333 2 -81 6v-153c-17.333 -4 -37.833 -8 -61.5 -12s-47.834 -7.5 -72.501 -10.5s-48.5 -5.5 -71.5 -7.5s-42.5 -3 -58.5 -3
c-35.333 0 -70.333 3.33301 -105 10s-66 18.167 -94 34.5s-50.667 38.666 -68 66.999s-26 64.5 -26 108.5v145h122v-140c0 -22 5.33301 -40 16 -54s24.167 -24.833 40.5 -32.5s34.666 -13 54.999 -16s40.166 -4.5 59.499 -4.5h32.5c13 0 26.167 0.333008 39.5 1
s26.5 1.16699 39.5 1.5s23.833 1.16602 32.5 2.49902v470h120v-294c21.333 -8.66699 46.333 -13 75 -13c45.333 0 68 23.667 68 71v236h121v-244c0 -10.667 -1 -19.667 -3 -27s-4 -13.666 -6 -18.999c10 -5.33301 22.5 -9.5 37.5 -12.5s30.5 -4.5 46.5 -4.5
c23.333 0 40.5 6.83301 51.5 20.5s16.5 32.167 16.5 55.5v231h120v-239c0 -10.667 -1 -19.667 -3 -27s-4 -13.666 -6 -18.999c10 -5.33301 22.5 -9.5 37.5 -12.5s30.5 -4.5 46.5 -4.5h74v-111h-58c-32.667 0 -61 3.5 -85 10.5s-46 15.167 -66 24.5
c-12 -10 -27.833 -18 -47.5 -24s-41.167 -9.66699 -64.5 -11zM743.002 465c-20 0 -37 7 -51 21s-21 30.667 -21 50c0 20.667 7 38 21 52s31 21 51 21c19.333 0 36.166 -7 50.499 -21s21.5 -31.333 21.5 -52c0 -19.333 -7.16699 -36 -21.5 -50s-31.166 -21 -50.499 -21z
M923.002 465c-20 0 -37 7 -51 21s-21 30.667 -21 50c0 20.667 7 38 21 52s31 21 51 21c19.333 0 36.166 -7 50.499 -21s21.5 -31.333 21.5 -52c0 -19.333 -7.16699 -36 -21.5 -50s-31.166 -21 -50.499 -21zM837.002 628c-20 0 -37 7 -51 21s-21 30.667 -21 50
c0 20.667 7 38 21 52s31 21 51 21c19.333 0 36.166 -7 50.499 -21s21.5 -31.333 21.5 -52c0 -19.333 -7.16699 -36 -21.5 -50s-31.166 -21 -50.499 -21z" />
    <glyph glyph-name="sheenini" unicode="&#x634;" horiz-adv-x="830" arabic-form="initial" 
d="M-9 0l-0.00195312 111h39c20 0 37 3.16699 51 9.5s21 19.833 21 40.5v252h120v-252c0 -14.667 -1 -28 -3 -40c10.667 -4.66699 22.834 -8.33398 36.501 -11.001s27.5 -4 41.5 -4c45.333 0 68 23.667 68 71v236h121v-244c0 -10.667 -1 -19.667 -3 -27
s-4 -13.666 -6 -18.999c10 -5.33301 22.5 -9.5 37.5 -12.5s30.5 -4.5 46.5 -4.5c45.333 0 68 23.667 68 71v236h121v-241c0 -32.667 -4 -60 -12 -82s-19.5 -39.667 -34.5 -53s-33.167 -22.833 -54.5 -28.5s-45.333 -8.5 -72 -8.5c-32.667 0 -61 3.5 -85 10.5
s-46 15.167 -66 24.5c-13.333 -11.333 -30.666 -20 -51.999 -26s-45 -9 -71 -9c-51.333 0 -103 7.66699 -155 23c-15.333 -8 -32.833 -13.833 -52.5 -17.5s-41.167 -5.5 -64.5 -5.5h-40zM332.998 465c-20 0 -37 7 -51 21s-21 30.667 -21 50c0 20.667 7 38 21 52s31 21 51 21
c19.333 0 36.166 -7 50.499 -21s21.5 -31.333 21.5 -52c0 -19.333 -7.16699 -36 -21.5 -50s-31.166 -21 -50.499 -21zM512.998 465c-20 0 -37 7 -51 21s-21 30.667 -21 50c0 20.667 7 38 21 52s31 21 51 21c19.333 0 36.166 -7 50.499 -21s21.5 -31.333 21.5 -52
c0 -19.333 -7.16699 -36 -21.5 -50s-31.166 -21 -50.499 -21zM426.998 628c-20 0 -37 7 -51 21s-21 30.667 -21 50c0 20.667 7 38 21 52s31 21 51 21c19.333 0 36.166 -7 50.499 -21s21.5 -31.333 21.5 -52c0 -19.333 -7.16699 -36 -21.5 -50s-31.166 -21 -50.499 -21z" />
    </font>
</defs>
</svg>
