<?xml version="1.0" standalone="no"?>
<!DOCTYPE svg PUBLIC "-//W3C//DTD SVG 1.1//EN" "http://www.w3.org/Graphics/SVG/1.1/DTD/svg11.dtd" >
<svg>
<metadata>
Created by FontForge 20090914 at Wed Jun 10 13:21:35 2015
 By www-data
Copyright (c) 2011 by Tarek Atrissi Design. All rights reserved.
</metadata>
<defs>
<font id="Luma-Light" horiz-adv-x="0" >
  <font-face 
    font-family="Luma-Light"
    font-weight="300"
    font-stretch="normal"
    units-per-em="1000"
    panose-1="1 0 5 0 0 0 0 2 0 6"
    ascent="800"
    descent="-200"
    bbox="-126 -489 1270 1015"
    underline-thickness="29"
    underline-position="-451"
    unicode-range="U+0020-U+FEFC"
  />
<missing-glyph horiz-adv-x="500" 
d="M62 0v562h375v-562h-375zM125 62h250v438h-250v-438z" />
    <glyph glyph-name="shaddehdamatan" unicode="&#x64c;&#x651;" arabic-form="isolated" 
d="M70 718c-13.333 2 -22.832 6.66406 -28.499 13.9971s-9.16699 17 -10.5 29l-4 47l27 3l4 -41c2 -20.667 13 -31 33 -31c13.333 0 22.666 4.33301 27.999 13s8 19.667 8 33c0 4.66699 -0.166992 9.66699 -0.5 15s-0.833008 11.333 -1.5 18l30 4
c0.666992 -7.33301 0.833984 -15.666 0.500977 -24.999s0.5 -18.166 2.5 -26.499s5.83301 -15.333 11.5 -21s14.167 -8.5 25.5 -8.5s20.166 3.5 26.499 10.5s9.5 17.167 9.5 30.5c0 5.33301 -0.333008 11.5 -1 18.5s-2 16.833 -4 29.5c7.33301 0.666992 13 1.5 17 2.5
s8.66699 1.83301 14 2.5c0.666992 -7.33301 1.33398 -14.166 2.00098 -20.499s1 -12.5 1 -18.5c0 -23.333 -5.66699 -42 -17 -56s-28 -21 -50 -21c-11.333 0 -20.833 2.16699 -28.5 6.5s-16.5 10.833 -26.5 19.5c-2 -3.33301 -8.83301 -8.83301 -20.5 -16.5
s-24.834 -11.5 -39.501 -11.5c-3.33301 0 -6 0.333008 -8 1zM174.001 909.997c12.667 4.66699 23.666 10.167 32.999 16.5s15.333 14.833 18 25.5c-3.33301 12 -8.66602 22.167 -15.999 30.5s-16 12.5 -26 12.5c-9.33301 0 -17 -3 -23 -9s-9 -14.667 -9 -26
c0 -6 1.5 -13 4.5 -21s9.16699 -17.667 18.5 -29zM26 935.997c4.66699 2 8.49902 3.16992 11.499 3.50293s6.5 1.16602 10.5 2.49902l29 -66l74 24c-7.33301 13.333 -13 24.666 -17 33.999s-6 17.333 -6 24c0 17.333 5.5 31.166 16.5 41.499s23.167 15.5 36.5 15.5
c8.66699 0 16.834 -1.83301 24.501 -5.5s14.5 -8.5 20.5 -14.5s10.833 -12.833 14.5 -20.5s5.5 -15.5 5.5 -23.5c0 -11.333 -5.5 -23 -16.5 -35s-33.167 -23.333 -66.5 -34l-50.5 -16l-50.5 -16z" />
    <glyph glyph-name="shaddehkasratan" unicode="&#x64d;&#x651;" arabic-form="isolated" 
d="M72 887c-13.333 2 -22.832 6.66406 -28.499 13.9971s-9.16699 17 -10.5 29l-4 47l27 3l4 -41c2 -20.667 13 -31 33 -31c13.333 0 22.666 4.33301 27.999 13s8 19.667 8 33c0 4.66699 -0.166992 9.66699 -0.5 15s-0.833008 11.333 -1.5 18l30 4
c0.666992 -7.33301 0.833984 -15.666 0.500977 -24.999s0.5 -18.166 2.5 -26.499s5.83301 -15.333 11.5 -21s14.167 -8.5 25.5 -8.5s20.166 3.5 26.499 10.5s9.5 17.167 9.5 30.5c0 5.33301 -0.333008 11.5 -1 18.5s-2 16.833 -4 29.5c7.33301 0.666992 13 1.5 17 2.5
s8.66699 1.83301 14 2.5c0.666992 -7.33301 1.33398 -14.166 2.00098 -20.499s1 -12.5 1 -18.5c0 -23.333 -5.66699 -42 -17 -56s-28 -21 -50 -21c-11.333 0 -20.833 2.16699 -28.5 6.5s-16.5 10.833 -26.5 19.5c-2 -3.33301 -8.83301 -8.83301 -20.5 -16.5
s-24.834 -11.5 -39.501 -11.5c-3.33301 0 -6 0.333008 -8 1zM28.001 800.997l222 54l6 -23l-223 -54zM31.001 733.997l222 54l6 -23l-223 -54z" />
    <glyph glyph-name="shaddehfatha" unicode="&#x64e;&#x651;" arabic-form="isolated" 
d="M70 718c-13.333 2 -22.832 6.66406 -28.499 13.9971s-9.16699 17 -10.5 29l-4 47l27 3l4 -41c2 -20.667 13 -31 33 -31c13.333 0 22.666 4.33301 27.999 13s8 19.667 8 33c0 4.66699 -0.166992 9.66699 -0.5 15s-0.833008 11.333 -1.5 18l30 4
c0.666992 -7.33301 0.833984 -15.666 0.500977 -24.999s0.5 -18.166 2.5 -26.499s5.83301 -15.333 11.5 -21s14.167 -8.5 25.5 -8.5s20.166 3.5 26.499 10.5s9.5 17.167 9.5 30.5c0 5.33301 -0.333008 11.5 -1 18.5s-2 16.833 -4 29.5c7.33301 0.666992 13 1.5 17 2.5
s8.66699 1.83301 14 2.5c0.666992 -7.33301 1.33398 -14.166 2.00098 -20.499s1 -12.5 1 -18.5c0 -23.333 -5.66699 -42 -17 -56s-28 -21 -50 -21c-11.333 0 -20.833 2.16699 -28.5 6.5s-16.5 10.833 -26.5 19.5c-2 -3.33301 -8.83301 -8.83301 -20.5 -16.5
s-24.834 -11.5 -39.501 -11.5c-3.33301 0 -6 0.333008 -8 1zM26.001 881.997l222 54l6 -23l-223 -54z" />
    <glyph glyph-name="shaddehdamma" unicode="&#x64f;&#x651;" arabic-form="isolated" 
d="M70 718c-13.333 2 -22.832 6.66406 -28.499 13.9971s-9.16699 17 -10.5 29l-4 47l27 3l4 -41c2 -20.667 13 -31 33 -31c13.333 0 22.666 4.33301 27.999 13s8 19.667 8 33c0 4.66699 -0.166992 9.66699 -0.5 15s-0.833008 11.333 -1.5 18l30 4
c0.666992 -7.33301 0.833984 -15.666 0.500977 -24.999s0.5 -18.166 2.5 -26.499s5.83301 -15.333 11.5 -21s14.167 -8.5 25.5 -8.5s20.166 3.5 26.499 10.5s9.5 17.167 9.5 30.5c0 5.33301 -0.333008 11.5 -1 18.5s-2 16.833 -4 29.5c7.33301 0.666992 13 1.5 17 2.5
s8.66699 1.83301 14 2.5c0.666992 -7.33301 1.33398 -14.166 2.00098 -20.499s1 -12.5 1 -18.5c0 -23.333 -5.66699 -42 -17 -56s-28 -21 -50 -21c-11.333 0 -20.833 2.16699 -28.5 6.5s-16.5 10.833 -26.5 19.5c-2 -3.33301 -8.83301 -8.83301 -20.5 -16.5
s-24.834 -11.5 -39.501 -11.5c-3.33301 0 -6 0.333008 -8 1zM47.001 872.997l92 25c-7.33301 13.333 -12.166 24.5 -14.499 33.5s-3.5 17.167 -3.5 24.5c0 17.333 5.5 31 16.5 41s23.167 15 36.5 15c9.33301 0 18.833 -2.66699 28.5 -8s18.167 -13.666 25.5 -24.999
c3.33301 -4.66699 6.16602 -9.83398 8.49902 -15.501s3.5 -11.5 3.5 -17.5c0 -11.333 -5.83301 -23 -17.5 -35s-34.167 -22.667 -67.5 -32l-102 -28zM162.001 905.997c12.667 4.66699 24.8311 9.83301 36.498 15.5s18.834 13.834 21.501 24.501
c-3.33301 12 -9 22.667 -17 32s-17 14 -27 14c-9.33301 0 -17 -3 -23 -9s-9 -14.667 -9 -26c0 -6 0.833008 -13.333 2.5 -22s6.83398 -18.334 15.501 -29.001z" />
    <glyph glyph-name="shaddehkasra" unicode="&#x650;&#x651;" arabic-form="isolated" 
d="M27 734l222 54l6 -23l-223 -54zM70 817c-13.333 2 -22.832 6.66406 -28.499 13.9971s-9.16699 17 -10.5 29l-4 47l27 3l4 -41c2 -20.667 13 -31 33 -31c13.333 0 22.666 4.33301 27.999 13s8 19.667 8 33c0 4.66699 -0.166992 9.66699 -0.5 15s-0.833008 11.333 -1.5 18
l30 4c0.666992 -7.33301 0.833984 -15.666 0.500977 -24.999s0.5 -18.166 2.5 -26.499s5.83301 -15.333 11.5 -21s14.167 -8.5 25.5 -8.5s20.166 3.5 26.499 10.5s9.5 17.167 9.5 30.5c0 5.33301 -0.333008 11.5 -1 18.5s-2 16.833 -4 29.5c7.33301 0.666992 13 1.5 17 2.5
s8.66699 1.83301 14 2.5c0.666992 -7.33301 1.33398 -14.166 2.00098 -20.499s1 -12.5 1 -18.5c0 -23.333 -5.66699 -42 -17 -56s-28 -21 -50 -21c-11.333 0 -20.833 2.16699 -28.5 6.5s-16.5 10.833 -26.5 19.5c-2 -3.33301 -8.83301 -8.83301 -20.5 -16.5
s-24.834 -11.5 -39.501 -11.5c-3.33301 0 -6 0.333008 -8 1z" />
    <glyph glyph-name="lammeeminitial" unicode="&#xfedf;&#xfee4;" horiz-adv-x="810" arabic-form="initial" 
d="M313 385c52 0 91.334 -11.333 118.001 -34s40 -58.667 40 -108v-217h91v-26h-223c-19.333 0 -38.166 1.16699 -56.499 3.5s-35.5 6.5 -51.5 12.5s-29.833 13.833 -41.5 23.5s-20.167 22.167 -25.5 37.5c-14.667 -31.333 -36 -52 -64 -62s-61 -15 -99 -15h-10v26h13
c19.333 0 37.666 1.5 54.999 4.5s32.5 8.66699 45.5 17s23.5 19.833 31.5 34.5s12.333 33.334 13 56.001v121c0 37.333 12.167 67.666 36.5 90.999s57.166 35 98.499 35h29zM291.001 358c-34 0 -61 -8.66504 -81 -25.998s-30 -43 -30 -77v-117
c0.666992 -22.667 5.5 -41.334 14.5 -56.001s20.5 -26.167 34.5 -34.5s30.167 -14 48.5 -17s37.5 -4.5 57.5 -4.5h105v205c0 26 -3.16699 47.333 -9.5 64s-15.333 29.667 -27 39s-25.5 15.666 -41.5 18.999s-34 5 -54 5h-17zM548.001 0.00195312v26h12
c20.667 0 40 1.5 58 4.5s33.667 8.83301 47 17.5s23.833 20.5 31.5 35.5s11.5 34.5 11.5 58.5v538h32v-538c0 -50 -15.667 -86.167 -47 -108.5s-75.333 -33.5 -132 -33.5h-13z" />
    <glyph glyph-name="aleffathatanfina" unicode="&#xfe8e;&#x64b;" horiz-adv-x="248" arabic-form="final" 
d="M249 0c-56.667 0 -100.667 11.167 -132 33.5s-47 58.5 -47 108.5v538h32v-538c0 -24 4 -43.5 12 -58.5s18.833 -26.833 32.5 -35.5s29.5 -14.5 47.5 -17.5s36.667 -4.5 56 -4.5h7v-26h-8zM-11 734l222 54l6 -23l-223 -54zM-14 801l222 54l6 -23l-223 -54z" />
    <glyph glyph-name="aleffathataniso" unicode="&#x627;&#x64b;" horiz-adv-x="192" arabic-form="isolated" 
d="M112 0h-32v680h32v-680zM-14 801l222 54l6 -23l-223 -54zM-11 734l222 54l6 -23l-223 -54z" />
    <glyph glyph-name="lilah" unicode="&#xfedf;&#xfee0;&#x651;&#x670;&#xfeea;" horiz-adv-x="1095" arabic-form="isolated" 
d="M497 0l-224 0.00195312c-29.333 0 -57.5 4 -84.5 12s-50.833 20.167 -71.5 36.5s-37 37.166 -49 62.499s-18 55.333 -18 90c0 60 19.5 107.5 58.5 142.5s96.833 52.5 173.5 52.5c20.667 0 43.667 -2.33301 69 -7s47.333 -10.334 66 -17.001v-346h80v-26zM385 351.002
c-16.667 5.33301 -33.667 9.66797 -51 13.001s-34.666 5 -51.999 5c-70 0 -121 -14.833 -153 -44.5s-48 -70.834 -48 -123.501c0 -54.667 16.667 -97.5 50 -128.5s80.666 -46.5 141.999 -46.5h112v325zM820 0.00390625c-28 0 -56.667 3.5 -86 10.5s-59 16.167 -89 27.5
c-30.667 -25.333 -71 -38 -121 -38h-30v26h30c14.667 0 29.5 1.66699 44.5 5s28.5 9.5 40.5 18.5s21.667 21.5 29 37.5s11 36.333 11 61v532h32v-535c0 -28 -6.33301 -56.333 -19 -85c17.333 -8 40.5 -15.667 69.5 -23s58.5 -11 88.5 -11h20v-26h-20zM833 0.00390625v26h12
c20.667 0 40 1.5 58 4.5s33.667 8.83301 47 17.5s23.833 20.5 31.5 35.5s11.5 34.5 11.5 58.5v538h32v-538c0 -50 -15.667 -86.167 -47 -108.5s-75.333 -33.5 -132 -33.5h-13z" />
    <glyph glyph-name="lamalefmaddaaboveiso" unicode="&#xfedf;&#xfe82;" horiz-adv-x="539" arabic-form="isolated" 
d="M51 0l-0.000976562 25h156v516h31v-516h46c18.667 0 36.834 1.5 54.501 4.5s33.167 8.66699 46.5 17s24 19.833 32 34.5s12 33.667 12 57v542h31v-542c0 -48 -15.333 -83 -46 -105s-73.667 -33 -129 -33h-234zM348.999 679
c-1.33301 -30.667 -8.83301 -53.167 -22.5 -67.5s-32.167 -21.5 -55.5 -21.5c-14.667 0 -27.834 3.83301 -39.501 11.5s-22.834 15.5 -33.501 23.5s-21 15.167 -31 21.5s-20 9.5 -30 9.5c-19.333 0 -33.166 -5.33301 -41.499 -16s-13.166 -26.667 -14.499 -48h-24
c1.33301 30.667 8.83301 53.167 22.5 67.5s32.167 21.5 55.5 21.5c14 0 27 -3.66699 39 -11s23.333 -15.333 34 -24c10.667 -8 21 -15.333 31 -22s20 -10 30 -10c19.333 0 32.833 5.5 40.5 16.5s12.167 27.167 13.5 48.5h26z" />
    <glyph glyph-name="lamalefmaddaabovefina" unicode="&#xfee0;&#xfe82;" horiz-adv-x="618" arabic-form="final" 
d="M607 0c-27.333 0 -55.665 3.5 -84.998 10.5s-59 16.167 -89 27.5c-30.667 -25.333 -71.334 -38 -122.001 -38h-261v26h160v515h32v-515h69c19.333 0 36.666 1.66699 51.999 5s28.5 9.5 39.5 18.5s19.5 21.5 25.5 37.5s9 36.333 9 61v532h32v-535
c0 -14 -1.33301 -28.5 -4 -43.5s-7.66699 -28.833 -15 -41.5c17.333 -8 40.333 -15.667 69 -23s58 -11 88 -11h20v-26h-20zM373.001 679c-1.33301 -30.667 -8.83301 -53.167 -22.5 -67.5s-32.167 -21.5 -55.5 -21.5c-14.667 0 -27.834 3.83301 -39.501 11.5
s-22.834 15.5 -33.501 23.5s-21 15.167 -31 21.5s-20 9.5 -30 9.5c-19.333 0 -33.166 -5.33301 -41.499 -16s-13.166 -26.667 -14.499 -48h-24c1.33301 30.667 8.83301 53.167 22.5 67.5s32.167 21.5 55.5 21.5c14 0 27 -3.66699 39 -11s23.333 -15.333 34 -24
c10.667 -8 21 -15.333 31 -22s20 -10 30 -10c19.333 0 32.833 5.5 40.5 16.5s12.167 27.167 13.5 48.5h26z" />
    <glyph glyph-name="lamalefhamzaaboveiso" unicode="&#xfedf;&#xfe84;" horiz-adv-x="539" arabic-form="isolated" 
d="M51 0l-0.000976562 25h156v516h31v-516h46c18.667 0 36.834 1.5 54.501 4.5s33.167 8.66699 46.5 17s24 19.833 32 34.5s12 33.667 12 57v542h31v-542c0 -48 -15.333 -83 -46 -105s-73.667 -33 -129 -33h-234zM148.999 623h51.998c-6 13.333 -10 24.666 -12 33.999
s-3 16.666 -3 21.999c0 28 8.33301 48 25 60s35.667 18 57 18c6.66699 0 14 -1.16699 22 -3.5s15.667 -5.16602 23 -8.49902v-22c-9.33301 5.33301 -17.166 8.5 -23.499 9.5s-13.166 1.5 -20.499 1.5c-17.333 0 -31 -4 -41 -12s-15 -23 -15 -45
c0 -7.33301 2 -16.166 6 -26.499s9.66699 -19.5 17 -27.5h77v-24h-164v24z" />
    <glyph glyph-name="lamalefhamzaabovefina" unicode="&#xfee0;&#xfe84;" horiz-adv-x="618" arabic-form="final" 
d="M607 0c-27.333 0 -55.665 3.5 -84.998 10.5s-59 16.167 -89 27.5c-30.667 -25.333 -71.334 -38 -122.001 -38h-261v26h160v515h32v-515h69c19.333 0 36.666 1.66699 51.999 5s28.5 9.5 39.5 18.5s19.5 21.5 25.5 37.5s9 36.333 9 61v532h32v-535
c0 -14 -1.33301 -28.5 -4 -43.5s-7.66699 -28.833 -15 -41.5c17.333 -8 40.333 -15.667 69 -23s58 -11 88 -11h20v-26h-20zM149.001 623h51.998c-6 13.333 -10 24.666 -12 33.999s-3 16.666 -3 21.999c0 28 8.33301 48 25 60s35.667 18 57 18c6.66699 0 14 -1.16699 22 -3.5
s15.667 -5.16602 23 -8.49902v-22c-9.33301 5.33301 -17.166 8.5 -23.499 9.5s-13.166 1.5 -20.499 1.5c-17.333 0 -31 -4 -41 -12s-15 -23 -15 -45c0 -7.33301 2 -16.166 6 -26.499s9.66699 -19.5 17 -27.5h77v-24h-164v24z" />
    <glyph glyph-name="lamalefhamzabelowiso" unicode="&#xfedf;&#xfe88;" horiz-adv-x="539" arabic-form="isolated" 
d="M51 0l-0.000976562 25h156v516h31v-516h46c18.667 0 36.834 1.5 54.501 4.5s33.167 8.66699 46.5 17s24 19.833 32 34.5s12 33.667 12 57v542h31v-542c0 -48 -15.333 -83 -46 -105s-73.667 -33 -129 -33h-234zM119.999 -193h51.998c-6 13.333 -10 24.666 -12 33.999
s-3 16.666 -3 21.999c0 28 8.33301 48 25 60s35.667 18 57 18c6.66699 0 14 -1.16699 22 -3.5s15.667 -5.16602 23 -8.49902v-22c-9.33301 5.33301 -17.166 8.5 -23.499 9.5s-13.166 1.5 -20.499 1.5c-17.333 0 -31 -4 -41 -12s-15 -23 -15 -45
c0 -7.33301 2 -16.166 6 -26.499s9.66699 -19.5 17 -27.5h77v-24h-164v24z" />
    <glyph glyph-name="lamalefhamzabelowfina" unicode="&#xfee0;&#xfe88;" horiz-adv-x="618" arabic-form="final" 
d="M607 0c-27.333 0 -55.665 3.5 -84.998 10.5s-59 16.167 -89 27.5c-30.667 -25.333 -71.334 -38 -122.001 -38h-261v26h160v515h32v-515h69c19.333 0 36.666 1.66699 51.999 5s28.5 9.5 39.5 18.5s19.5 21.5 25.5 37.5s9 36.333 9 61v532h32v-535
c0 -14 -1.33301 -28.5 -4 -43.5s-7.66699 -28.833 -15 -41.5c17.333 -8 40.333 -15.667 69 -23s58 -11 88 -11h20v-26h-20zM120.001 -193h51.998c-6 13.333 -10 24.666 -12 33.999s-3 16.666 -3 21.999c0 28 8.33301 48 25 60s35.667 18 57 18
c6.66699 0 14 -1.16699 22 -3.5s15.667 -5.16602 23 -8.49902v-22c-9.33301 5.33301 -17.166 8.5 -23.499 9.5s-13.166 1.5 -20.499 1.5c-17.333 0 -31 -4 -41 -12s-15 -23 -15 -45c0 -7.33301 2 -16.166 6 -26.499s9.66699 -19.5 17 -27.5h77v-24h-164v24z" />
    <glyph glyph-name="lamalefiso" unicode="&#xfedf;&#xfe8e;" horiz-adv-x="552" arabic-form="isolated" 
d="M73 0l-0.000976562 25h156v516h31v-516h46c18.667 0 36.834 1.5 54.501 4.5s33.167 8.66699 46.5 17s24 19.833 32 34.5s12 33.667 12 57v542h31v-542c0 -48 -15.333 -83 -46 -105s-73.667 -33 -129 -33h-234z" />
    <glyph glyph-name="lamaleffina" unicode="&#xfee0;&#xfe8e;" horiz-adv-x="618" arabic-form="final" 
d="M607 0c-27.333 0 -55.665 3.5 -84.998 10.5s-59 16.167 -89 27.5c-30.667 -25.333 -71.334 -38 -122.001 -38h-261v26h160v515h32v-515h69c19.333 0 36.666 1.66699 51.999 5s28.5 9.5 39.5 18.5s19.5 21.5 25.5 37.5s9 36.333 9 61v532h32v-535
c0 -14 -1.33301 -28.5 -4 -43.5s-7.66699 -28.833 -15 -41.5c17.333 -8 40.333 -15.667 69 -23s58 -11 88 -11h20v-26h-20z" />
    <glyph glyph-name="shaddahfathatan" unicode="&#x64b;&#x651;" 
d="M70 718c-13.333 2 -22.832 6.66406 -28.499 13.9971s-9.16699 17 -10.5 29l-4 47l27 3l4 -41c2 -20.667 13 -31 33 -31c13.333 0 22.666 4.33301 27.999 13s8 19.667 8 33c0 4.66699 -0.166992 9.66699 -0.5 15s-0.833008 11.333 -1.5 18l30 4
c0.666992 -7.33301 0.833984 -15.666 0.500977 -24.999s0.5 -18.166 2.5 -26.499s5.83301 -15.333 11.5 -21s14.167 -8.5 25.5 -8.5s20.166 3.5 26.499 10.5s9.5 17.167 9.5 30.5c0 5.33301 -0.333008 11.5 -1 18.5s-2 16.833 -4 29.5c7.33301 0.666992 13 1.5 17 2.5
s8.66699 1.83301 14 2.5c0.666992 -7.33301 1.33398 -14.166 2.00098 -20.499s1 -12.5 1 -18.5c0 -23.333 -5.66699 -42 -17 -56s-28 -21 -50 -21c-11.333 0 -20.833 2.16699 -28.5 6.5s-16.5 10.833 -26.5 19.5c-2 -3.33301 -8.83301 -8.83301 -20.5 -16.5
s-24.834 -11.5 -39.501 -11.5c-3.33301 0 -6 0.333008 -8 1z" />
    <glyph glyph-name="hamza" unicode="&#x621;" horiz-adv-x="475" arabic-form="isolated" 
d="M432 0l-341 0.00195312v27h107c-20 32.667 -32.167 66.167 -36.5 100.5s-0.833008 65.666 10.5 93.999s30.5 51.666 57.5 69.999s61.833 27.5 104.5 27.5c18 0 35.167 -2 51.5 -6s31.833 -9 46.5 -15v-32c-34 15.333 -65.667 23 -95 23c-36.667 0 -66.5 -8 -89.5 -24
s-38.833 -36.5 -47.5 -61.5s-10.167 -53.167 -4.5 -84.5s19.167 -62 40.5 -92h196v-27z" />
    <glyph glyph-name="alefmaddaaboveiso" unicode="&#x622;" horiz-adv-x="192" arabic-form="isolated" 
d="M112 0h-32v680h32v-680zM245 801c-1.33301 -30.667 -8.83301 -53.167 -22.5 -67.5s-32.167 -21.5 -55.5 -21.5c-14.667 0 -27.834 3.83301 -39.501 11.5s-22.834 15.5 -33.501 23.5s-21 15.167 -31 21.5s-20 9.5 -30 9.5c-19.333 0 -33.166 -5.33301 -41.499 -16
s-13.166 -26.667 -14.499 -48h-24c1.33301 30.667 8.83301 53.167 22.5 67.5s32.167 21.5 55.5 21.5c14 0 27 -3.66699 39 -11s23.333 -15.333 34 -24c10.667 -8 21 -15.333 31 -22s20 -10 30 -10c19.333 0 32.833 5.5 40.5 16.5s12.167 27.167 13.5 48.5h26z" />
    <glyph glyph-name="alefhamzaaboveiso" unicode="&#x623;" horiz-adv-x="192" arabic-form="isolated" 
d="M112 0h-32v680h32v-680zM9 736h51.998c-6 13.333 -10 24.666 -12 33.999s-3 16.666 -3 21.999c0 28 8.33301 48 25 60s35.667 18 57 18c6.66699 0 14 -1.16699 22 -3.5s15.667 -5.16602 23 -8.49902v-22c-9.33301 5.33301 -17.166 8.5 -23.499 9.5
s-13.166 1.5 -20.499 1.5c-17.333 0 -31 -4 -41 -12s-15 -23 -15 -45c0 -7.33301 2 -16.166 6 -26.499s9.66699 -19.5 17 -27.5h77v-24h-164v24z" />
    <glyph glyph-name="wawhamzaiso" unicode="&#x624;" horiz-adv-x="498" arabic-form="isolated" 
d="M418 -36c0 -32.667 -5.66895 -60.501 -17.002 -83.501s-26.333 -41.667 -45 -56s-39.667 -24.833 -63 -31.5s-47.333 -10 -72 -10c-25.333 0 -49 2.16699 -71 6.5s-41 9.83301 -57 16.5v26c18.667 -7.33301 39.167 -13.333 61.5 -18s44.5 -7 66.5 -7
c20.667 0 40.834 2.66699 60.501 8s37.334 14.5 53.001 27.5s28.167 30.333 37.5 52s14 48.5 14 80.5v25h-112c-29.333 0 -57.5 3.83301 -84.5 11.5s-50.833 19.834 -71.5 36.501s-37.167 37.5 -49.5 62.5s-18.5 55.167 -18.5 90.5c0 62.667 19.5 110.834 58.5 144.501
s96.833 50.5 173.5 50.5c21.333 0 44.5 -2.33301 69.5 -7s47.167 -10.334 66.5 -17.001v-408zM385.998 350.999c-16.667 5.33301 -33.667 9.66797 -51 13.001s-35 5 -53 5c-70 0 -120.833 -14.833 -152.5 -44.5s-47.5 -70.834 -47.5 -123.501
c0 -54.667 16.5 -97.5 49.5 -128.5s80.5 -46.5 142.5 -46.5h112v325zM161.998 495.001h51.998c-6 13.333 -10 24.666 -12 33.999s-3 16.666 -3 21.999c0 28 8.33301 48 25 60s35.667 18 57 18c6.66699 0 14 -1.16699 22 -3.5s15.667 -5.16602 23 -8.49902v-22
c-9.33301 5.33301 -17.166 8.5 -23.499 9.5s-13.166 1.5 -20.499 1.5c-17.333 0 -31 -4 -41 -12s-15 -23 -15 -45c0 -7.33301 2 -16.166 6 -26.499s9.66699 -19.5 17 -27.5h77v-24h-164v24z" />
    <glyph glyph-name="alefhamzabelowiso" unicode="&#x625;" horiz-adv-x="192" arabic-form="isolated" 
d="M112 0h-32v680h32v-680zM4 -193h51.998c-6 13.333 -10 24.666 -12 33.999s-3 16.666 -3 21.999c0 28 8.33301 48 25 60s35.667 18 57 18c6.66699 0 14 -1.16699 22 -3.5s15.667 -5.16602 23 -8.49902v-22c-9.33301 5.33301 -17.166 8.5 -23.499 9.5
s-13.166 1.5 -20.499 1.5c-17.333 0 -31 -4 -41 -12s-15 -23 -15 -45c0 -7.33301 2 -16.166 6 -26.499s9.66699 -19.5 17 -27.5h77v-24h-164v24z" />
    <glyph glyph-name="hamzakirsehiso" unicode="&#x626;" horiz-adv-x="694" arabic-form="isolated" 
d="M293 -71c-37.333 0 -71.0029 2.99805 -101.003 8.99805s-55.5 16.5 -76.5 31.5s-37.167 35.5 -48.5 61.5s-17 59 -17 99v97h32v-92c0 -37.333 5.33301 -67.666 16 -90.999s25.334 -41.5 44.001 -54.5s40.834 -22 66.501 -27s53.834 -7.5 84.501 -7.5h96
c24 0 49.167 1 75.5 3s50.5 6.5 72.5 13.5s40.167 17.167 54.5 30.5s21.5 31.333 21.5 54c0 16 -2.16699 29.5 -6.5 40.5s-11.5 20.5 -21.5 28.5s-22.833 15 -38.5 21s-34.834 12.667 -57.501 20c-35.333 12.667 -62 28 -80 46s-27 43 -27 75c0 36 12.333 63.333 37 82
s55.667 28 93 28c20.667 0 40.334 -1.83301 59.001 -5.5s36 -11.167 52 -22.5v-27c-16 11.333 -32.5 19 -49.5 23s-37.5 6 -61.5 6c-30.667 0 -55 -7.16699 -73 -21.5s-27 -35.166 -27 -62.499c0 -25.333 8.16699 -45.5 24.5 -60.5s44.5 -28.833 84.5 -41.5
c18 -5.33301 34.667 -11.333 50 -18s28.333 -14.834 39 -24.501s19 -21 25 -34s9 -28.833 9 -47.5c0 -29.333 -8.16699 -52.666 -24.5 -69.999s-37 -30.5 -62 -39.5s-52.333 -15 -82 -18s-58.167 -4.5 -85.5 -4.5h-97zM77.9971 370.998h51.998
c-6 13.333 -10 24.666 -12 33.999s-3 16.666 -3 21.999c0 28 8.33301 48 25 60s35.667 18 57 18c6.66699 0 14 -1.16699 22 -3.5s15.667 -5.16602 23 -8.49902v-22c-9.33301 5.33301 -17.166 8.5 -23.499 9.5s-13.166 1.5 -20.499 1.5c-17.333 0 -31 -4 -41 -12
s-15 -23 -15 -45c0 -7.33301 2 -16.166 6 -26.499s9.66699 -19.5 17 -27.5h77v-24h-164v24z" />
    <glyph glyph-name="alefiso" unicode="&#x627;" horiz-adv-x="192" arabic-form="isolated" 
d="M112 0h-32v680h32v-680z" />
    <glyph glyph-name="behiso" unicode="&#x628;" horiz-adv-x="791" arabic-form="isolated" 
d="M228 0c-56.667 0 -100.501 11.167 -131.501 33.5s-46.5 58.5 -46.5 108.5v253h32v-253c0 -24 4 -43.5 12 -58.5s18.833 -26.833 32.5 -35.5s29.5 -14.5 47.5 -17.5s36.667 -4.5 56 -4.5h302c19.333 0 37.833 1.5 55.5 4.5s33.334 8.83301 47.001 17.5
s24.667 20.5 33 35.5s12.5 34.5 12.5 58.5v253h31v-253c0 -50 -15.5 -86.167 -46.5 -108.5s-74.833 -33.5 -131.5 -33.5h-305zM390.999 -149c-7.33301 0 -13.666 2.5 -18.999 7.5s-8 11.5 -8 19.5s2.66699 14.5 8 19.5s11.666 7.5 18.999 7.5s13.666 -2.5 18.999 -7.5
s8 -11.5 8 -19.5s-2.66699 -14.5 -8 -19.5s-11.666 -7.5 -18.999 -7.5z" />
    <glyph glyph-name="tehmarboutaiso" unicode="&#x629;" horiz-adv-x="477" arabic-form="isolated" 
d="M385 351c-16.667 5.33301 -33.667 9.66797 -51 13.001s-34.666 5 -51.999 5c-70 0 -121 -14.833 -153 -44.5s-48 -70.834 -48 -123.501c0 -54.667 16.667 -97.5 50 -128.5s80.666 -46.5 141.999 -46.5h112v325zM417 0.00195312l-144 0.00195312
c-29.333 0 -57.5 4 -84.5 12s-50.833 20.167 -71.5 36.5s-37 37.166 -49 62.499s-18 55.333 -18 90c0 60 19.5 107.5 58.5 142.5s96.833 52.5 173.5 52.5c20.667 0 43.667 -2.33301 69 -7s47.333 -10.334 66 -17.001v-372zM216 489.004c-7.33301 0 -13.666 2.5 -18.999 7.5
s-8 11.5 -8 19.5s2.66699 14.5 8 19.5s11.666 7.5 18.999 7.5s13.666 -2.5 18.999 -7.5s8 -11.5 8 -19.5s-2.66699 -14.5 -8 -19.5s-11.666 -7.5 -18.999 -7.5zM301 489.004c-7.33301 0 -13.666 2.5 -18.999 7.5s-8 11.5 -8 19.5s2.66699 14.5 8 19.5s11.666 7.5 18.999 7.5
s13.666 -2.5 18.999 -7.5s8 -11.5 8 -19.5s-2.66699 -14.5 -8 -19.5s-11.666 -7.5 -18.999 -7.5z" />
    <glyph glyph-name="taiso" unicode="&#x62a;" horiz-adv-x="791" arabic-form="isolated" 
d="M228 0c-56.667 0 -100.501 11.167 -131.501 33.5s-46.5 58.5 -46.5 108.5v253h32v-253c0 -24 4 -43.5 12 -58.5s18.833 -26.833 32.5 -35.5s29.5 -14.5 47.5 -17.5s36.667 -4.5 56 -4.5h302c19.333 0 37.833 1.5 55.5 4.5s33.334 8.83301 47.001 17.5
s24.667 20.5 33 35.5s12.5 34.5 12.5 58.5v253h31v-253c0 -50 -15.5 -86.167 -46.5 -108.5s-74.833 -33.5 -131.5 -33.5h-305zM333.999 489c-7.33301 0 -13.666 2.5 -18.999 7.5s-8 11.5 -8 19.5s2.66699 14.5 8 19.5s11.666 7.5 18.999 7.5s13.666 -2.5 18.999 -7.5
s8 -11.5 8 -19.5s-2.66699 -14.5 -8 -19.5s-11.666 -7.5 -18.999 -7.5zM418.999 489c-7.33301 0 -13.666 2.5 -18.999 7.5s-8 11.5 -8 19.5s2.66699 14.5 8 19.5s11.666 7.5 18.999 7.5s13.666 -2.5 18.999 -7.5s8 -11.5 8 -19.5s-2.66699 -14.5 -8 -19.5
s-11.666 -7.5 -18.999 -7.5z" />
    <glyph glyph-name="thaiso" unicode="&#x62b;" horiz-adv-x="791" arabic-form="isolated" 
d="M228 0c-56.667 0 -100.501 11.167 -131.501 33.5s-46.5 58.5 -46.5 108.5v253h32v-253c0 -24 4 -43.5 12 -58.5s18.833 -26.833 32.5 -35.5s29.5 -14.5 47.5 -17.5s36.667 -4.5 56 -4.5h302c19.333 0 37.833 1.5 55.5 4.5s33.334 8.83301 47.001 17.5
s24.667 20.5 33 35.5s12.5 34.5 12.5 58.5v253h31v-253c0 -50 -15.5 -86.167 -46.5 -108.5s-74.833 -33.5 -131.5 -33.5h-305zM319.999 489c-7.33301 0 -13.666 2.5 -18.999 7.5s-8 11.5 -8 19.5s2.66699 14.5 8 19.5s11.666 7.5 18.999 7.5s13.666 -2.5 18.999 -7.5
s8 -11.5 8 -19.5s-2.66699 -14.5 -8 -19.5s-11.666 -7.5 -18.999 -7.5zM404.999 489c-7.33301 0 -13.666 2.5 -18.999 7.5s-8 11.5 -8 19.5s2.66699 14.5 8 19.5s11.666 7.5 18.999 7.5s13.666 -2.5 18.999 -7.5s8 -11.5 8 -19.5s-2.66699 -14.5 -8 -19.5
s-11.666 -7.5 -18.999 -7.5zM364.999 569c-7.33301 0 -13.666 2.5 -18.999 7.5s-8 11.5 -8 19.5s2.66699 14.5 8 19.5s11.666 7.5 18.999 7.5s13.666 -2.5 18.999 -7.5s8 -11.5 8 -19.5s-2.66699 -14.5 -8 -19.5s-11.666 -7.5 -18.999 -7.5z" />
    <glyph glyph-name="jeemiso" unicode="&#x62c;" horiz-adv-x="554" arabic-form="isolated" 
d="M274 0c-26.667 0 -51.1699 -1.16504 -73.5029 -3.49805s-41.5 -6.83301 -57.5 -13.5s-28.5 -15.834 -37.5 -27.501s-13.5 -26.5 -13.5 -44.5c0 -18.667 4.16699 -34.5 12.5 -47.5s19.833 -23.5 34.5 -31.5s32 -13.833 52 -17.5s42 -5.5 66 -5.5h58v-26h-61
c-58 0 -104.833 10.333 -140.5 31s-53.5 53 -53.5 97c0 38.667 18.167 67.5 54.5 86.5s94.5 28.5 174.5 28.5h173v210c0 26.667 -4.33301 48.667 -13 66s-20 30.666 -34 39.999s-29.667 15.833 -47 19.5s-34.666 5.5 -51.999 5.5h-58c-21.333 0 -41.166 -1.5 -59.499 -4.5
s-35.166 -6.83301 -50.499 -11.5v25c16.667 5.33301 35.5 9.83301 56.5 13.5s42.167 5.5 63.5 5.5h59c51.333 0 92 -11.333 122 -34s45 -60 45 -112v-249h-220zM418.997 -148.998c-7.33301 0 -13.666 2.5 -18.999 7.5s-8 11.5 -8 19.5s2.66699 14.5 8 19.5
s11.666 7.5 18.999 7.5s13.666 -2.5 18.999 -7.5s8 -11.5 8 -19.5s-2.66699 -14.5 -8 -19.5s-11.666 -7.5 -18.999 -7.5z" />
    <glyph glyph-name="haaiso" unicode="&#x62d;" horiz-adv-x="554" arabic-form="isolated" 
d="M274 0c-26.667 0 -51.1699 -1.16504 -73.5029 -3.49805s-41.5 -6.83301 -57.5 -13.5s-28.5 -15.834 -37.5 -27.501s-13.5 -26.5 -13.5 -44.5c0 -18.667 4.16699 -34.5 12.5 -47.5s19.833 -23.5 34.5 -31.5s32 -13.833 52 -17.5s42 -5.5 66 -5.5h58v-26h-61
c-58 0 -104.833 10.333 -140.5 31s-53.5 53 -53.5 97c0 38.667 18.167 67.5 54.5 86.5s94.5 28.5 174.5 28.5h173v210c0 26.667 -4.33301 48.667 -13 66s-20 30.666 -34 39.999s-29.667 15.833 -47 19.5s-34.666 5.5 -51.999 5.5h-58c-21.333 0 -41.166 -1.5 -59.499 -4.5
s-35.166 -6.83301 -50.499 -11.5v25c16.667 5.33301 35.5 9.83301 56.5 13.5s42.167 5.5 63.5 5.5h59c51.333 0 92 -11.333 122 -34s45 -60 45 -112v-249h-220z" />
    <glyph glyph-name="khaiso" unicode="&#x62e;" horiz-adv-x="554" arabic-form="isolated" 
d="M274 0c-26.667 0 -51.1699 -1.16504 -73.5029 -3.49805s-41.5 -6.83301 -57.5 -13.5s-28.5 -15.834 -37.5 -27.501s-13.5 -26.5 -13.5 -44.5c0 -18.667 4.16699 -34.5 12.5 -47.5s19.833 -23.5 34.5 -31.5s32 -13.833 52 -17.5s42 -5.5 66 -5.5h58v-26h-61
c-58 0 -104.833 10.333 -140.5 31s-53.5 53 -53.5 97c0 38.667 18.167 67.5 54.5 86.5s94.5 28.5 174.5 28.5h173v210c0 26.667 -4.33301 48.667 -13 66s-20 30.666 -34 39.999s-29.667 15.833 -47 19.5s-34.666 5.5 -51.999 5.5h-58c-21.333 0 -41.166 -1.5 -59.499 -4.5
s-35.166 -6.83301 -50.499 -11.5v25c16.667 5.33301 35.5 9.83301 56.5 13.5s42.167 5.5 63.5 5.5h59c51.333 0 92 -11.333 122 -34s45 -60 45 -112v-249h-220zM294.997 489.002c-7.33301 0 -13.666 2.5 -18.999 7.5s-8 11.5 -8 19.5s2.66699 14.5 8 19.5
s11.666 7.5 18.999 7.5s13.666 -2.5 18.999 -7.5s8 -11.5 8 -19.5s-2.66699 -14.5 -8 -19.5s-11.666 -7.5 -18.999 -7.5z" />
    <glyph glyph-name="daliso" unicode="&#x62f;" horiz-adv-x="461" arabic-form="isolated" 
d="M40 26l328.999 0.000976562v210c0 26.667 -4.33301 48.667 -13 66s-20 30.666 -34 39.999s-29.667 15.833 -47 19.5s-34.666 5.5 -51.999 5.5c-16 0 -37 -1.83301 -63 -5.5s-50.667 -8.16699 -74 -13.5v28c22 5.33301 45.333 9.83301 70 13.5s48.667 5.5 72 5.5
c54 0 96.333 -11.333 127 -34s46 -60 46 -112v-249h-361v26z" />
    <glyph glyph-name="zaliso" unicode="&#x630;" horiz-adv-x="461" arabic-form="isolated" 
d="M40 26l328.999 0.000976562v210c0 26.667 -4.33301 48.667 -13 66s-20 30.666 -34 39.999s-29.667 15.833 -47 19.5s-34.666 5.5 -51.999 5.5c-16 0 -37 -1.83301 -63 -5.5s-50.667 -8.16699 -74 -13.5v28c22 5.33301 45.333 9.83301 70 13.5s48.667 5.5 72 5.5
c54 0 96.333 -11.333 127 -34s46 -60 46 -112v-249h-361v26zM231.999 489.001c-7.33301 0 -13.666 2.5 -18.999 7.5s-8 11.5 -8 19.5s2.66699 14.5 8 19.5s11.666 7.5 18.999 7.5s13.666 -2.5 18.999 -7.5s8 -11.5 8 -19.5s-2.66699 -14.5 -8 -19.5
s-11.666 -7.5 -18.999 -7.5z" />
    <glyph glyph-name="raiso" unicode="&#x631;" horiz-adv-x="273" arabic-form="isolated" 
d="M161 395l31.999 -0.000976562v-503c0 -40 -9.66699 -71.333 -29 -94s-51 -34 -95 -34c-19.333 0 -37.333 3 -54 9v23c8.66699 -3.33301 17.334 -5.66602 26.001 -6.99902s18 -2 28 -2c27.333 0 49.5 8 66.5 24s25.5 44.667 25.5 86v498z" />
    <glyph glyph-name="zaiso" unicode="&#x632;" horiz-adv-x="273" arabic-form="isolated" 
d="M161 395l31.999 -0.000976562v-503c0 -40 -9.66699 -71.333 -29 -94s-51 -34 -95 -34c-19.333 0 -37.333 3 -54 9v23c8.66699 -3.33301 17.334 -5.66602 26.001 -6.99902s18 -2 28 -2c27.333 0 49.5 8 66.5 24s25.5 44.667 25.5 86v498zM174.999 488.999
c-7.33301 0 -13.666 2.5 -18.999 7.5s-8 11.5 -8 19.5s2.66699 14.5 8 19.5s11.666 7.5 18.999 7.5s13.666 -2.5 18.999 -7.5s8 -11.5 8 -19.5s-2.66699 -14.5 -8 -19.5s-11.666 -7.5 -18.999 -7.5z" />
    <glyph glyph-name="seeniso" unicode="&#x633;" horiz-adv-x="1203" arabic-form="isolated" 
d="M520 26l0.000976562 -123.001c-16 -3.33301 -33.833 -6.66602 -53.5 -9.99902s-39.667 -6.33301 -60 -9s-40.333 -4.83398 -60 -6.50098s-37.5 -2.5 -53.5 -2.5c-33.333 0 -64.666 2.5 -93.999 7.5s-55 14.667 -77 29s-39.5 34 -52.5 59s-19.5 57.5 -19.5 97.5v97h32v-92
c0 -37.333 5.33301 -67.166 16 -89.499s25.334 -39.5 44.001 -51.5s41 -20 67 -24s54 -6 84 -6c14 0 29.833 0.5 47.5 1.5s35.667 2.5 54 4.5s35.666 4.16699 51.999 6.5s30.166 4.83301 41.499 7.5v473h32v-343c18 -7.33301 39.167 -13.5 63.5 -18.5
s49.166 -7.5 74.499 -7.5c15.333 0 30.5 1.66699 45.5 5s28.5 9.5 40.5 18.5s21.667 21.5 29 37.5s11 36.333 11 61v247h32v-250c0 -14 -1.83301 -28.333 -5.5 -43s-8.16699 -28.667 -13.5 -42c17.333 -8 40.5 -15.667 69.5 -23s58.167 -11 87.5 -11c20 0 38.333 1.5 55 4.5
s31 8.83301 43 17.5s21.5 20.5 28.5 35.5s10.5 34.5 10.5 58.5v253h32v-253c0 -50 -13.833 -86.167 -41.5 -108.5s-69.834 -33.5 -126.501 -33.5h-1c-27.333 0 -55.666 3.5 -84.999 10.5s-59 16.167 -89 27.5c-30.667 -25.333 -71.334 -38 -122.001 -38
c-22 -0 -44.667 2.33301 -68 7s-46.666 11 -69.999 19z" />
    <glyph glyph-name="sheeniso" unicode="&#x634;" horiz-adv-x="1203" arabic-form="isolated" 
d="M520 26l0.000976562 -123.001c-16 -3.33301 -33.833 -6.66602 -53.5 -9.99902s-39.667 -6.33301 -60 -9s-40.333 -4.83398 -60 -6.50098s-37.5 -2.5 -53.5 -2.5c-33.333 0 -64.666 2.5 -93.999 7.5s-55 14.667 -77 29s-39.5 34 -52.5 59s-19.5 57.5 -19.5 97.5v97h32v-92
c0 -37.333 5.33301 -67.166 16 -89.499s25.334 -39.5 44.001 -51.5s41 -20 67 -24s54 -6 84 -6c14 0 29.833 0.5 47.5 1.5s35.667 2.5 54 4.5s35.666 4.16699 51.999 6.5s30.166 4.83301 41.499 7.5v473h32v-343c18 -7.33301 39.167 -13.5 63.5 -18.5
s49.166 -7.5 74.499 -7.5c15.333 0 30.5 1.66699 45.5 5s28.5 9.5 40.5 18.5s21.667 21.5 29 37.5s11 36.333 11 61v247h32v-250c0 -14 -1.83301 -28.333 -5.5 -43s-8.16699 -28.667 -13.5 -42c17.333 -8 40.5 -15.667 69.5 -23s58.167 -11 87.5 -11c20 0 38.333 1.5 55 4.5
s31 8.83301 43 17.5s21.5 20.5 28.5 35.5s10.5 34.5 10.5 58.5v253h32v-253c0 -50 -13.833 -86.167 -41.5 -108.5s-69.834 -33.5 -126.501 -33.5h-1c-27.333 0 -55.666 3.5 -84.999 10.5s-59 16.167 -89 27.5c-30.667 -25.333 -71.334 -38 -122.001 -38
c-22 -0 -44.667 2.33301 -68 7s-46.666 11 -69.999 19zM755.001 488.999c-7.33301 0 -13.666 2.5 -18.999 7.5s-8 11.5 -8 19.5s2.66699 14.5 8 19.5s11.666 7.5 18.999 7.5s13.666 -2.5 18.999 -7.5s8 -11.5 8 -19.5s-2.66699 -14.5 -8 -19.5s-11.666 -7.5 -18.999 -7.5z
M840.001 488.999c-7.33301 0 -13.666 2.5 -18.999 7.5s-8 11.5 -8 19.5s2.66699 14.5 8 19.5s11.666 7.5 18.999 7.5s13.666 -2.5 18.999 -7.5s8 -11.5 8 -19.5s-2.66699 -14.5 -8 -19.5s-11.666 -7.5 -18.999 -7.5zM800.001 568.999c-7.33301 0 -13.666 2.5 -18.999 7.5
s-8 11.5 -8 19.5s2.66699 14.5 8 19.5s11.666 7.5 18.999 7.5s13.666 -2.5 18.999 -7.5s8 -11.5 8 -19.5s-2.66699 -14.5 -8 -19.5s-11.666 -7.5 -18.999 -7.5z" />
    <glyph glyph-name="sadiso" unicode="&#x635;" horiz-adv-x="1122" arabic-form="isolated" 
d="M549 0l0.000976562 -97.001c-16 -3.33301 -33.833 -6.66602 -53.5 -9.99902s-39.5 -6.33301 -59.5 -9s-39.833 -4.83398 -59.5 -6.50098s-37.5 -2.5 -53.5 -2.5c-33.333 0 -64.666 2.5 -93.999 7.5s-55 14.667 -77 29s-39.5 34 -52.5 59s-19.5 57.5 -19.5 97.5v97h32v-92
c0 -37.333 5.33301 -67.166 16 -89.499s25.334 -39.5 44.001 -51.5s41 -20 67 -24s54 -6 84 -6c14 0 29.833 0.5 47.5 1.5s35.667 2.5 54 4.5s35.666 4.16699 51.999 6.5s30.166 4.83301 41.499 7.5v423h32v-172c34 72 79.667 127 137 165s121.333 57 192 57
c59.333 0 101.166 -16.667 125.499 -50s36.5 -83.333 36.5 -150l1 -195h-493zM550.001 25.999l459 -0.00195312v155c0 27.333 -1.16699 52.333 -3.5 75s-8 42.334 -17 59.001s-22.667 29.5 -41 38.5s-43.166 13.5 -74.499 13.5c-25.333 0 -52.833 -3.66699 -82.5 -11
s-59.167 -20.833 -88.5 -40.5s-57.333 -46.667 -84 -81s-49.334 -78.166 -68.001 -131.499v-77z" />
    <glyph glyph-name="dadiso" unicode="&#x636;" horiz-adv-x="1122" arabic-form="isolated" 
d="M549 0l0.000976562 -97.001c-16 -3.33301 -33.833 -6.66602 -53.5 -9.99902s-39.5 -6.33301 -59.5 -9s-39.833 -4.83398 -59.5 -6.50098s-37.5 -2.5 -53.5 -2.5c-33.333 0 -64.666 2.5 -93.999 7.5s-55 14.667 -77 29s-39.5 34 -52.5 59s-19.5 57.5 -19.5 97.5v97h32v-92
c0 -37.333 5.33301 -67.166 16 -89.499s25.334 -39.5 44.001 -51.5s41 -20 67 -24s54 -6 84 -6c14 0 29.833 0.5 47.5 1.5s35.667 2.5 54 4.5s35.666 4.16699 51.999 6.5s30.166 4.83301 41.499 7.5v423h32v-172c34 72 79.667 127 137 165s121.333 57 192 57
c59.333 0 101.166 -16.667 125.499 -50s36.5 -83.333 36.5 -150l1 -195h-493zM550.001 25.999l459 -0.00195312v155c0 27.333 -1.16699 52.333 -3.5 75s-8 42.334 -17 59.001s-22.667 29.5 -41 38.5s-43.166 13.5 -74.499 13.5c-25.333 0 -52.833 -3.66699 -82.5 -11
s-59.167 -20.833 -88.5 -40.5s-57.333 -46.667 -84 -81s-49.334 -78.166 -68.001 -131.499v-77zM786.001 488.997c-7.33301 0 -13.666 2.5 -18.999 7.5s-8 11.5 -8 19.5s2.66699 14.5 8 19.5s11.666 7.5 18.999 7.5s13.666 -2.5 18.999 -7.5s8 -11.5 8 -19.5
s-2.66699 -14.5 -8 -19.5s-11.666 -7.5 -18.999 -7.5z" />
    <glyph glyph-name="tahiso" unicode="&#x637;" horiz-adv-x="748" arabic-form="isolated" 
d="M145 26l0.000976562 654h32v-507c34 72 79.667 127 137 165s121.333 57 192 57c59.333 0 101.166 -16.667 125.499 -50s36.5 -83.333 36.5 -150v-195h-618v26h95zM636.001 26v154.998c0 27.333 -1.16699 52.333 -3.5 75s-8 42.334 -17 59.001s-22.667 29.5 -41 38.5
s-43.166 13.5 -74.499 13.5c-25.333 0 -52.833 -3.66699 -82.5 -11s-59.167 -20.833 -88.5 -40.5s-57.333 -46.667 -84 -81s-49.334 -78.166 -68.001 -131.499v-77h459z" />
    <glyph glyph-name="zadiso" unicode="&#x638;" horiz-adv-x="748" arabic-form="isolated" 
d="M145 26l0.000976562 654h32v-507c34 72 79.667 127 137 165s121.333 57 192 57c59.333 0 101.166 -16.667 125.499 -50s36.5 -83.333 36.5 -150v-195h-618v26h95zM636.001 26v154.998c0 27.333 -1.16699 52.333 -3.5 75s-8 42.334 -17 59.001s-22.667 29.5 -41 38.5
s-43.166 13.5 -74.499 13.5c-25.333 0 -52.833 -3.66699 -82.5 -11s-59.167 -20.833 -88.5 -40.5s-57.333 -46.667 -84 -81s-49.334 -78.166 -68.001 -131.499v-77h459zM438.001 488.998c-7.33301 0 -13.666 2.5 -18.999 7.5s-8 11.5 -8 19.5s2.66699 14.5 8 19.5
s11.666 7.5 18.999 7.5s13.666 -2.5 18.999 -7.5s8 -11.5 8 -19.5s-2.66699 -14.5 -8 -19.5s-11.666 -7.5 -18.999 -7.5z" />
    <glyph glyph-name="ayniso" unicode="&#x639;" horiz-adv-x="578" arabic-form="isolated" 
d="M528 0l-283.998 0.00488281c-26.667 0 -51.167 -1.16699 -73.5 -3.5s-41.5 -6.83301 -57.5 -13.5s-28.5 -15.834 -37.5 -27.501s-13.5 -26.5 -13.5 -44.5c0 -18.667 4.16699 -34.5 12.5 -47.5s19.833 -23.5 34.5 -31.5s32 -13.833 52 -17.5s42 -5.5 66 -5.5h58v-26h-61
c-58 0 -104.833 10.333 -140.5 31s-53.5 53 -53.5 97c0 38.667 18.167 67.5 54.5 86.5s94.5 28.5 174.5 28.5c-10 12.667 -18.833 26.667 -26.5 42s-13.834 30.666 -18.501 45.999s-8.16699 29.666 -10.5 42.999s-3.5 24.666 -3.5 33.999c0 34 5.16699 64 15.5 90
s24.5 48 42.5 66s39.167 31.667 63.5 41s50.5 14 78.5 14c22 0 42.667 -2.33301 62 -7s37.666 -11.334 54.999 -20.001v-30c-18 9.33301 -36.667 16.833 -56 22.5s-38.333 8.5 -57 8.5c-52 0 -93.667 -15.833 -125 -47.5s-47 -78.834 -47 -141.501
c0 -11.333 1.33301 -23.666 4 -36.999s6.66699 -27 12 -41s12.5 -28.167 21.5 -42.5s19.5 -27.833 31.5 -40.5h227v-26z" />
    <glyph glyph-name="ghaiso" unicode="&#x63a;" horiz-adv-x="578" arabic-form="isolated" 
d="M528 0l-283.998 0.00488281c-26.667 0 -51.167 -1.16699 -73.5 -3.5s-41.5 -6.83301 -57.5 -13.5s-28.5 -15.834 -37.5 -27.501s-13.5 -26.5 -13.5 -44.5c0 -18.667 4.16699 -34.5 12.5 -47.5s19.833 -23.5 34.5 -31.5s32 -13.833 52 -17.5s42 -5.5 66 -5.5h58v-26h-61
c-58 0 -104.833 10.333 -140.5 31s-53.5 53 -53.5 97c0 38.667 18.167 67.5 54.5 86.5s94.5 28.5 174.5 28.5c-10 12.667 -18.833 26.667 -26.5 42s-13.834 30.666 -18.501 45.999s-8.16699 29.666 -10.5 42.999s-3.5 24.666 -3.5 33.999c0 34 5.16699 64 15.5 90
s24.5 48 42.5 66s39.167 31.667 63.5 41s50.5 14 78.5 14c22 0 42.667 -2.33301 62 -7s37.666 -11.334 54.999 -20.001v-30c-18 9.33301 -36.667 16.833 -56 22.5s-38.333 8.5 -57 8.5c-52 0 -93.667 -15.833 -125 -47.5s-47 -78.834 -47 -141.501
c0 -11.333 1.33301 -23.666 4 -36.999s6.66699 -27 12 -41s12.5 -28.167 21.5 -42.5s19.5 -27.833 31.5 -40.5h227v-26zM378.002 489.005c-7.33301 0 -13.666 2.5 -18.999 7.5s-8 11.5 -8 19.5s2.66699 14.5 8 19.5s11.666 7.5 18.999 7.5s13.666 -2.5 18.999 -7.5
s8 -11.5 8 -19.5s-2.66699 -14.5 -8 -19.5s-11.666 -7.5 -18.999 -7.5z" />
    <glyph glyph-name="faiso" unicode="&#x641;" horiz-adv-x="919" arabic-form="isolated" 
d="M261 26h313c-30 15.333 -54.5 37.333 -73.5 66s-28.5 65 -28.5 109c0 60 19.5 107.5 58.5 142.5s96.833 52.5 173.5 52.5c20.667 0 43.667 -2.33301 69 -7s47.333 -10.334 66 -17.001v-372h-574c-62 0 -110 11.333 -144 34s-51 60 -51 112v189h32v-186
c0 -25.333 4.5 -45.833 13.5 -61.5s20.833 -28.167 35.5 -37.5s31.5 -15.666 50.5 -18.999s38.833 -5 59.5 -5zM807 351c-16.667 5.33301 -33.6689 9.66797 -51.002 13.001s-34.666 5 -51.999 5c-70 0 -121 -14.833 -153 -44.5s-48 -70.834 -48 -123.501
c0 -54 15.833 -96.333 47.5 -127s76.834 -46.667 135.501 -48h121v325zM665.998 489.002c-7.33301 0 -13.666 2.5 -18.999 7.5s-8 11.5 -8 19.5s2.66699 14.5 8 19.5s11.666 7.5 18.999 7.5s13.666 -2.5 18.999 -7.5s8 -11.5 8 -19.5s-2.66699 -14.5 -8 -19.5
s-11.666 -7.5 -18.999 -7.5z" />
    <glyph glyph-name="kaafiso" unicode="&#x642;" horiz-adv-x="725" arabic-form="isolated" 
d="M675 372l0.00585938 -547.999c-16 -3.33301 -33.5 -6.66602 -52.5 -9.99902s-38.333 -6.16602 -58 -8.49902s-39 -4.33301 -58 -6s-36.5 -2.5 -52.5 -2.5h-142c-32.667 0 -63.334 3 -92.001 9s-53.834 16.333 -75.501 31s-38.667 34.667 -51 60
s-18.5 57.666 -18.5 96.999v200h31v-195c0 -36 5.16699 -65.5 15.5 -88.5s24.666 -41 42.999 -54s40.166 -21.833 65.499 -26.5s52.666 -7 81.999 -7h142c13.333 0 28.333 0.5 45 1.5s33.667 2.16699 51 3.5s34.166 3 50.499 5s30.833 4 43.5 6v161h-113
c-29.333 0 -57.5 4 -84.5 12s-50.833 20.167 -71.5 36.5s-37 37.166 -49 62.499s-18 55.333 -18 90c0 60 19.5 107.5 58.5 142.5s96.833 52.5 173.5 52.5c20.667 0 43.667 -2.33301 69 -7s47.333 -10.334 66 -17.001zM531.006 26.001l112 0.00195312v325
c-16.667 5.33301 -33.667 9.66602 -51 12.999s-34.666 5 -51.999 5c-70 0 -121 -14.833 -153 -44.5s-48 -70.834 -48 -123.501c0 -54.667 16.667 -97.5 50 -128.5s80.666 -46.5 141.999 -46.5zM485.006 489.003c-7.33301 0 -13.666 2.5 -18.999 7.5s-8 11.5 -8 19.5
s2.66699 14.5 8 19.5s11.666 7.5 18.999 7.5s13.666 -2.5 18.999 -7.5s8 -11.5 8 -19.5s-2.66699 -14.5 -8 -19.5s-11.666 -7.5 -18.999 -7.5zM570.006 489.003c-7.33301 0 -13.666 2.5 -18.999 7.5s-8 11.5 -8 19.5s2.66699 14.5 8 19.5s11.666 7.5 18.999 7.5
s13.666 -2.5 18.999 -7.5s8 -11.5 8 -19.5s-2.66699 -14.5 -8 -19.5s-11.666 -7.5 -18.999 -7.5z" />
    <glyph glyph-name="kafiso" unicode="&#x643;" horiz-adv-x="633" arabic-form="isolated" 
d="M572 16c-16 -3.33301 -34.832 -6.66699 -56.499 -10s-43.834 -6.33301 -66.501 -9s-44.834 -4.83398 -66.501 -6.50098s-40.5 -2.5 -56.5 -2.5c-33.333 0 -64.666 2.5 -93.999 7.5s-55 14.667 -77 29s-39.5 34 -52.5 59s-19.5 57.5 -19.5 97.5v118h32v-113
c0 -37.333 5.33301 -67.166 16 -89.499s25.334 -39.5 44.001 -51.5s41 -20 67 -24s54 -6 84 -6c14 0 31 0.5 51 1.5s40.333 2.5 61 4.5s40.167 4.16699 58.5 6.5s33.166 4.83301 44.499 7.5v645h32zM249.001 400.999h51.998c-6 13.333 -10 24.666 -12 33.999
s-3 16.666 -3 21.999c0 28 8.33301 48 25 60s35.667 18 57 18c6.66699 0 14 -1.16699 22 -3.5s15.667 -5.16602 23 -8.49902v-22c-9.33301 5.33301 -17.166 8.5 -23.499 9.5s-13.166 1.5 -20.499 1.5c-17.333 0 -31 -4 -41 -12s-15 -23 -15 -45
c0 -7.33301 2 -16.166 6 -26.499s9.66699 -19.5 17 -27.5h77v-24h-164v24z" />
    <glyph glyph-name="lamiso" unicode="&#x644;" horiz-adv-x="630" arabic-form="isolated" 
d="M549 -96c-16 -3.33301 -33.6699 -6.66699 -53.0029 -10s-39.166 -6.33301 -59.499 -9s-40.166 -4.83398 -59.499 -6.50098s-37 -2.5 -53 -2.5c-33.333 0 -64.666 2.5 -93.999 7.5s-55 14.667 -77 29s-39.5 34 -52.5 59s-19.5 57.5 -19.5 97.5v116h32v-111
c0 -37.333 5.33301 -67.166 16 -89.499s25.334 -39.5 44.001 -51.5s41 -20 67 -24s54 -6 84 -6c14 0 29.833 0.5 47.5 1.5s35.5 2.5 53.5 4.5s35.167 4.16699 51.5 6.5s30.166 4.83301 41.499 7.5v757h32z" />
    <glyph glyph-name="meemiso" unicode="&#x645;" horiz-adv-x="637" arabic-form="isolated" 
d="M253 0c-23.333 0 -43.832 -1.83105 -61.499 -5.49805s-32.5 -10.334 -44.5 -20.001s-21 -23 -27 -40s-9 -38.5 -9 -64.5v-87h-31v100c0 50.667 14.5 87.167 43.5 109.5s75.833 33.5 140.5 33.5v233c0 37.333 12.167 67.666 36.5 90.999s57.166 35 98.499 35h29
c52 0 91.333 -11.333 118 -34s40 -58.667 40 -108l1 -243h-334zM406.001 358.002c-34 0 -61 -8.66602 -81 -25.999s-30 -43 -30 -77v-229h260v205c0 26 -3.16699 47.333 -9.5 64s-15.333 29.667 -27 39s-25.5 15.666 -41.5 18.999s-34 5 -54 5h-17z" />
    <glyph glyph-name="nouniso" unicode="&#x646;" horiz-adv-x="590" arabic-form="isolated" 
d="M529 -39c-16 -3.33301 -33.833 -6.66699 -53.5 -10s-39.5 -6.33301 -59.5 -9s-39.833 -4.83398 -59.5 -6.50098s-37.5 -2.5 -53.5 -2.5c-33.333 0 -64.666 2.5 -93.999 7.5s-55 14.667 -77 29s-39.5 34 -52.5 59s-19.5 57.5 -19.5 97.5v199h32v-194
c0 -37.333 5.33301 -67.166 16 -89.499s25.334 -39.5 44.001 -51.5s41 -20 67 -24s54 -6 84 -6c14 0 29.833 0.5 47.5 1.5s35.667 2.5 54 4.5s35.666 4.16699 51.999 6.5s30.166 4.83301 41.499 7.5v415h32zM287 488.999c-7.33301 0 -13.666 2.5 -18.999 7.5
s-8 11.5 -8 19.5s2.66699 14.5 8 19.5s11.666 7.5 18.999 7.5s13.666 -2.5 18.999 -7.5s8 -11.5 8 -19.5s-2.66699 -14.5 -8 -19.5s-11.666 -7.5 -18.999 -7.5z" />
    <glyph glyph-name="haini" unicode="&#x647;" horiz-adv-x="501" arabic-form="initial" 
d="M184 358c-8 0 -17.167 -0.49707 -27.5 -1.49707s-21.5 -2.33301 -33.5 -4s-24.333 -3.5 -37 -5.5s-24.667 -4.33301 -36 -7v27c22 5.33301 45.167 9.66602 69.5 12.999s47.5 5 69.5 5h84c52 0 93 -10.833 123 -32.5s45 -58.167 45 -109.5v-243h-450v26h99
c-29.333 35.333 -44 67.666 -44 96.999c0 37.333 13 67 39 89s58.333 33 97 33c39.333 0 72 -11 98 -33s39 -51.667 39 -89l-1 -97h92v205c0 26 -4.16699 47.333 -12.5 64s-19.333 29.667 -33 39s-29 15.666 -46 18.999s-34.167 5 -51.5 5h-83zM77 123.003
c0 -30 8.50098 -53.333 25.501 -70s40.5 -25.667 70.5 -27h115v97c0 32 -9.16699 56.167 -27.5 72.5s-44.5 24.5 -78.5 24.5c-32.667 0 -58.334 -8.16699 -77.001 -24.5s-28 -40.5 -28 -72.5z" />
    <glyph glyph-name="wawiso" unicode="&#x648;" horiz-adv-x="498" arabic-form="isolated" 
d="M418 -36c0 -32.667 -5.66895 -60.501 -17.002 -83.501s-26.333 -41.667 -45 -56s-39.667 -24.833 -63 -31.5s-47.333 -10 -72 -10c-25.333 0 -49 2.16699 -71 6.5s-41 9.83301 -57 16.5v26c18.667 -7.33301 39.167 -13.333 61.5 -18s44.5 -7 66.5 -7
c20.667 0 40.834 2.66699 60.501 8s37.334 14.5 53.001 27.5s28.167 30.333 37.5 52s14 48.5 14 80.5v25h-112c-29.333 0 -57.5 3.83301 -84.5 11.5s-50.833 19.834 -71.5 36.501s-37.167 37.5 -49.5 62.5s-18.5 55.167 -18.5 90.5c0 62.667 19.5 110.834 58.5 144.501
s96.833 50.5 173.5 50.5c21.333 0 44.5 -2.33301 69.5 -7s47.167 -10.334 66.5 -17.001v-408zM385.998 350.999c-16.667 5.33301 -33.667 9.66797 -51 13.001s-35 5 -53 5c-70 0 -120.833 -14.833 -152.5 -44.5s-47.5 -70.834 -47.5 -123.501
c0 -54.667 16.5 -97.5 49.5 -128.5s80.5 -46.5 142.5 -46.5h112v325z" />
    <glyph glyph-name="alefma2souraiso" unicode="&#x649;" horiz-adv-x="694" arabic-form="isolated" 
d="M293 -71c-37.333 0 -71.0029 2.99805 -101.003 8.99805s-55.5 16.5 -76.5 31.5s-37.167 35.5 -48.5 61.5s-17 59 -17 99v97h32v-92c0 -37.333 5.33301 -67.666 16 -90.999s25.334 -41.5 44.001 -54.5s40.834 -22 66.501 -27s53.834 -7.5 84.501 -7.5h96
c24 0 49.167 1 75.5 3s50.5 6.5 72.5 13.5s40.167 17.167 54.5 30.5s21.5 31.333 21.5 54c0 16 -2.16699 29.5 -6.5 40.5s-11.5 20.5 -21.5 28.5s-22.833 15 -38.5 21s-34.834 12.667 -57.501 20c-35.333 12.667 -62 28 -80 46s-27 43 -27 75c0 36 12.333 63.333 37 82
s55.667 28 93 28c20.667 0 40.334 -1.83301 59.001 -5.5s36 -11.167 52 -22.5v-27c-16 11.333 -32.5 19 -49.5 23s-37.5 6 -61.5 6c-30.667 0 -55 -7.16699 -73 -21.5s-27 -35.166 -27 -62.499c0 -25.333 8.16699 -45.5 24.5 -60.5s44.5 -28.833 84.5 -41.5
c18 -5.33301 34.667 -11.333 50 -18s28.333 -14.834 39 -24.501s19 -21 25 -34s9 -28.833 9 -47.5c0 -29.333 -8.16699 -52.666 -24.5 -69.999s-37 -30.5 -62 -39.5s-52.333 -15 -82 -18s-58.167 -4.5 -85.5 -4.5h-97z" />
    <glyph glyph-name="yaiso" unicode="&#x64a;" horiz-adv-x="694" arabic-form="isolated" 
d="M293 -71c-37.333 0 -71.0029 2.99805 -101.003 8.99805s-55.5 16.5 -76.5 31.5s-37.167 35.5 -48.5 61.5s-17 59 -17 99v97h32v-92c0 -37.333 5.33301 -67.666 16 -90.999s25.334 -41.5 44.001 -54.5s40.834 -22 66.501 -27s53.834 -7.5 84.501 -7.5h96
c24 0 49.167 1 75.5 3s50.5 6.5 72.5 13.5s40.167 17.167 54.5 30.5s21.5 31.333 21.5 54c0 16 -2.16699 29.5 -6.5 40.5s-11.5 20.5 -21.5 28.5s-22.833 15 -38.5 21s-34.834 12.667 -57.501 20c-35.333 12.667 -62 28 -80 46s-27 43 -27 75c0 36 12.333 63.333 37 82
s55.667 28 93 28c20.667 0 40.334 -1.83301 59.001 -5.5s36 -11.167 52 -22.5v-27c-16 11.333 -32.5 19 -49.5 23s-37.5 6 -61.5 6c-30.667 0 -55 -7.16699 -73 -21.5s-27 -35.166 -27 -62.499c0 -25.333 8.16699 -45.5 24.5 -60.5s44.5 -28.833 84.5 -41.5
c18 -5.33301 34.667 -11.333 50 -18s28.333 -14.834 39 -24.501s19 -21 25 -34s9 -28.833 9 -47.5c0 -29.333 -8.16699 -52.666 -24.5 -69.999s-37 -30.5 -62 -39.5s-52.333 -15 -82 -18s-58.167 -4.5 -85.5 -4.5h-97zM301.997 -201.002c-7.33301 0 -13.666 2.5 -18.999 7.5
s-8 11.5 -8 19.5s2.66699 14.5 8 19.5s11.666 7.5 18.999 7.5s13.666 -2.5 18.999 -7.5s8 -11.5 8 -19.5s-2.66699 -14.5 -8 -19.5s-11.666 -7.5 -18.999 -7.5zM386.997 -201.002c-7.33301 0 -13.666 2.5 -18.999 7.5s-8 11.5 -8 19.5s2.66699 14.5 8 19.5
s11.666 7.5 18.999 7.5s13.666 -2.5 18.999 -7.5s8 -11.5 8 -19.5s-2.66699 -14.5 -8 -19.5s-11.666 -7.5 -18.999 -7.5z" />
    <glyph glyph-name="alefwaslaiso" unicode="&#x671;" horiz-adv-x="205" arabic-form="isolated" 
d="M120 0h-32v680h32v-680z" />
    <glyph glyph-name="piso.001" unicode="&#x67e;" horiz-adv-x="791" arabic-form="isolated" 
d="M228 0c-56.667 0 -100.501 11.167 -131.501 33.5s-46.5 58.5 -46.5 108.5v253h32v-253c0 -24 4 -43.5 12 -58.5s18.833 -26.833 32.5 -35.5s29.5 -14.5 47.5 -17.5s36.667 -4.5 56 -4.5h302c19.333 0 37.833 1.5 55.5 4.5s33.334 8.83301 47.001 17.5
s24.667 20.5 33 35.5s12.5 34.5 12.5 58.5v253h31v-253c0 -50 -15.5 -86.167 -46.5 -108.5s-74.833 -33.5 -131.5 -33.5h-305zM333.999 -74.9404c-7.33301 0 -13.666 -2.5 -18.999 -7.49902s-8 -11.498 -8 -19.4971s2.66699 -14.498 8 -19.4971
s11.666 -7.49902 18.999 -7.49902s13.666 2.5 18.999 7.49902s8 11.498 8 19.4971s-2.66699 14.498 -8 19.4971s-11.666 7.49902 -18.999 7.49902zM418.999 -74.9404c-7.33301 0 -13.666 -2.5 -18.999 -7.49902s-8 -11.498 -8 -19.4971s2.66699 -14.498 8 -19.4971
s11.666 -7.49902 18.999 -7.49902s13.666 2.5 18.999 7.49902s8 11.498 8 19.4971s-2.66699 14.498 -8 19.4971s-11.666 7.49902 -18.999 7.49902zM378.999 -154.931c-7.33301 0 -13.666 -2.5 -18.999 -7.49902s-8 -11.498 -8 -19.4971s2.66699 -14.498 8 -19.4971
s11.666 -7.49902 18.999 -7.49902s13.666 2.5 18.999 7.49902s8 11.498 8 19.4971s-2.66699 14.498 -8 19.4971s-11.666 7.49902 -18.999 7.49902z" />
    <glyph glyph-name="giso" unicode="&#x686;" horiz-adv-x="554" arabic-form="isolated" 
d="M274 0c-26.667 0 -51.1699 -1.16504 -73.5029 -3.49805s-41.5 -6.83301 -57.5 -13.5s-28.5 -15.834 -37.5 -27.501s-13.5 -26.5 -13.5 -44.5c0 -18.667 4.16699 -34.5 12.5 -47.5s19.833 -23.5 34.5 -31.5s32 -13.833 52 -17.5s42 -5.5 66 -5.5h58v-26h-61
c-58 0 -104.833 10.333 -140.5 31s-53.5 53 -53.5 97c0 38.667 18.167 67.5 54.5 86.5s94.5 28.5 174.5 28.5h173v210c0 26.667 -4.33301 48.667 -13 66s-20 30.666 -34 39.999s-29.667 15.833 -47 19.5s-34.666 5.5 -51.999 5.5h-58c-21.333 0 -41.166 -1.5 -59.499 -4.5
s-35.166 -6.83301 -50.499 -11.5v25c16.667 5.33301 35.5 9.83301 56.5 13.5s42.167 5.5 63.5 5.5h59c51.333 0 92 -11.333 122 -34s45 -60 45 -112v-249h-220zM403.997 -67.9385c-7.33301 0 -13.666 -2.5 -18.999 -7.49902s-8 -11.498 -8 -19.4971
s2.66699 -14.498 8 -19.4971s11.666 -7.49902 18.999 -7.49902s13.666 2.5 18.999 7.49902s8 11.498 8 19.4971s-2.66699 14.498 -8 19.4971s-11.666 7.49902 -18.999 7.49902zM488.997 -67.9385c-7.33301 0 -13.666 -2.5 -18.999 -7.49902s-8 -11.498 -8 -19.4971
s2.66699 -14.498 8 -19.4971s11.666 -7.49902 18.999 -7.49902s13.666 2.5 18.999 7.49902s8 11.498 8 19.4971s-2.66699 14.498 -8 19.4971s-11.666 7.49902 -18.999 7.49902zM448.997 -147.929c-7.33301 0 -13.666 -2.5 -18.999 -7.49902s-8 -11.498 -8 -19.4971
s2.66699 -14.498 8 -19.4971s11.666 -7.49902 18.999 -7.49902s13.666 2.5 18.999 7.49902s8 11.498 8 19.4971s-2.66699 14.498 -8 19.4971s-11.666 7.49902 -18.999 7.49902z" />
    <glyph glyph-name="jehiso" unicode="&#x698;" horiz-adv-x="255" arabic-form="isolated" 
d="M133 395l31.999 -0.000976562v-503c0 -40 -9.66699 -71.333 -29 -94s-51 -34 -95 -34c-19.333 0 -37.333 3 -54 9v23c8.66699 -3.33301 17.334 -5.66602 26.001 -6.99902s18 -2 28 -2c27.333 0 49.5 8 66.5 24s25.5 44.667 25.5 86v498zM90.999 488.999
c-7.33301 0 -13.666 2.5 -18.999 7.5s-8 11.5 -8 19.5s2.66699 14.5 8 19.5s11.666 7.5 18.999 7.5s13.666 -2.5 18.999 -7.5s8 -11.5 8 -19.5s-2.66699 -14.5 -8 -19.5s-11.666 -7.5 -18.999 -7.5zM175.999 488.999c-7.33301 0 -13.666 2.5 -18.999 7.5s-8 11.5 -8 19.5
s2.66699 14.5 8 19.5s11.666 7.5 18.999 7.5s13.666 -2.5 18.999 -7.5s8 -11.5 8 -19.5s-2.66699 -14.5 -8 -19.5s-11.666 -7.5 -18.999 -7.5zM135.999 568.999c-7.33301 0 -13.666 2.5 -18.999 7.5s-8 11.5 -8 19.5s2.66699 14.5 8 19.5s11.666 7.5 18.999 7.5
s13.666 -2.5 18.999 -7.5s8 -11.5 8 -19.5s-2.66699 -14.5 -8 -19.5s-11.666 -7.5 -18.999 -7.5z" />
    <glyph glyph-name="vehiso" unicode="&#x6a4;" horiz-adv-x="923" arabic-form="isolated" 
d="M267 26h313c-30 15.333 -54.5 37.333 -73.5 66s-28.5 65 -28.5 109c0 60 19.5 107.5 58.5 142.5s96.833 52.5 173.5 52.5c20.667 0 43.667 -2.33301 69 -7s47.333 -10.334 66 -17.001v-372h-574c-62 0 -110 11.333 -144 34s-51 60 -51 112v189h32v-186
c0 -25.333 4.5 -45.833 13.5 -61.5s20.833 -28.167 35.5 -37.5s31.5 -15.666 50.5 -18.999s38.833 -5 59.5 -5zM813 351c-16.667 5.33301 -33.6689 9.66797 -51.002 13.001s-34.666 5 -51.999 5c-70 0 -121 -14.833 -153 -44.5s-48 -70.834 -48 -123.501
c0 -54 15.833 -96.333 47.5 -127s76.834 -46.667 135.501 -48h121v325zM650.998 489.002c-7.33301 0 -13.666 2.5 -18.999 7.5s-8 11.5 -8 19.5s2.66699 14.5 8 19.5s11.666 7.5 18.999 7.5s13.666 -2.5 18.999 -7.5s8 -11.5 8 -19.5s-2.66699 -14.5 -8 -19.5
s-11.666 -7.5 -18.999 -7.5zM735.998 489.002c-7.33301 0 -13.666 2.5 -18.999 7.5s-8 11.5 -8 19.5s2.66699 14.5 8 19.5s11.666 7.5 18.999 7.5s13.666 -2.5 18.999 -7.5s8 -11.5 8 -19.5s-2.66699 -14.5 -8 -19.5s-11.666 -7.5 -18.999 -7.5zM695.998 569.002
c-7.33301 0 -13.666 2.5 -18.999 7.5s-8 11.5 -8 19.5s2.66699 14.5 8 19.5s11.666 7.5 18.999 7.5s13.666 -2.5 18.999 -7.5s8 -11.5 8 -19.5s-2.66699 -14.5 -8 -19.5s-11.666 -7.5 -18.999 -7.5z" />
    <glyph glyph-name="kehehiso" unicode="&#x6a9;" horiz-adv-x="673" arabic-form="isolated" 
d="M572 16c-16 -3.33301 -34.832 -6.66699 -56.499 -10s-43.834 -6.33301 -66.501 -9s-44.834 -4.83398 -66.501 -6.50098s-40.5 -2.5 -56.5 -2.5c-33.333 0 -64.666 2.5 -93.999 7.5s-55 14.667 -77 29s-39.5 34 -52.5 59s-19.5 57.5 -19.5 97.5v118h32v-113
c0 -37.333 5.33301 -67.166 16 -89.499s25.334 -39.5 44.001 -51.5s41 -20 67 -24s54 -6 84 -6c14 0 31 0.5 51 1.5s40.333 2.5 61 4.5s40.167 4.16699 58.5 6.5s33.166 4.83301 44.499 7.5v645h32zM238.001 400.999h51.998c-6 13.333 -10 24.666 -12 33.999
s-3 16.666 -3 21.999c0 28 8.33301 48 25 60s35.667 18 57 18c6.66699 0 14 -1.16699 22 -3.5s15.667 -5.16602 23 -8.49902v-22c-9.33301 5.33301 -17.166 8.5 -23.499 9.5s-13.166 1.5 -20.499 1.5c-17.333 0 -31 -4 -41 -12s-15 -23 -15 -45
c0 -7.33301 2 -16.166 6 -26.499s9.66699 -19.5 17 -27.5h77v-24h-164v24z" />
    <glyph glyph-name="gafiso" unicode="&#x6af;" horiz-adv-x="662" arabic-form="isolated" 
d="M572 16c-16 -3.33301 -34.832 -6.66699 -56.499 -10s-43.834 -6.33301 -66.501 -9s-44.834 -4.83398 -66.501 -6.50098s-40.5 -2.5 -56.5 -2.5c-33.333 0 -64.666 2.5 -93.999 7.5s-55 14.667 -77 29s-39.5 34 -52.5 59s-19.5 57.5 -19.5 97.5v118h32v-113
c0 -37.333 5.33301 -67.166 16 -89.499s25.334 -39.5 44.001 -51.5s41 -20 67 -24s54 -6 84 -6c14 0 31 0.5 51 1.5s40.333 2.5 61 4.5s40.167 4.16699 58.5 6.5s33.166 4.83301 44.499 7.5v645h32zM249.001 400.999h51.998c-6 13.333 -10 24.666 -12 33.999
s-3 16.666 -3 21.999c0 28 8.33301 48 25 60s35.667 18 57 18c6.66699 0 14 -1.16699 22 -3.5s15.667 -5.16602 23 -8.49902v-22c-9.33301 5.33301 -17.166 8.5 -23.499 9.5s-13.166 1.5 -20.499 1.5c-17.333 0 -31 -4 -41 -12s-15 -23 -15 -45
c0 -7.33301 2 -16.166 6 -26.499s9.66699 -19.5 17 -27.5h77v-24h-164v24z" />
    <glyph glyph-name="farsiyaiso" unicode="&#x6cc;" horiz-adv-x="727" arabic-form="isolated" 
d="M327 -71c-37.333 0 -71.0029 2.99805 -101.003 8.99805s-55.5 16.5 -76.5 31.5s-37.167 35.5 -48.5 61.5s-17 59 -17 99v97h32v-92c0 -37.333 5.33301 -67.666 16 -90.999s25.334 -41.5 44.001 -54.5s40.834 -22 66.501 -27s53.834 -7.5 84.501 -7.5h96
c24 0 49.167 1 75.5 3s50.5 6.5 72.5 13.5s40.167 17.167 54.5 30.5s21.5 31.333 21.5 54c0 16 -2.16699 29.5 -6.5 40.5s-11.5 20.5 -21.5 28.5s-22.833 15 -38.5 21s-34.834 12.667 -57.501 20c-35.333 12.667 -62 28 -80 46s-27 43 -27 75c0 36 12.333 63.333 37 82
s55.667 28 93 28c20.667 0 40.334 -1.83301 59.001 -5.5s36 -11.167 52 -22.5v-27c-16 11.333 -32.5 19 -49.5 23s-37.5 6 -61.5 6c-30.667 0 -55 -7.16699 -73 -21.5s-27 -35.166 -27 -62.499c0 -25.333 8.16699 -45.5 24.5 -60.5s44.5 -28.833 84.5 -41.5
c18 -5.33301 34.667 -11.333 50 -18s28.333 -14.834 39 -24.501s19 -21 25 -34s9 -28.833 9 -47.5c0 -29.333 -8.16699 -52.666 -24.5 -69.999s-37 -30.5 -62 -39.5s-52.333 -15 -82 -18s-58.167 -4.5 -85.5 -4.5h-97z" />
    <glyph glyph-name="alefwaslafina" unicode="&#x671;" horiz-adv-x="248" arabic-form="final" 
d="M249 0c-56.667 0 -100.667 11.167 -132 33.5s-47 58.5 -47 108.5v538h32v-538c0 -24 4 -43.5 12 -58.5s18.833 -26.833 32.5 -35.5s29.5 -14.5 47.5 -17.5s36.667 -4.5 56 -4.5h7v-26h-8z" />
    <glyph glyph-name="pfina" unicode="&#x67e;" horiz-adv-x="858" arabic-form="final" 
d="M229 0c-56.667 0 -100.668 11.167 -132.001 33.5s-47 58.5 -47 108.5v253h32v-253c0 -24 4 -43.5 12 -58.5s18.833 -26.833 32.5 -35.5s29.5 -14.5 47.5 -17.5s36.667 -4.5 56 -4.5h321c14.667 0 29.5 1.66699 44.5 5s28.5 9.5 40.5 18.5s21.667 21.5 29 37.5
s11 36.333 11 61v247h32v-250c0 -28 -6.33301 -56.333 -19 -85c17.333 -8 40.5 -15.667 69.5 -23s58.167 -11 87.5 -11h21v-26h-21c-27.333 0 -55.666 3.5 -84.999 10.5s-59 16.167 -89 27.5c-30.667 -25.333 -71 -38 -121 -38h-322zM354.999 -78.9404
c-7.33301 0 -13.666 -2.5 -18.999 -7.49902s-8 -11.498 -8 -19.4971s2.66699 -14.498 8 -19.4971s11.666 -7.49902 18.999 -7.49902s13.666 2.5 18.999 7.49902s8 11.498 8 19.4971s-2.66699 14.498 -8 19.4971s-11.666 7.49902 -18.999 7.49902zM439.999 -78.9404
c-7.33301 0 -13.666 -2.5 -18.999 -7.49902s-8 -11.498 -8 -19.4971s2.66699 -14.498 8 -19.4971s11.666 -7.49902 18.999 -7.49902s13.666 2.5 18.999 7.49902s8 11.498 8 19.4971s-2.66699 14.498 -8 19.4971s-11.666 7.49902 -18.999 7.49902zM399.999 -158.931
c-7.33301 0 -13.666 -2.5 -18.999 -7.49902s-8 -11.498 -8 -19.4971s2.66699 -14.498 8 -19.4971s11.666 -7.49902 18.999 -7.49902s13.666 2.5 18.999 7.49902s8 11.498 8 19.4971s-2.66699 14.498 -8 19.4971s-11.666 7.49902 -18.999 7.49902z" />
    <glyph glyph-name="pini" unicode="&#x67e;" horiz-adv-x="263" arabic-form="initial" 
d="M-9 0v26h12c20.667 0 40 1.5 58 4.5s33.667 8.83301 47 17.5s23.833 20.5 31.5 35.5s11.5 34.5 11.5 58.5v253h32v-253c0 -50 -15.667 -86.167 -47 -108.5s-75.333 -33.5 -132 -33.5h-13zM25 -78.9404c-7.33301 0 -13.666 -2.5 -18.999 -7.49902s-8 -11.498 -8 -19.4971
s2.66699 -14.498 8 -19.4971s11.666 -7.49902 18.999 -7.49902s13.666 2.5 18.999 7.49902s8 11.498 8 19.4971s-2.66699 14.498 -8 19.4971s-11.666 7.49902 -18.999 7.49902zM110 -78.9404c-7.33301 0 -13.666 -2.5 -18.999 -7.49902s-8 -11.498 -8 -19.4971
s2.66699 -14.498 8 -19.4971s11.666 -7.49902 18.999 -7.49902s13.666 2.5 18.999 7.49902s8 11.498 8 19.4971s-2.66699 14.498 -8 19.4971s-11.666 7.49902 -18.999 7.49902zM70 -158.931c-7.33301 0 -13.666 -2.5 -18.999 -7.49902s-8 -11.498 -8 -19.4971
s2.66699 -14.498 8 -19.4971s11.666 -7.49902 18.999 -7.49902s13.666 2.5 18.999 7.49902s8 11.498 8 19.4971s-2.66699 14.498 -8 19.4971s-11.666 7.49902 -18.999 7.49902z" />
    <glyph glyph-name="pmedi" unicode="&#x67e;" horiz-adv-x="328" arabic-form="medial" 
d="M317 0c-28 0 -56.667 3.5 -86 10.5s-59 16.167 -89 27.5c-30.667 -25.333 -71 -38 -121 -38h-30v26h30c14.667 0 29.5 1.66699 44.5 5s28.5 9.5 40.5 18.5s21.667 21.5 29 37.5s11 36.333 11 61v247h32v-250c0 -28 -6.33301 -56.333 -19 -85
c17.333 -8 40.5 -15.667 69.5 -23s58.5 -11 88.5 -11h20v-26h-20zM113 -78.9404c-7.33301 0 -13.666 -2.5 -18.999 -7.49902s-8 -11.498 -8 -19.4971s2.66699 -14.498 8 -19.4971s11.666 -7.49902 18.999 -7.49902s13.666 2.5 18.999 7.49902s8 11.498 8 19.4971
s-2.66699 14.498 -8 19.4971s-11.666 7.49902 -18.999 7.49902zM198 -78.9404c-7.33301 0 -13.666 -2.5 -18.999 -7.49902s-8 -11.498 -8 -19.4971s2.66699 -14.498 8 -19.4971s11.666 -7.49902 18.999 -7.49902s13.666 2.5 18.999 7.49902s8 11.498 8 19.4971
s-2.66699 14.498 -8 19.4971s-11.666 7.49902 -18.999 7.49902zM158 -158.931c-7.33301 0 -13.666 -2.5 -18.999 -7.49902s-8 -11.498 -8 -19.4971s2.66699 -14.498 8 -19.4971s11.666 -7.49902 18.999 -7.49902s13.666 2.5 18.999 7.49902s8 11.498 8 19.4971
s-2.66699 14.498 -8 19.4971s-11.666 7.49902 -18.999 7.49902z" />
    <glyph glyph-name="gfina" unicode="&#x686;" horiz-adv-x="584" arabic-form="final" 
d="M274 0c-26.667 0 -51.1699 -1.16504 -73.5029 -3.49805s-41.5 -6.83301 -57.5 -13.5s-28.5 -15.834 -37.5 -27.501s-13.5 -26.5 -13.5 -44.5c0 -18.667 4.16699 -34.5 12.5 -47.5s19.833 -23.5 34.5 -31.5s32 -13.833 52 -17.5s42 -5.5 66 -5.5h58v-26h-61
c-58 0 -104.833 10.333 -140.5 31s-53.5 53 -53.5 97c0 38.667 18.167 67.5 54.5 86.5s94.5 28.5 174.5 28.5h173v210c0 26.667 -4.33301 48.667 -13 66s-20 30.666 -34 39.999s-29.667 15.833 -47 19.5s-34.666 5.5 -51.999 5.5h-58c-21.333 0 -41.166 -1.5 -59.499 -4.5
s-35.166 -6.83301 -50.499 -11.5v25c16.667 5.33301 35.5 9.83301 56.5 13.5s42.167 5.5 63.5 5.5h59c51.333 0 92 -11.333 122 -34s45 -60 45 -112v-223h99v-26h-319zM421.997 -78.9385c-7.33301 0 -13.666 -2.5 -18.999 -7.49902s-8 -11.498 -8 -19.4971
s2.66699 -14.498 8 -19.4971s11.666 -7.49902 18.999 -7.49902s13.666 2.5 18.999 7.49902s8 11.498 8 19.4971s-2.66699 14.498 -8 19.4971s-11.666 7.49902 -18.999 7.49902zM506.997 -78.9385c-7.33301 0 -13.666 -2.5 -18.999 -7.49902s-8 -11.498 -8 -19.4971
s2.66699 -14.498 8 -19.4971s11.666 -7.49902 18.999 -7.49902s13.666 2.5 18.999 7.49902s8 11.498 8 19.4971s-2.66699 14.498 -8 19.4971s-11.666 7.49902 -18.999 7.49902zM466.997 -158.929c-7.33301 0 -13.666 -2.5 -18.999 -7.49902s-8 -11.498 -8 -19.4971
s2.66699 -14.498 8 -19.4971s11.666 -7.49902 18.999 -7.49902s13.666 2.5 18.999 7.49902s8 11.498 8 19.4971s-2.66699 14.498 -8 19.4971s-11.666 7.49902 -18.999 7.49902z" />
    <glyph glyph-name="gini" unicode="&#x686;" horiz-adv-x="480" arabic-form="initial" 
d="M-9 26l396.997 0.000976562v210c0 26.667 -4.33301 48.667 -13 66s-20 30.666 -34 39.999s-29.667 15.833 -47 19.5s-34.666 5.5 -51.999 5.5h-58c-21.333 0 -41.166 -1.5 -59.499 -4.5s-35.166 -6.83301 -50.499 -11.5v25c16.667 5.33301 35.5 9.83301 56.5 13.5
s42.167 5.5 63.5 5.5h59c51.333 0 92 -11.333 122 -34s45 -60 45 -112v-249h-429v26zM176.997 -78.9395c-7.33301 0 -13.666 -2.5 -18.999 -7.49902s-8 -11.498 -8 -19.4971s2.66699 -14.498 8 -19.4971s11.666 -7.49902 18.999 -7.49902s13.666 2.5 18.999 7.49902
s8 11.498 8 19.4971s-2.66699 14.498 -8 19.4971s-11.666 7.49902 -18.999 7.49902zM261.997 -78.9395c-7.33301 0 -13.666 -2.5 -18.999 -7.49902s-8 -11.498 -8 -19.4971s2.66699 -14.498 8 -19.4971s11.666 -7.49902 18.999 -7.49902s13.666 2.5 18.999 7.49902
s8 11.498 8 19.4971s-2.66699 14.498 -8 19.4971s-11.666 7.49902 -18.999 7.49902zM221.997 -158.93c-7.33301 0 -13.666 -2.5 -18.999 -7.49902s-8 -11.498 -8 -19.4971s2.66699 -14.498 8 -19.4971s11.666 -7.49902 18.999 -7.49902s13.666 2.5 18.999 7.49902
s8 11.498 8 19.4971s-2.66699 14.498 -8 19.4971s-11.666 7.49902 -18.999 7.49902z" />
    <glyph glyph-name="gmedi" unicode="&#x686;" horiz-adv-x="510" arabic-form="medial" 
d="M-9 26l396.997 0.000976562v210c0 26.667 -4.33301 48.667 -13 66s-20 30.666 -34 39.999s-29.667 15.833 -47 19.5s-34.666 5.5 -51.999 5.5h-58c-21.333 0 -41.166 -1.5 -59.499 -4.5s-35.166 -6.83301 -50.499 -11.5v25c16.667 5.33301 35.5 9.83301 56.5 13.5
s42.167 5.5 63.5 5.5h59c51.333 0 92 -11.333 122 -34s45 -60 45 -112v-223h99v-26h-528v26zM186.997 -78.9395c-7.33301 0 -13.666 -2.5 -18.999 -7.49902s-8 -11.498 -8 -19.4971s2.66699 -14.498 8 -19.4971s11.666 -7.49902 18.999 -7.49902s13.666 2.5 18.999 7.49902
s8 11.498 8 19.4971s-2.66699 14.498 -8 19.4971s-11.666 7.49902 -18.999 7.49902zM271.997 -78.9395c-7.33301 0 -13.666 -2.5 -18.999 -7.49902s-8 -11.498 -8 -19.4971s2.66699 -14.498 8 -19.4971s11.666 -7.49902 18.999 -7.49902s13.666 2.5 18.999 7.49902
s8 11.498 8 19.4971s-2.66699 14.498 -8 19.4971s-11.666 7.49902 -18.999 7.49902zM231.997 -158.93c-7.33301 0 -13.666 -2.5 -18.999 -7.49902s-8 -11.498 -8 -19.4971s2.66699 -14.498 8 -19.4971s11.666 -7.49902 18.999 -7.49902s13.666 2.5 18.999 7.49902
s8 11.498 8 19.4971s-2.66699 14.498 -8 19.4971s-11.666 7.49902 -18.999 7.49902z" />
    <glyph glyph-name="jehfina" unicode="&#x698;" horiz-adv-x="278" arabic-form="final" 
d="M161 395l31.999 -0.000976562v-369h94v-26h-94v-108c0 -40 -9.66699 -71.333 -29 -94s-51 -34 -95 -34c-19.333 0 -37.333 3 -54 9v23c8.66699 -3.33301 17.334 -5.66602 26.001 -6.99902s18 -2 28 -2c27.333 0 49.5 8 66.5 24s25.5 44.667 25.5 86v498zM120.999 488.999
c-7.33301 0 -13.666 2.5 -18.999 7.5s-8 11.5 -8 19.5s2.66699 14.5 8 19.5s11.666 7.5 18.999 7.5s13.666 -2.5 18.999 -7.5s8 -11.5 8 -19.5s-2.66699 -14.5 -8 -19.5s-11.666 -7.5 -18.999 -7.5zM205.999 488.999c-7.33301 0 -13.666 2.5 -18.999 7.5s-8 11.5 -8 19.5
s2.66699 14.5 8 19.5s11.666 7.5 18.999 7.5s13.666 -2.5 18.999 -7.5s8 -11.5 8 -19.5s-2.66699 -14.5 -8 -19.5s-11.666 -7.5 -18.999 -7.5zM165.999 568.999c-7.33301 0 -13.666 2.5 -18.999 7.5s-8 11.5 -8 19.5s2.66699 14.5 8 19.5s11.666 7.5 18.999 7.5
s13.666 -2.5 18.999 -7.5s8 -11.5 8 -19.5s-2.66699 -14.5 -8 -19.5s-11.666 -7.5 -18.999 -7.5z" />
    <glyph glyph-name="kehehfina" unicode="&#x6a9;" horiz-adv-x="643" arabic-form="final" 
d="M326 -12c-33.333 0 -64.667 2.49805 -94 7.49805s-55 14.667 -77 29s-39.5 34 -52.5 59s-19.5 57.5 -19.5 97.5v118h32v-113c0 -37.333 5.33301 -67.166 16 -89.499s25.334 -39.5 44.001 -51.5s41 -20 67 -24s54 -6 84 -6c14 0 31 0.333008 51 1s40.333 1.66699 61 3
s40.167 2.83301 58.5 4.5s33.166 3.83398 44.499 6.50098v650h32l-1 -654h80v-26h-111c-16.667 -0.666992 -34.667 -1.66699 -54 -3l-58 -4c-19.333 -1.33301 -38 -2.5 -56 -3.5s-33.667 -1.5 -47 -1.5zM237.999 400.998h51.998c-6 13.333 -10 24.666 -12 33.999
s-3 16.666 -3 21.999c0 28 8.33301 48 25 60s35.667 18 57 18c6.66699 0 14 -1.16699 22 -3.5s15.667 -5.16602 23 -8.49902v-22c-9.33301 5.33301 -17.166 8.5 -23.499 9.5s-13.166 1.5 -20.499 1.5c-17.333 0 -31 -4 -41 -12s-15 -23 -15 -45
c0 -7.33301 2 -16.166 6 -26.499s9.66699 -19.5 17 -27.5h77v-24h-164v24z" />
    <glyph glyph-name="kafini" unicode="&#x6a9;" horiz-adv-x="475" arabic-form="initial" 
d="M-9 0v25.999h248c18.667 0 36.834 1.5 54.501 4.5s33.334 8.5 47.001 16.5s24.334 19.333 32.001 34s11.5 33.667 11.5 57v58c-0.666992 26 -5.33398 47.333 -14.001 64s-19.667 29.834 -33 39.501s-28.5 16.167 -45.5 19.5s-34.167 5 -51.5 5h-194v40l356 294v-33
l-333 -274h176c52.667 0 93.667 -10.833 123 -32.5s44.666 -58.167 45.999 -109.5v-71c1.33301 -48 -13.334 -83 -44.001 -105s-74 -33 -130 -33h-249z" />
    <glyph glyph-name="kafmedi" unicode="&#x6a9;" horiz-adv-x="550" arabic-form="medial" 
d="M23 364l356.999 294v-33l-334 -274h177c52.667 0 93.834 -10.833 123.501 -32.5s44.5 -58.167 44.5 -109.5v-65c0 -28.667 -6.33301 -57.334 -19 -86.001c8.66699 -4 18.834 -7.83301 30.501 -11.5s24.334 -7 38.001 -10s27.667 -5.5 42 -7.5s28.833 -3 43.5 -3h33v-26
h-33c-26.667 0 -54.334 3.5 -83.001 10.5s-57.667 15.833 -87 26.5c-28.667 -24.667 -68.334 -37 -119.001 -37h-246v26h246c18.667 0 35.5 1.66699 50.5 5s28 9.33301 39 18s19.5 20.667 25.5 36s9 35 9 59v52c0 26 -3.66699 47.333 -11 64s-17.333 29.834 -30 39.501
s-27.667 16.167 -45 19.5s-36.333 5 -57 5h-195v40z" />
    <glyph glyph-name="gaffina" unicode="&#x6af;" horiz-adv-x="645" arabic-form="final" 
d="M326 -12c-33.333 0 -64.667 2.49805 -94 7.49805s-55 14.667 -77 29s-39.5 34 -52.5 59s-19.5 57.5 -19.5 97.5v118h32v-113c0 -37.333 5.33301 -67.166 16 -89.499s25.334 -39.5 44.001 -51.5s41 -20 67 -24s54 -6 84 -6c14 0 31 0.333008 51 1s40.333 1.66699 61 3
s40.167 2.83301 58.5 4.5s33.166 3.83398 44.499 6.50098v650h32l-1 -654h80v-26h-111c-16.667 -0.666992 -34.667 -1.66699 -54 -3l-58 -4c-19.333 -1.33301 -38 -2.5 -56 -3.5s-33.667 -1.5 -47 -1.5zM237.999 400.998h51.998c-6 13.333 -10 24.666 -12 33.999
s-3 16.666 -3 21.999c0 28 8.33301 48 25 60s35.667 18 57 18c6.66699 0 14 -1.16699 22 -3.5s15.667 -5.16602 23 -8.49902v-22c-9.33301 5.33301 -17.166 8.5 -23.499 9.5s-13.166 1.5 -20.499 1.5c-17.333 0 -31 -4 -41 -12s-15 -23 -15 -45
c0 -7.33301 2 -16.166 6 -26.499s9.66699 -19.5 17 -27.5h77v-24h-164v24z" />
    <glyph glyph-name="gafini" unicode="&#x6af;" horiz-adv-x="476" arabic-form="initial" 
d="M-9 0v25.999h248c18.667 0 36.834 1.5 54.501 4.5s33.334 8.5 47.001 16.5s24.334 19.333 32.001 34s11.5 33.667 11.5 57v58c-0.666992 26 -5.33398 47.333 -14.001 64s-19.667 29.834 -33 39.501s-28.5 16.167 -45.5 19.5s-34.167 5 -51.5 5h-194v40l356 294v-33
l-333 -274h176c52.667 0 93.667 -10.833 123 -32.5s44.666 -58.167 45.999 -109.5v-71c1.33301 -48 -13.334 -83 -44.001 -105s-74 -33 -130 -33h-249z" />
    <glyph glyph-name="gafmedi" unicode="&#x6af;" horiz-adv-x="577" arabic-form="medial" 
d="M38 364l356.999 294v-33l-334 -274h177c52.667 0 93.834 -10.833 123.501 -32.5s44.5 -58.167 44.5 -109.5v-65c0 -28.667 -6.33301 -57.334 -19 -86.001c8.66699 -4 18.834 -7.83301 30.501 -11.5s24.334 -7 38.001 -10s27.667 -5.5 42 -7.5s28.833 -3 43.5 -3h33v-26
h-33c-26.667 0 -54.334 3.5 -83.001 10.5s-57.667 15.833 -87 26.5c-28.667 -24.667 -68.334 -37 -119.001 -37h-246v26h246c18.667 0 35.5 1.66699 50.5 5s28 9.33301 39 18s19.5 20.667 25.5 36s9 35 9 59v52c0 26 -3.66699 47.333 -11 64s-17.333 29.834 -30 39.501
s-27.667 16.167 -45 19.5s-36.333 5 -57 5h-195v40z" />
    <glyph glyph-name="kirsehini" unicode="&#x649;" horiz-adv-x="263" arabic-form="initial" 
d="M-9 0v26h12c20.667 0 40 1.5 58 4.5s33.667 8.83301 47 17.5s23.833 20.5 31.5 35.5s11.5 34.5 11.5 58.5v253h32v-253c0 -50 -15.667 -86.167 -47 -108.5s-75.333 -33.5 -132 -33.5h-13z" />
    <glyph glyph-name="kirsehmedi" unicode="&#x649;" horiz-adv-x="328" arabic-form="medial" 
d="M317 0c-28 0 -56.667 3.5 -86 10.5s-59 16.167 -89 27.5c-30.667 -25.333 -71 -38 -121 -38h-30v26h30c14.667 0 29.5 1.66699 44.5 5s28.5 9.5 40.5 18.5s21.667 21.5 29 37.5s11 36.333 11 61v247h32v-250c0 -28 -6.33301 -56.333 -19 -85
c17.333 -8 40.5 -15.667 69.5 -23s58.5 -11 88.5 -11h20v-26h-20z" />
    <glyph glyph-name="alefma2sourafina" unicode="&#x6cc;" horiz-adv-x="904" arabic-form="final" 
d="M519 251c0 27.333 3.66211 50.3301 10.9951 68.9971s17.333 33.667 30 45s27.5 19.5 44.5 24.5s35.167 7.5 54.5 7.5c23.333 0 47.5 -2.66699 72.5 -8s49.167 -12.666 72.5 -21.999v-341h109v-26h-141v347c-18 8 -35.833 13.667 -53.5 17s-34.167 5 -49.5 5
c-42.667 0 -73 -9.66699 -91 -29s-27 -53.333 -27 -102v-177c0 -29.333 -8 -52.666 -24 -69.999s-36.5 -30.5 -61.5 -39.5s-52.5 -15 -82.5 -18s-58.667 -4.5 -86 -4.5h-4c-33.333 0 -64.666 3 -93.999 9s-55 16.5 -77 31.5s-39.5 35.5 -52.5 61.5s-19.5 59 -19.5 99v97h32
v-92c0 -37.333 5.33301 -67.666 16 -90.999s25.334 -41.5 44.001 -54.5s40.834 -22 66.501 -27s53.834 -7.5 84.501 -7.5c24.667 0 50.334 1 77.001 3s51 6.5 73 13.5s40.167 17.167 54.5 30.5s21.5 31.333 21.5 54v195z" />
    <glyph glyph-name="yaini" unicode="&#x6cc;" horiz-adv-x="263" arabic-form="initial" 
d="M-9 0v26h12c20.667 0 40 1.5 58 4.5s33.667 8.83301 47 17.5s23.833 20.5 31.5 35.5s11.5 34.5 11.5 58.5v253h32v-253c0 -50 -15.667 -86.167 -47 -108.5s-75.333 -33.5 -132 -33.5h-13zM31 -150c-7.33301 0 -13.666 2.5 -18.999 7.5s-8 11.5 -8 19.5
s2.66699 14.5 8 19.5s11.666 7.5 18.999 7.5s13.666 -2.5 18.999 -7.5s8 -11.5 8 -19.5s-2.66699 -14.5 -8 -19.5s-11.666 -7.5 -18.999 -7.5zM116 -150c-7.33301 0 -13.666 2.5 -18.999 7.5s-8 11.5 -8 19.5s2.66699 14.5 8 19.5s11.666 7.5 18.999 7.5
s13.666 -2.5 18.999 -7.5s8 -11.5 8 -19.5s-2.66699 -14.5 -8 -19.5s-11.666 -7.5 -18.999 -7.5z" />
    <glyph glyph-name="yamedi" unicode="&#x6cc;" horiz-adv-x="328" arabic-form="medial" 
d="M317 0c-28 0 -56.667 3.5 -86 10.5s-59 16.167 -89 27.5c-30.667 -25.333 -71 -38 -121 -38h-30v26h30c14.667 0 29.5 1.66699 44.5 5s28.5 9.5 40.5 18.5s21.667 21.5 29 37.5s11 36.333 11 61v247h32v-250c0 -28 -6.33301 -56.333 -19 -85
c17.333 -8 40.5 -15.667 69.5 -23s58.5 -11 88.5 -11h20v-26h-20zM103 -150c-7.33301 0 -13.666 2.5 -18.999 7.5s-8 11.5 -8 19.5s2.66699 14.5 8 19.5s11.666 7.5 18.999 7.5s13.666 -2.5 18.999 -7.5s8 -11.5 8 -19.5s-2.66699 -14.5 -8 -19.5s-11.666 -7.5 -18.999 -7.5
zM188 -150c-7.33301 0 -13.666 2.5 -18.999 7.5s-8 11.5 -8 19.5s2.66699 14.5 8 19.5s11.666 7.5 18.999 7.5s13.666 -2.5 18.999 -7.5s8 -11.5 8 -19.5s-2.66699 -14.5 -8 -19.5s-11.666 -7.5 -18.999 -7.5z" />
    <glyph glyph-name="alefmaddaabovefina" unicode="&#x622;" horiz-adv-x="248" arabic-form="final" 
d="M249 0c-56.667 0 -100.667 11.167 -132 33.5s-47 58.5 -47 108.5v538h32v-538c0 -24 4 -43.5 12 -58.5s18.833 -26.833 32.5 -35.5s29.5 -14.5 47.5 -17.5s36.667 -4.5 56 -4.5h7v-26h-8zM245 801c-1.33301 -30.667 -8.83301 -53.167 -22.5 -67.5
s-32.167 -21.5 -55.5 -21.5c-14.667 0 -27.834 3.83301 -39.501 11.5s-22.834 15.5 -33.501 23.5s-21 15.167 -31 21.5s-20 9.5 -30 9.5c-19.333 0 -33.166 -5.33301 -41.499 -16s-13.166 -26.667 -14.499 -48h-24c1.33301 30.667 8.83301 53.167 22.5 67.5
s32.167 21.5 55.5 21.5c14 0 27 -3.66699 39 -11s23.333 -15.333 34 -24c10.667 -8 21 -15.333 31 -22s20 -10 30 -10c19.333 0 32.833 5.5 40.5 16.5s12.167 27.167 13.5 48.5h26z" />
    <glyph glyph-name="alefhamzaabovefina" unicode="&#x623;" horiz-adv-x="248" arabic-form="final" 
d="M249 0c-56.667 0 -100.667 11.167 -132 33.5s-47 58.5 -47 108.5v538h32v-538c0 -24 4 -43.5 12 -58.5s18.833 -26.833 32.5 -35.5s29.5 -14.5 47.5 -17.5s36.667 -4.5 56 -4.5h7v-26h-8zM9 736h51.998c-6 13.333 -10 24.666 -12 33.999s-3 16.666 -3 21.999
c0 28 8.33301 48 25 60s35.667 18 57 18c6.66699 0 14 -1.16699 22 -3.5s15.667 -5.16602 23 -8.49902v-22c-9.33301 5.33301 -17.166 8.5 -23.499 9.5s-13.166 1.5 -20.499 1.5c-17.333 0 -31 -4 -41 -12s-15 -23 -15 -45c0 -7.33301 2 -16.166 6 -26.499
s9.66699 -19.5 17 -27.5h77v-24h-164v24z" />
    <glyph glyph-name="wawhamzafina" unicode="&#x624;" horiz-adv-x="487" arabic-form="final" 
d="M418 -36c0 -32.667 -5.66895 -60.501 -17.002 -83.501s-26.333 -41.667 -45 -56s-39.667 -24.833 -63 -31.5s-47.333 -10 -72 -10c-25.333 0 -49 2.16699 -71 6.5s-41 9.83301 -57 16.5v26c18.667 -7.33301 39.167 -13.333 61.5 -18s44.5 -7 66.5 -7
c20.667 0 40.834 2.66699 60.501 8s37.334 14.5 53.001 27.5s28.167 30.333 37.5 52s14 48.5 14 80.5v25h-112c-29.333 0 -57.5 3.83301 -84.5 11.5s-50.833 19.834 -71.5 36.501s-37.167 37.5 -49.5 62.5s-18.5 55.167 -18.5 90.5c0 62.667 19.5 110.834 58.5 144.501
s96.833 50.5 173.5 50.5c21.333 0 44.5 -2.33301 69.5 -7s47.167 -10.334 66.5 -17.001v-346h78v-26h-78v-36zM385.998 350.999c-16.667 5.33301 -33.667 9.66797 -51 13.001s-35 5 -53 5c-70 0 -120.833 -14.833 -152.5 -44.5s-47.5 -70.834 -47.5 -123.501
c0 -54.667 16.5 -97.5 49.5 -128.5s80.5 -46.5 142.5 -46.5h112v325zM161.998 495.001h51.998c-6 13.333 -10 24.666 -12 33.999s-3 16.666 -3 21.999c0 28 8.33301 48 25 60s35.667 18 57 18c6.66699 0 14 -1.16699 22 -3.5s15.667 -5.16602 23 -8.49902v-22
c-9.33301 5.33301 -17.166 8.5 -23.499 9.5s-13.166 1.5 -20.499 1.5c-17.333 0 -31 -4 -41 -12s-15 -23 -15 -45c0 -7.33301 2 -16.166 6 -26.499s9.66699 -19.5 17 -27.5h77v-24h-164v24z" />
    <glyph glyph-name="alefhamzabelowfina" unicode="&#x625;" horiz-adv-x="248" arabic-form="final" 
d="M249 0c-56.667 0 -100.667 11.167 -132 33.5s-47 58.5 -47 108.5v538h32v-538c0 -24 4 -43.5 12 -58.5s18.833 -26.833 32.5 -35.5s29.5 -14.5 47.5 -17.5s36.667 -4.5 56 -4.5h7v-26h-8zM26 -193h51.998c-6 13.333 -10 24.666 -12 33.999s-3 16.666 -3 21.999
c0 28 8.33301 48 25 60s35.667 18 57 18c6.66699 0 14 -1.16699 22 -3.5s15.667 -5.16602 23 -8.49902v-22c-9.33301 5.33301 -17.166 8.5 -23.499 9.5s-13.166 1.5 -20.499 1.5c-17.333 0 -31 -4 -41 -12s-15 -23 -15 -45c0 -7.33301 2 -16.166 6 -26.499
s9.66699 -19.5 17 -27.5h77v-24h-164v24z" />
    <glyph glyph-name="hamzakirsehfina" unicode="&#x626;" horiz-adv-x="904" arabic-form="final" 
d="M519 251c0 27.333 3.66211 50.3301 10.9951 68.9971s17.333 33.667 30 45s27.5 19.5 44.5 24.5s35.167 7.5 54.5 7.5c23.333 0 47.5 -2.66699 72.5 -8s49.167 -12.666 72.5 -21.999v-341h109v-26h-141v347c-18 8 -35.833 13.667 -53.5 17s-34.167 5 -49.5 5
c-42.667 0 -73 -9.66699 -91 -29s-27 -53.333 -27 -102v-177c0 -29.333 -8 -52.666 -24 -69.999s-36.5 -30.5 -61.5 -39.5s-52.5 -15 -82.5 -18s-58.667 -4.5 -86 -4.5h-4c-33.333 0 -64.666 3 -93.999 9s-55 16.5 -77 31.5s-39.5 35.5 -52.5 61.5s-19.5 59 -19.5 99v97h32
v-92c0 -37.333 5.33301 -67.666 16 -90.999s25.334 -41.5 44.001 -54.5s40.834 -22 66.501 -27s53.834 -7.5 84.501 -7.5c24.667 0 50.334 1 77.001 3s51 6.5 73 13.5s40.167 17.167 54.5 30.5s21.5 31.333 21.5 54v195zM131.995 370.997h51.998
c-6 13.333 -10 24.666 -12 33.999s-3 16.666 -3 21.999c0 28 8.33301 48 25 60s35.667 18 57 18c6.66699 0 14 -1.16699 22 -3.5s15.667 -5.16602 23 -8.49902v-22c-9.33301 5.33301 -17.166 8.5 -23.499 9.5s-13.166 1.5 -20.499 1.5c-17.333 0 -31 -4 -41 -12
s-15 -23 -15 -45c0 -7.33301 2 -16.166 6 -26.499s9.66699 -19.5 17 -27.5h77v-24h-164v24z" />
    <glyph glyph-name="hamzakirsehini" unicode="&#x626;" horiz-adv-x="263" arabic-form="initial" 
d="M-9 0v26h12c20.667 0 40 1.5 58 4.5s33.667 8.83301 47 17.5s23.833 20.5 31.5 35.5s11.5 34.5 11.5 58.5v253h32v-253c0 -50 -15.667 -86.167 -47 -108.5s-75.333 -33.5 -132 -33.5h-13zM38 485h51.998c-6 13.333 -10 24.666 -12 33.999s-3 16.666 -3 21.999
c0 28 8.33301 48 25 60s35.667 18 57 18c6.66699 0 14 -1.16699 22 -3.5s15.667 -5.16602 23 -8.49902v-22c-9.33301 5.33301 -17.166 8.5 -23.499 9.5s-13.166 1.5 -20.499 1.5c-17.333 0 -31 -4 -41 -12s-15 -23 -15 -45c0 -7.33301 2 -16.166 6 -26.499
s9.66699 -19.5 17 -27.5h77v-24h-164v24z" />
    <glyph glyph-name="hamzakirsehmedi" unicode="&#x626;" horiz-adv-x="328" arabic-form="medial" 
d="M317 0c-28 0 -56.667 3.5 -86 10.5s-59 16.167 -89 27.5c-30.667 -25.333 -71 -38 -121 -38h-30v26h30c14.667 0 29.5 1.66699 44.5 5s28.5 9.5 40.5 18.5s21.667 21.5 29 37.5s11 36.333 11 61v247h32v-250c0 -28 -6.33301 -56.333 -19 -85
c17.333 -8 40.5 -15.667 69.5 -23s58.5 -11 88.5 -11h20v-26h-20zM58 485h51.998c-6 13.333 -10 24.666 -12 33.999s-3 16.666 -3 21.999c0 28 8.33301 48 25 60s35.667 18 57 18c6.66699 0 14 -1.16699 22 -3.5s15.667 -5.16602 23 -8.49902v-22
c-9.33301 5.33301 -17.166 8.5 -23.499 9.5s-13.166 1.5 -20.499 1.5c-17.333 0 -31 -4 -41 -12s-15 -23 -15 -45c0 -7.33301 2 -16.166 6 -26.499s9.66699 -19.5 17 -27.5h77v-24h-164v24z" />
    <glyph glyph-name="aleffina" unicode="&#x627;" horiz-adv-x="248" arabic-form="final" 
d="M249 0c-56.667 0 -100.667 11.167 -132 33.5s-47 58.5 -47 108.5v538h32v-538c0 -24 4 -43.5 12 -58.5s18.833 -26.833 32.5 -35.5s29.5 -14.5 47.5 -17.5s36.667 -4.5 56 -4.5h7v-26h-8z" />
    <glyph glyph-name="behfina" unicode="&#x628;" horiz-adv-x="858" arabic-form="final" 
d="M229 0c-56.667 0 -100.668 11.167 -132.001 33.5s-47 58.5 -47 108.5v253h32v-253c0 -24 4 -43.5 12 -58.5s18.833 -26.833 32.5 -35.5s29.5 -14.5 47.5 -17.5s36.667 -4.5 56 -4.5h321c14.667 0 29.5 1.66699 44.5 5s28.5 9.5 40.5 18.5s21.667 21.5 29 37.5
s11 36.333 11 61v247h32v-250c0 -28 -6.33301 -56.333 -19 -85c17.333 -8 40.5 -15.667 69.5 -23s58.167 -11 87.5 -11h21v-26h-21c-27.333 0 -55.666 3.5 -84.999 10.5s-59 16.167 -89 27.5c-30.667 -25.333 -71 -38 -121 -38h-322zM378.999 -149
c-7.33301 0 -13.666 2.5 -18.999 7.5s-8 11.5 -8 19.5s2.66699 14.5 8 19.5s11.666 7.5 18.999 7.5s13.666 -2.5 18.999 -7.5s8 -11.5 8 -19.5s-2.66699 -14.5 -8 -19.5s-11.666 -7.5 -18.999 -7.5z" />
    <glyph glyph-name="behini" unicode="&#x628;" horiz-adv-x="263" arabic-form="initial" 
d="M-9 0v26h12c20.667 0 40 1.5 58 4.5s33.667 8.83301 47 17.5s23.833 20.5 31.5 35.5s11.5 34.5 11.5 58.5v253h32v-253c0 -50 -15.667 -86.167 -47 -108.5s-75.333 -33.5 -132 -33.5h-13zM83 -149c-7.33301 0 -13.666 2.5 -18.999 7.5s-8 11.5 -8 19.5
s2.66699 14.5 8 19.5s11.666 7.5 18.999 7.5s13.666 -2.5 18.999 -7.5s8 -11.5 8 -19.5s-2.66699 -14.5 -8 -19.5s-11.666 -7.5 -18.999 -7.5z" />
    <glyph glyph-name="behmedi" unicode="&#x628;" horiz-adv-x="328" arabic-form="medial" 
d="M317 0c-28 0 -56.667 3.5 -86 10.5s-59 16.167 -89 27.5c-30.667 -25.333 -71 -38 -121 -38h-30v26h30c14.667 0 29.5 1.66699 44.5 5s28.5 9.5 40.5 18.5s21.667 21.5 29 37.5s11 36.333 11 61v247h32v-250c0 -28 -6.33301 -56.333 -19 -85
c17.333 -8 40.5 -15.667 69.5 -23s58.5 -11 88.5 -11h20v-26h-20zM154 -149c-7.33301 0 -13.666 2.5 -18.999 7.5s-8 11.5 -8 19.5s2.66699 14.5 8 19.5s11.666 7.5 18.999 7.5s13.666 -2.5 18.999 -7.5s8 -11.5 8 -19.5s-2.66699 -14.5 -8 -19.5s-11.666 -7.5 -18.999 -7.5
z" />
    <glyph glyph-name="tehmarboutafina" unicode="&#x629;" horiz-adv-x="488" arabic-form="final" 
d="M497 0l-224 0.00195312c-29.333 0 -57.5 4 -84.5 12s-50.833 20.167 -71.5 36.5s-37 37.166 -49 62.499s-18 55.333 -18 90c0 60 19.5 107.5 58.5 142.5s96.833 52.5 173.5 52.5c20.667 0 43.667 -2.33301 69 -7s47.333 -10.334 66 -17.001v-346h80v-26zM385 351.002
c-16.667 5.33301 -33.667 9.66797 -51 13.001s-34.666 5 -51.999 5c-70 0 -121 -14.833 -153 -44.5s-48 -70.834 -48 -123.501c0 -54.667 16.667 -97.5 50 -128.5s80.666 -46.5 141.999 -46.5h112v325zM216 489.004c-7.33301 0 -13.666 2.5 -18.999 7.5s-8 11.5 -8 19.5
s2.66699 14.5 8 19.5s11.666 7.5 18.999 7.5s13.666 -2.5 18.999 -7.5s8 -11.5 8 -19.5s-2.66699 -14.5 -8 -19.5s-11.666 -7.5 -18.999 -7.5zM301 489.004c-7.33301 0 -13.666 2.5 -18.999 7.5s-8 11.5 -8 19.5s2.66699 14.5 8 19.5s11.666 7.5 18.999 7.5
s13.666 -2.5 18.999 -7.5s8 -11.5 8 -19.5s-2.66699 -14.5 -8 -19.5s-11.666 -7.5 -18.999 -7.5z" />
    <glyph glyph-name="tafina" unicode="&#x62a;" horiz-adv-x="858" arabic-form="final" 
d="M229 0c-56.667 0 -100.668 11.167 -132.001 33.5s-47 58.5 -47 108.5v253h32v-253c0 -24 4 -43.5 12 -58.5s18.833 -26.833 32.5 -35.5s29.5 -14.5 47.5 -17.5s36.667 -4.5 56 -4.5h321c14.667 0 29.5 1.66699 44.5 5s28.5 9.5 40.5 18.5s21.667 21.5 29 37.5
s11 36.333 11 61v247h32v-250c0 -28 -6.33301 -56.333 -19 -85c17.333 -8 40.5 -15.667 69.5 -23s58.167 -11 87.5 -11h21v-26h-21c-27.333 0 -55.666 3.5 -84.999 10.5s-59 16.167 -89 27.5c-30.667 -25.333 -71 -38 -121 -38h-322zM330.999 489
c-7.33301 0 -13.666 2.5 -18.999 7.5s-8 11.5 -8 19.5s2.66699 14.5 8 19.5s11.666 7.5 18.999 7.5s13.666 -2.5 18.999 -7.5s8 -11.5 8 -19.5s-2.66699 -14.5 -8 -19.5s-11.666 -7.5 -18.999 -7.5zM415.999 489c-7.33301 0 -13.666 2.5 -18.999 7.5s-8 11.5 -8 19.5
s2.66699 14.5 8 19.5s11.666 7.5 18.999 7.5s13.666 -2.5 18.999 -7.5s8 -11.5 8 -19.5s-2.66699 -14.5 -8 -19.5s-11.666 -7.5 -18.999 -7.5z" />
    <glyph glyph-name="taini" unicode="&#x62a;" horiz-adv-x="263" arabic-form="initial" 
d="M-9 0v26h12c20.667 0 40 1.5 58 4.5s33.667 8.83301 47 17.5s23.833 20.5 31.5 35.5s11.5 34.5 11.5 58.5v253h32v-253c0 -50 -15.667 -86.167 -47 -108.5s-75.333 -33.5 -132 -33.5h-13zM54 489c-7.33301 0 -13.666 2.5 -18.999 7.5s-8 11.5 -8 19.5
s2.66699 14.5 8 19.5s11.666 7.5 18.999 7.5s13.666 -2.5 18.999 -7.5s8 -11.5 8 -19.5s-2.66699 -14.5 -8 -19.5s-11.666 -7.5 -18.999 -7.5zM139 489c-7.33301 0 -13.666 2.5 -18.999 7.5s-8 11.5 -8 19.5s2.66699 14.5 8 19.5s11.666 7.5 18.999 7.5
s13.666 -2.5 18.999 -7.5s8 -11.5 8 -19.5s-2.66699 -14.5 -8 -19.5s-11.666 -7.5 -18.999 -7.5z" />
    <glyph glyph-name="tamedi" unicode="&#x62a;" horiz-adv-x="328" arabic-form="medial" 
d="M317 0c-28 0 -56.667 3.5 -86 10.5s-59 16.167 -89 27.5c-30.667 -25.333 -71 -38 -121 -38h-30v26h30c14.667 0 29.5 1.66699 44.5 5s28.5 9.5 40.5 18.5s21.667 21.5 29 37.5s11 36.333 11 61v247h32v-250c0 -28 -6.33301 -56.333 -19 -85
c17.333 -8 40.5 -15.667 69.5 -23s58.5 -11 88.5 -11h20v-26h-20zM116 489c-7.33301 0 -13.666 2.5 -18.999 7.5s-8 11.5 -8 19.5s2.66699 14.5 8 19.5s11.666 7.5 18.999 7.5s13.666 -2.5 18.999 -7.5s8 -11.5 8 -19.5s-2.66699 -14.5 -8 -19.5s-11.666 -7.5 -18.999 -7.5z
M201 489c-7.33301 0 -13.666 2.5 -18.999 7.5s-8 11.5 -8 19.5s2.66699 14.5 8 19.5s11.666 7.5 18.999 7.5s13.666 -2.5 18.999 -7.5s8 -11.5 8 -19.5s-2.66699 -14.5 -8 -19.5s-11.666 -7.5 -18.999 -7.5z" />
    <glyph glyph-name="thafina" unicode="&#x62b;" horiz-adv-x="858" arabic-form="final" 
d="M229 0c-56.667 0 -100.668 11.167 -132.001 33.5s-47 58.5 -47 108.5v253h32v-253c0 -24 4 -43.5 12 -58.5s18.833 -26.833 32.5 -35.5s29.5 -14.5 47.5 -17.5s36.667 -4.5 56 -4.5h321c14.667 0 29.5 1.66699 44.5 5s28.5 9.5 40.5 18.5s21.667 21.5 29 37.5
s11 36.333 11 61v247h32v-250c0 -28 -6.33301 -56.333 -19 -85c17.333 -8 40.5 -15.667 69.5 -23s58.167 -11 87.5 -11h21v-26h-21c-27.333 0 -55.666 3.5 -84.999 10.5s-59 16.167 -89 27.5c-30.667 -25.333 -71 -38 -121 -38h-322zM319.999 489
c-7.33301 0 -13.666 2.5 -18.999 7.5s-8 11.5 -8 19.5s2.66699 14.5 8 19.5s11.666 7.5 18.999 7.5s13.666 -2.5 18.999 -7.5s8 -11.5 8 -19.5s-2.66699 -14.5 -8 -19.5s-11.666 -7.5 -18.999 -7.5zM404.999 489c-7.33301 0 -13.666 2.5 -18.999 7.5s-8 11.5 -8 19.5
s2.66699 14.5 8 19.5s11.666 7.5 18.999 7.5s13.666 -2.5 18.999 -7.5s8 -11.5 8 -19.5s-2.66699 -14.5 -8 -19.5s-11.666 -7.5 -18.999 -7.5zM364.999 569c-7.33301 0 -13.666 2.5 -18.999 7.5s-8 11.5 -8 19.5s2.66699 14.5 8 19.5s11.666 7.5 18.999 7.5
s13.666 -2.5 18.999 -7.5s8 -11.5 8 -19.5s-2.66699 -14.5 -8 -19.5s-11.666 -7.5 -18.999 -7.5z" />
    <glyph glyph-name="thaini" unicode="&#x62b;" horiz-adv-x="263" arabic-form="initial" 
d="M-9 0v26h12c20.667 0 40 1.5 58 4.5s33.667 8.83301 47 17.5s23.833 20.5 31.5 35.5s11.5 34.5 11.5 58.5v253h32v-253c0 -50 -15.667 -86.167 -47 -108.5s-75.333 -33.5 -132 -33.5h-13zM108 489c-7.33301 0 -13.666 2.5 -18.999 7.5s-8 11.5 -8 19.5
s2.66699 14.5 8 19.5s11.666 7.5 18.999 7.5s13.666 -2.5 18.999 -7.5s8 -11.5 8 -19.5s-2.66699 -14.5 -8 -19.5s-11.666 -7.5 -18.999 -7.5zM193 489c-7.33301 0 -13.666 2.5 -18.999 7.5s-8 11.5 -8 19.5s2.66699 14.5 8 19.5s11.666 7.5 18.999 7.5
s13.666 -2.5 18.999 -7.5s8 -11.5 8 -19.5s-2.66699 -14.5 -8 -19.5s-11.666 -7.5 -18.999 -7.5zM153 569c-7.33301 0 -13.666 2.5 -18.999 7.5s-8 11.5 -8 19.5s2.66699 14.5 8 19.5s11.666 7.5 18.999 7.5s13.666 -2.5 18.999 -7.5s8 -11.5 8 -19.5
s-2.66699 -14.5 -8 -19.5s-11.666 -7.5 -18.999 -7.5z" />
    <glyph glyph-name="thamedi" unicode="&#x62b;" horiz-adv-x="328" arabic-form="medial" 
d="M317 0c-28 0 -56.667 3.5 -86 10.5s-59 16.167 -89 27.5c-30.667 -25.333 -71 -38 -121 -38h-30v26h30c14.667 0 29.5 1.66699 44.5 5s28.5 9.5 40.5 18.5s21.667 21.5 29 37.5s11 36.333 11 61v247h32v-250c0 -28 -6.33301 -56.333 -19 -85
c17.333 -8 40.5 -15.667 69.5 -23s58.5 -11 88.5 -11h20v-26h-20zM115 489c-7.33301 0 -13.666 2.5 -18.999 7.5s-8 11.5 -8 19.5s2.66699 14.5 8 19.5s11.666 7.5 18.999 7.5s13.666 -2.5 18.999 -7.5s8 -11.5 8 -19.5s-2.66699 -14.5 -8 -19.5s-11.666 -7.5 -18.999 -7.5z
M200 489c-7.33301 0 -13.666 2.5 -18.999 7.5s-8 11.5 -8 19.5s2.66699 14.5 8 19.5s11.666 7.5 18.999 7.5s13.666 -2.5 18.999 -7.5s8 -11.5 8 -19.5s-2.66699 -14.5 -8 -19.5s-11.666 -7.5 -18.999 -7.5zM160 569c-7.33301 0 -13.666 2.5 -18.999 7.5s-8 11.5 -8 19.5
s2.66699 14.5 8 19.5s11.666 7.5 18.999 7.5s13.666 -2.5 18.999 -7.5s8 -11.5 8 -19.5s-2.66699 -14.5 -8 -19.5s-11.666 -7.5 -18.999 -7.5z" />
    <glyph glyph-name="jeemfina" unicode="&#x62c;" horiz-adv-x="584" arabic-form="final" 
d="M274 0c-26.667 0 -51.1699 -1.16504 -73.5029 -3.49805s-41.5 -6.83301 -57.5 -13.5s-28.5 -15.834 -37.5 -27.501s-13.5 -26.5 -13.5 -44.5c0 -18.667 4.16699 -34.5 12.5 -47.5s19.833 -23.5 34.5 -31.5s32 -13.833 52 -17.5s42 -5.5 66 -5.5h58v-26h-61
c-58 0 -104.833 10.333 -140.5 31s-53.5 53 -53.5 97c0 38.667 18.167 67.5 54.5 86.5s94.5 28.5 174.5 28.5h173v210c0 26.667 -4.33301 48.667 -13 66s-20 30.666 -34 39.999s-29.667 15.833 -47 19.5s-34.666 5.5 -51.999 5.5h-58c-21.333 0 -41.166 -1.5 -59.499 -4.5
s-35.166 -6.83301 -50.499 -11.5v25c16.667 5.33301 35.5 9.83301 56.5 13.5s42.167 5.5 63.5 5.5h59c51.333 0 92 -11.333 122 -34s45 -60 45 -112v-223h99v-26h-319zM412.997 -148.998c-7.33301 0 -13.666 2.5 -18.999 7.5s-8 11.5 -8 19.5s2.66699 14.5 8 19.5
s11.666 7.5 18.999 7.5s13.666 -2.5 18.999 -7.5s8 -11.5 8 -19.5s-2.66699 -14.5 -8 -19.5s-11.666 -7.5 -18.999 -7.5z" />
    <glyph glyph-name="jeemini" unicode="&#x62c;" horiz-adv-x="480" arabic-form="initial" 
d="M-9 26l396.997 0.000976562v210c0 26.667 -4.33301 48.667 -13 66s-20 30.666 -34 39.999s-29.667 15.833 -47 19.5s-34.666 5.5 -51.999 5.5h-58c-21.333 0 -41.166 -1.5 -59.499 -4.5s-35.166 -6.83301 -50.499 -11.5v25c16.667 5.33301 35.5 9.83301 56.5 13.5
s42.167 5.5 63.5 5.5h59c51.333 0 92 -11.333 122 -34s45 -60 45 -112v-249h-429v26zM221.997 -148.999c-7.33301 0 -13.666 2.5 -18.999 7.5s-8 11.5 -8 19.5s2.66699 14.5 8 19.5s11.666 7.5 18.999 7.5s13.666 -2.5 18.999 -7.5s8 -11.5 8 -19.5s-2.66699 -14.5 -8 -19.5
s-11.666 -7.5 -18.999 -7.5z" />
    <glyph glyph-name="jeemmedi" unicode="&#x62c;" horiz-adv-x="510" arabic-form="medial" 
d="M-9 26l396.997 0.000976562v210c0 26.667 -4.33301 48.667 -13 66s-20 30.666 -34 39.999s-29.667 15.833 -47 19.5s-34.666 5.5 -51.999 5.5h-58c-21.333 0 -41.166 -1.5 -59.499 -4.5s-35.166 -6.83301 -50.499 -11.5v25c16.667 5.33301 35.5 9.83301 56.5 13.5
s42.167 5.5 63.5 5.5h59c51.333 0 92 -11.333 122 -34s45 -60 45 -112v-223h99v-26h-528v26zM231.997 -148.999c-7.33301 0 -13.666 2.5 -18.999 7.5s-8 11.5 -8 19.5s2.66699 14.5 8 19.5s11.666 7.5 18.999 7.5s13.666 -2.5 18.999 -7.5s8 -11.5 8 -19.5
s-2.66699 -14.5 -8 -19.5s-11.666 -7.5 -18.999 -7.5z" />
    <glyph glyph-name="haafina" unicode="&#x62d;" horiz-adv-x="584" arabic-form="final" 
d="M274 0c-26.667 0 -51.1699 -1.16504 -73.5029 -3.49805s-41.5 -6.83301 -57.5 -13.5s-28.5 -15.834 -37.5 -27.501s-13.5 -26.5 -13.5 -44.5c0 -18.667 4.16699 -34.5 12.5 -47.5s19.833 -23.5 34.5 -31.5s32 -13.833 52 -17.5s42 -5.5 66 -5.5h58v-26h-61
c-58 0 -104.833 10.333 -140.5 31s-53.5 53 -53.5 97c0 38.667 18.167 67.5 54.5 86.5s94.5 28.5 174.5 28.5h173v210c0 26.667 -4.33301 48.667 -13 66s-20 30.666 -34 39.999s-29.667 15.833 -47 19.5s-34.666 5.5 -51.999 5.5h-58c-21.333 0 -41.166 -1.5 -59.499 -4.5
s-35.166 -6.83301 -50.499 -11.5v25c16.667 5.33301 35.5 9.83301 56.5 13.5s42.167 5.5 63.5 5.5h59c51.333 0 92 -11.333 122 -34s45 -60 45 -112v-223h99v-26h-319z" />
    <glyph glyph-name="haaini" unicode="&#x62d;" horiz-adv-x="480" arabic-form="initial" 
d="M-9 26l396.997 0.000976562v210c0 26.667 -4.33301 48.667 -13 66s-20 30.666 -34 39.999s-29.667 15.833 -47 19.5s-34.666 5.5 -51.999 5.5h-58c-21.333 0 -41.166 -1.5 -59.499 -4.5s-35.166 -6.83301 -50.499 -11.5v25c16.667 5.33301 35.5 9.83301 56.5 13.5
s42.167 5.5 63.5 5.5h59c51.333 0 92 -11.333 122 -34s45 -60 45 -112v-249h-429v26z" />
    <glyph glyph-name="haamedi" unicode="&#x62d;" horiz-adv-x="510" arabic-form="medial" 
d="M-9 26l396.997 0.000976562v210c0 26.667 -4.33301 48.667 -13 66s-20 30.666 -34 39.999s-29.667 15.833 -47 19.5s-34.666 5.5 -51.999 5.5h-58c-21.333 0 -41.166 -1.5 -59.499 -4.5s-35.166 -6.83301 -50.499 -11.5v25c16.667 5.33301 35.5 9.83301 56.5 13.5
s42.167 5.5 63.5 5.5h59c51.333 0 92 -11.333 122 -34s45 -60 45 -112v-223h99v-26h-528v26z" />
    <glyph glyph-name="khafina" unicode="&#x62e;" horiz-adv-x="584" arabic-form="final" 
d="M274 0c-26.667 0 -51.1699 -1.16504 -73.5029 -3.49805s-41.5 -6.83301 -57.5 -13.5s-28.5 -15.834 -37.5 -27.501s-13.5 -26.5 -13.5 -44.5c0 -18.667 4.16699 -34.5 12.5 -47.5s19.833 -23.5 34.5 -31.5s32 -13.833 52 -17.5s42 -5.5 66 -5.5h58v-26h-61
c-58 0 -104.833 10.333 -140.5 31s-53.5 53 -53.5 97c0 38.667 18.167 67.5 54.5 86.5s94.5 28.5 174.5 28.5h173v210c0 26.667 -4.33301 48.667 -13 66s-20 30.666 -34 39.999s-29.667 15.833 -47 19.5s-34.666 5.5 -51.999 5.5h-58c-21.333 0 -41.166 -1.5 -59.499 -4.5
s-35.166 -6.83301 -50.499 -11.5v25c16.667 5.33301 35.5 9.83301 56.5 13.5s42.167 5.5 63.5 5.5h59c51.333 0 92 -11.333 122 -34s45 -60 45 -112v-223h99v-26h-319zM310.997 489.002c-7.33301 0 -13.666 2.5 -18.999 7.5s-8 11.5 -8 19.5s2.66699 14.5 8 19.5
s11.666 7.5 18.999 7.5s13.666 -2.5 18.999 -7.5s8 -11.5 8 -19.5s-2.66699 -14.5 -8 -19.5s-11.666 -7.5 -18.999 -7.5z" />
    <glyph glyph-name="khaini" unicode="&#x62e;" horiz-adv-x="480" arabic-form="initial" 
d="M-9 26l396.997 0.000976562v210c0 26.667 -4.33301 48.667 -13 66s-20 30.666 -34 39.999s-29.667 15.833 -47 19.5s-34.666 5.5 -51.999 5.5h-58c-21.333 0 -41.166 -1.5 -59.499 -4.5s-35.166 -6.83301 -50.499 -11.5v25c16.667 5.33301 35.5 9.83301 56.5 13.5
s42.167 5.5 63.5 5.5h59c51.333 0 92 -11.333 122 -34s45 -60 45 -112v-249h-429v26zM219.997 489.001c-7.33301 0 -13.666 2.5 -18.999 7.5s-8 11.5 -8 19.5s2.66699 14.5 8 19.5s11.666 7.5 18.999 7.5s13.666 -2.5 18.999 -7.5s8 -11.5 8 -19.5s-2.66699 -14.5 -8 -19.5
s-11.666 -7.5 -18.999 -7.5z" />
    <glyph glyph-name="khamedi" unicode="&#x62e;" horiz-adv-x="510" arabic-form="medial" 
d="M-9 26l396.997 0.000976562v210c0 26.667 -4.33301 48.667 -13 66s-20 30.666 -34 39.999s-29.667 15.833 -47 19.5s-34.666 5.5 -51.999 5.5h-58c-21.333 0 -41.166 -1.5 -59.499 -4.5s-35.166 -6.83301 -50.499 -11.5v25c16.667 5.33301 35.5 9.83301 56.5 13.5
s42.167 5.5 63.5 5.5h59c51.333 0 92 -11.333 122 -34s45 -60 45 -112v-223h99v-26h-528v26zM227.997 489.001c-7.33301 0 -13.666 2.5 -18.999 7.5s-8 11.5 -8 19.5s2.66699 14.5 8 19.5s11.666 7.5 18.999 7.5s13.666 -2.5 18.999 -7.5s8 -11.5 8 -19.5
s-2.66699 -14.5 -8 -19.5s-11.666 -7.5 -18.999 -7.5z" />
    <glyph glyph-name="dalfina" unicode="&#x62f;" horiz-adv-x="470" arabic-form="final" 
d="M40 26l328.999 0.000976562v210c0 26.667 -4.33301 48.667 -13 66s-20 30.666 -34 39.999s-29.667 15.833 -47 19.5s-34.666 5.5 -51.999 5.5c-16 0 -37 -1.83301 -63 -5.5s-50.667 -8.16699 -74 -13.5v28c22 5.33301 45.333 9.83301 70 13.5s48.667 5.5 72 5.5
c54 0 96.333 -11.333 127 -34s46 -60 46 -112v-223h78v-26h-439v26z" />
    <glyph glyph-name="zalfina" unicode="&#x630;" horiz-adv-x="470" arabic-form="final" 
d="M40 26l328.999 0.000976562v210c0 26.667 -4.33301 48.667 -13 66s-20 30.666 -34 39.999s-29.667 15.833 -47 19.5s-34.666 5.5 -51.999 5.5c-16 0 -37 -1.83301 -63 -5.5s-50.667 -8.16699 -74 -13.5v28c22 5.33301 45.333 9.83301 70 13.5s48.667 5.5 72 5.5
c54 0 96.333 -11.333 127 -34s46 -60 46 -112v-223h78v-26h-439v26zM220.999 489.001c-7.33301 0 -13.666 2.5 -18.999 7.5s-8 11.5 -8 19.5s2.66699 14.5 8 19.5s11.666 7.5 18.999 7.5s13.666 -2.5 18.999 -7.5s8 -11.5 8 -19.5s-2.66699 -14.5 -8 -19.5
s-11.666 -7.5 -18.999 -7.5z" />
    <glyph glyph-name="rafina" unicode="&#x631;" horiz-adv-x="278" arabic-form="final" 
d="M161 395l31.999 -0.000976562v-369h94v-26h-94v-108c0 -40 -9.66699 -71.333 -29 -94s-51 -34 -95 -34c-19.333 0 -37.333 3 -54 9v23c8.66699 -3.33301 17.334 -5.66602 26.001 -6.99902s18 -2 28 -2c27.333 0 49.5 8 66.5 24s25.5 44.667 25.5 86v498z" />
    <glyph glyph-name="zafina" unicode="&#x632;" horiz-adv-x="278" arabic-form="final" 
d="M161 395l31.999 -0.000976562v-369h94v-26h-94v-108c0 -40 -9.66699 -71.333 -29 -94s-51 -34 -95 -34c-19.333 0 -37.333 3 -54 9v23c8.66699 -3.33301 17.334 -5.66602 26.001 -6.99902s18 -2 28 -2c27.333 0 49.5 8 66.5 24s25.5 44.667 25.5 86v498zM174.999 488.999
c-7.33301 0 -13.666 2.5 -18.999 7.5s-8 11.5 -8 19.5s2.66699 14.5 8 19.5s11.666 7.5 18.999 7.5s13.666 -2.5 18.999 -7.5s8 -11.5 8 -19.5s-2.66699 -14.5 -8 -19.5s-11.666 -7.5 -18.999 -7.5z" />
    <glyph glyph-name="seenfina" unicode="&#x633;" horiz-adv-x="1261" arabic-form="final" 
d="M520 26v-123.001c-16 -3.33301 -33.833 -6.66602 -53.5 -9.99902s-39.667 -6.33301 -60 -9s-40.333 -4.83398 -60 -6.50098s-37.5 -2.5 -53.5 -2.5c-33.333 0 -64.666 2.5 -93.999 7.5s-55 14.667 -77 29s-39.5 34 -52.5 59s-19.5 57.5 -19.5 97.5v97h32v-92
c0 -37.333 5.33301 -67.166 16 -89.499s25.334 -39.5 44.001 -51.5s41 -20 67 -24s54 -6 84 -6c14 0 29.833 0.5 47.5 1.5s35.667 2.5 54 4.5s35.666 4.16699 51.999 6.5s30.166 4.83301 41.499 7.5v473h32v-343c18 -7.33301 39.167 -13.5 63.5 -18.5
s49.166 -7.5 74.499 -7.5c15.333 0 30.5 1.66699 45.5 5s28.5 9.5 40.5 18.5s21.667 21.5 29 37.5s11 36.333 11 61v247h32v-250c0 -14 -1.83301 -28.333 -5.5 -43s-8.16699 -28.667 -13.5 -42c17.333 -8 40.5 -15.667 69.5 -23s58.167 -11 87.5 -11
c15.333 0 30.5 1.66699 45.5 5s28.5 9.5 40.5 18.5s21.667 21.5 29 37.5s11 36.333 11 61v247h32v-250c0 -14 -1.83301 -28.333 -5.5 -43s-8.16699 -28.667 -13.5 -42c17.333 -8 40.5 -15.667 69.5 -23s58.167 -11 87.5 -11h20v-26h-20c-27.333 0 -55.666 3.5 -84.999 10.5
s-59 16.167 -89 27.5c-30.667 -25.333 -71.334 -38 -122.001 -38c-27.333 0 -55.666 3.5 -84.999 10.5s-59 16.167 -89 27.5c-30.667 -25.333 -71.334 -38 -122.001 -38c-22 -0 -44.667 2.33301 -68 7s-46.666 11 -69.999 19z" />
    <glyph glyph-name="seenini" unicode="&#x633;" horiz-adv-x="854" arabic-form="initial" 
d="M605 0c-26.667 0 -53.167 3.5 -79.5 10.5s-54.5 16.167 -84.5 27.5c-29.333 -25.333 -69.666 -38 -120.999 -38c-27.333 0 -55.666 3.5 -84.999 10.5s-59 16.167 -89 27.5c-30.667 -25.333 -71.334 -38 -122.001 -38h-30v26h30c15.333 0 30.5 1.66699 45.5 5
s28.5 9.5 40.5 18.5s21.667 21.5 29 37.5s11 36.333 11 61v247h32v-250c0 -14 -1.83301 -28.333 -5.5 -43s-8.16699 -28.667 -13.5 -42c17.333 -8 40.5 -15.667 69.5 -23s58.167 -11 87.5 -11c15.333 0 30.5 1.66699 45.5 5s28.5 9.5 40.5 18.5s21.667 21.5 29 37.5
s11 36.333 11 61v247h32v-250c0 -14 -1.83301 -28.333 -5.5 -43s-8.16699 -28.667 -13.5 -42c17.333 -8 38.5 -15.667 63.5 -23s52.5 -11 82.5 -11c20 0 38.333 1.5 55 4.5s31 8.83301 43 17.5s21.5 20.5 28.5 35.5s10.5 34.5 10.5 58.5v253h32v-253
c0 -50 -13.833 -86.167 -41.5 -108.5s-69.834 -33.5 -126.501 -33.5h-1z" />
    <glyph glyph-name="seenmedi" unicode="&#x633;" horiz-adv-x="911" arabic-form="medial" 
d="M900 0c-27.333 0 -55.666 3.5 -84.999 10.5s-59 16.167 -89 27.5c-30.667 -25.333 -71.334 -38 -122.001 -38c-27.333 0 -55.666 3.5 -84.999 10.5s-59 16.167 -89 27.5c-30.667 -25.333 -71.334 -38 -122.001 -38c-27.333 0 -55.666 3.5 -84.999 10.5
s-59 16.167 -89 27.5c-30.667 -25.333 -71.334 -38 -122.001 -38h-21v26h21c15.333 0 30.5 1.66699 45.5 5s28.5 9.5 40.5 18.5s21.667 21.5 29 37.5s11 36.333 11 61v247h32v-250c0 -28 -6.33301 -56.333 -19 -85c17.333 -8 40.5 -15.667 69.5 -23s58.167 -11 87.5 -11
c15.333 0 30.5 1.66699 45.5 5s28.5 9.5 40.5 18.5s21.667 21.5 29 37.5s11 36.333 11 61v247h32v-250c0 -14 -1.83301 -28.333 -5.5 -43s-8.16699 -28.667 -13.5 -42c17.333 -8 40.5 -15.667 69.5 -23s58.167 -11 87.5 -11c15.333 0 30.5 1.66699 45.5 5
s28.5 9.5 40.5 18.5s21.667 21.5 29 37.5s11 36.333 11 61v247h32v-250c0 -14 -1.83301 -28.333 -5.5 -43s-8.16699 -28.667 -13.5 -42c17.333 -8 40.5 -15.667 69.5 -23s58.167 -11 87.5 -11h20v-26h-20z" />
    <glyph glyph-name="sheenfina" unicode="&#x634;" horiz-adv-x="1261" arabic-form="final" 
d="M520 26v-123.001c-16 -3.33301 -33.833 -6.66602 -53.5 -9.99902s-39.667 -6.33301 -60 -9s-40.333 -4.83398 -60 -6.50098s-37.5 -2.5 -53.5 -2.5c-33.333 0 -64.666 2.5 -93.999 7.5s-55 14.667 -77 29s-39.5 34 -52.5 59s-19.5 57.5 -19.5 97.5v97h32v-92
c0 -37.333 5.33301 -67.166 16 -89.499s25.334 -39.5 44.001 -51.5s41 -20 67 -24s54 -6 84 -6c14 0 29.833 0.5 47.5 1.5s35.667 2.5 54 4.5s35.666 4.16699 51.999 6.5s30.166 4.83301 41.499 7.5v473h32v-343c18 -7.33301 39.167 -13.5 63.5 -18.5
s49.166 -7.5 74.499 -7.5c15.333 0 30.5 1.66699 45.5 5s28.5 9.5 40.5 18.5s21.667 21.5 29 37.5s11 36.333 11 61v247h32v-250c0 -14 -1.83301 -28.333 -5.5 -43s-8.16699 -28.667 -13.5 -42c17.333 -8 40.5 -15.667 69.5 -23s58.167 -11 87.5 -11
c15.333 0 30.5 1.66699 45.5 5s28.5 9.5 40.5 18.5s21.667 21.5 29 37.5s11 36.333 11 61v247h32v-250c0 -14 -1.83301 -28.333 -5.5 -43s-8.16699 -28.667 -13.5 -42c17.333 -8 40.5 -15.667 69.5 -23s58.167 -11 87.5 -11h20v-26h-20c-27.333 0 -55.666 3.5 -84.999 10.5
s-59 16.167 -89 27.5c-30.667 -25.333 -71.334 -38 -122.001 -38c-27.333 0 -55.666 3.5 -84.999 10.5s-59 16.167 -89 27.5c-30.667 -25.333 -71.334 -38 -122.001 -38c-22 -0 -44.667 2.33301 -68 7s-46.666 11 -69.999 19zM756 488.999
c-7.33301 0 -13.666 2.5 -18.999 7.5s-8 11.5 -8 19.5s2.66699 14.5 8 19.5s11.666 7.5 18.999 7.5s13.666 -2.5 18.999 -7.5s8 -11.5 8 -19.5s-2.66699 -14.5 -8 -19.5s-11.666 -7.5 -18.999 -7.5zM841 488.999c-7.33301 0 -13.666 2.5 -18.999 7.5s-8 11.5 -8 19.5
s2.66699 14.5 8 19.5s11.666 7.5 18.999 7.5s13.666 -2.5 18.999 -7.5s8 -11.5 8 -19.5s-2.66699 -14.5 -8 -19.5s-11.666 -7.5 -18.999 -7.5zM801 568.999c-7.33301 0 -13.666 2.5 -18.999 7.5s-8 11.5 -8 19.5s2.66699 14.5 8 19.5s11.666 7.5 18.999 7.5
s13.666 -2.5 18.999 -7.5s8 -11.5 8 -19.5s-2.66699 -14.5 -8 -19.5s-11.666 -7.5 -18.999 -7.5z" />
    <glyph glyph-name="sheenini" unicode="&#x634;" horiz-adv-x="854" arabic-form="initial" 
d="M605 0c-26.667 0 -53.167 3.5 -79.5 10.5s-54.5 16.167 -84.5 27.5c-29.333 -25.333 -69.666 -38 -120.999 -38c-27.333 0 -55.666 3.5 -84.999 10.5s-59 16.167 -89 27.5c-30.667 -25.333 -71.334 -38 -122.001 -38h-30v26h30c15.333 0 30.5 1.66699 45.5 5
s28.5 9.5 40.5 18.5s21.667 21.5 29 37.5s11 36.333 11 61v247h32v-250c0 -14 -1.83301 -28.333 -5.5 -43s-8.16699 -28.667 -13.5 -42c17.333 -8 40.5 -15.667 69.5 -23s58.167 -11 87.5 -11c15.333 0 30.5 1.66699 45.5 5s28.5 9.5 40.5 18.5s21.667 21.5 29 37.5
s11 36.333 11 61v247h32v-250c0 -14 -1.83301 -28.333 -5.5 -43s-8.16699 -28.667 -13.5 -42c17.333 -8 38.5 -15.667 63.5 -23s52.5 -11 82.5 -11c20 0 38.333 1.5 55 4.5s31 8.83301 43 17.5s21.5 20.5 28.5 35.5s10.5 34.5 10.5 58.5v253h32v-253
c0 -50 -13.833 -86.167 -41.5 -108.5s-69.834 -33.5 -126.501 -33.5h-1zM419 489c-7.33301 0 -13.666 2.5 -18.999 7.5s-8 11.5 -8 19.5s2.66699 14.5 8 19.5s11.666 7.5 18.999 7.5s13.666 -2.5 18.999 -7.5s8 -11.5 8 -19.5s-2.66699 -14.5 -8 -19.5
s-11.666 -7.5 -18.999 -7.5zM504 489c-7.33301 0 -13.666 2.5 -18.999 7.5s-8 11.5 -8 19.5s2.66699 14.5 8 19.5s11.666 7.5 18.999 7.5s13.666 -2.5 18.999 -7.5s8 -11.5 8 -19.5s-2.66699 -14.5 -8 -19.5s-11.666 -7.5 -18.999 -7.5zM464 569
c-7.33301 0 -13.666 2.5 -18.999 7.5s-8 11.5 -8 19.5s2.66699 14.5 8 19.5s11.666 7.5 18.999 7.5s13.666 -2.5 18.999 -7.5s8 -11.5 8 -19.5s-2.66699 -14.5 -8 -19.5s-11.666 -7.5 -18.999 -7.5z" />
    <glyph glyph-name="sheenmedi" unicode="&#x634;" horiz-adv-x="911" arabic-form="medial" 
d="M900 0c-27.333 0 -55.666 3.5 -84.999 10.5s-59 16.167 -89 27.5c-30.667 -25.333 -71.334 -38 -122.001 -38c-27.333 0 -55.666 3.5 -84.999 10.5s-59 16.167 -89 27.5c-30.667 -25.333 -71.334 -38 -122.001 -38c-27.333 0 -55.666 3.5 -84.999 10.5
s-59 16.167 -89 27.5c-30.667 -25.333 -71.334 -38 -122.001 -38h-21v26h21c15.333 0 30.5 1.66699 45.5 5s28.5 9.5 40.5 18.5s21.667 21.5 29 37.5s11 36.333 11 61v247h32v-250c0 -28 -6.33301 -56.333 -19 -85c17.333 -8 40.5 -15.667 69.5 -23s58.167 -11 87.5 -11
c15.333 0 30.5 1.66699 45.5 5s28.5 9.5 40.5 18.5s21.667 21.5 29 37.5s11 36.333 11 61v247h32v-250c0 -14 -1.83301 -28.333 -5.5 -43s-8.16699 -28.667 -13.5 -42c17.333 -8 40.5 -15.667 69.5 -23s58.167 -11 87.5 -11c15.333 0 30.5 1.66699 45.5 5
s28.5 9.5 40.5 18.5s21.667 21.5 29 37.5s11 36.333 11 61v247h32v-250c0 -14 -1.83301 -28.333 -5.5 -43s-8.16699 -28.667 -13.5 -42c17.333 -8 40.5 -15.667 69.5 -23s58.167 -11 87.5 -11h20v-26h-20zM406 489c-7.33301 0 -13.666 2.5 -18.999 7.5s-8 11.5 -8 19.5
s2.66699 14.5 8 19.5s11.666 7.5 18.999 7.5s13.666 -2.5 18.999 -7.5s8 -11.5 8 -19.5s-2.66699 -14.5 -8 -19.5s-11.666 -7.5 -18.999 -7.5zM491 489c-7.33301 0 -13.666 2.5 -18.999 7.5s-8 11.5 -8 19.5s2.66699 14.5 8 19.5s11.666 7.5 18.999 7.5
s13.666 -2.5 18.999 -7.5s8 -11.5 8 -19.5s-2.66699 -14.5 -8 -19.5s-11.666 -7.5 -18.999 -7.5zM451 569c-7.33301 0 -13.666 2.5 -18.999 7.5s-8 11.5 -8 19.5s2.66699 14.5 8 19.5s11.666 7.5 18.999 7.5s13.666 -2.5 18.999 -7.5s8 -11.5 8 -19.5
s-2.66699 -14.5 -8 -19.5s-11.666 -7.5 -18.999 -7.5z" />
    <glyph glyph-name="sadfina" unicode="&#x635;" horiz-adv-x="1121" arabic-form="final" 
d="M549 0l0.000976562 -97.001c-16 -3.33301 -33.833 -6.66602 -53.5 -9.99902s-39.5 -6.33301 -59.5 -9s-39.833 -4.83398 -59.5 -6.50098s-37.5 -2.5 -53.5 -2.5c-33.333 0 -64.666 2.5 -93.999 7.5s-55 14.667 -77 29s-39.5 34 -52.5 59s-19.5 57.5 -19.5 97.5v97h32v-92
c0 -37.333 5.33301 -67.166 16 -89.499s25.334 -39.5 44.001 -51.5s41 -20 67 -24s54 -6 84 -6c14 0 29.833 0.5 47.5 1.5s35.667 2.5 54 4.5s35.666 4.16699 51.999 6.5s30.166 4.83301 41.499 7.5v423h32v-172c34 72 79.667 127 137 165s121.333 57 192 57
c59.333 0 101.166 -16.667 125.499 -50s36.5 -83.333 36.5 -150v-169h89v-26h-581zM550.001 25.999l459 -0.00195312v155c0 27.333 -1.16699 52.333 -3.5 75s-8 42.334 -17 59.001s-22.667 29.5 -41 38.5s-43.166 13.5 -74.499 13.5c-25.333 0 -52.833 -3.66699 -82.5 -11
s-59.167 -20.833 -88.5 -40.5s-57.333 -46.667 -84 -81s-49.334 -78.166 -68.001 -131.499v-77z" />
    <glyph glyph-name="sadini" unicode="&#x635;" horiz-adv-x="690" arabic-form="initial" 
d="M86 26l0.000976562 319h32v-172c34 72 79.667 127 137 165s121.333 57 192 57c59.333 0 101.166 -16.667 125.499 -50s36.5 -83.333 36.5 -150l1 -195h-619v26h95zM577.001 26v154.998c0 27.333 -1.16699 52.333 -3.5 75s-8 42.334 -17 59.001s-22.667 29.5 -41 38.5
s-43.166 13.5 -74.499 13.5c-25.333 0 -52.833 -3.66699 -82.5 -11s-59.167 -20.833 -88.5 -40.5s-57.333 -46.667 -84 -81s-49.334 -78.166 -68.001 -131.499v-77h459z" />
    </font>
</defs>
</svg>
